<?xml version="1.0" standalone="no"?>
<!DOCTYPE svg PUBLIC "-//W3C//DTD SVG 1.1//EN" "http://www.w3.org/Graphics/SVG/1.1/DTD/svg11.dtd" >
<svg xmlns="http://www.w3.org/2000/svg">
<metadata></metadata>
<defs>
<font id="freightregular" horiz-adv-x="1452" >
<font-face units-per-em="2048" ascent="1638" descent="-410" />
<missing-glyph horiz-adv-x="284" />
<glyph horiz-adv-x="2048" />
<glyph horiz-adv-x="2048" />
<glyph unicode="&#xd;" horiz-adv-x="2048" />
<glyph unicode=" "  horiz-adv-x="284" />
<glyph unicode="&#x09;" horiz-adv-x="284" />
<glyph unicode="&#xa0;" horiz-adv-x="284" />
<glyph unicode="!" horiz-adv-x="532" d="M164 80q0 42 29 72t75 30q43 0 72 -30t29 -72q0 -43 -29 -75t-72 -32q-46 0 -75 32t-29 75zM190 1331h154l-39 -950h-72z" />
<glyph unicode="&#x22;" horiz-adv-x="620" d="M-6 815l260 508l123 -59l-316 -449h-67zM297 815l260 508l123 -59l-313 -449h-70z" />
<glyph unicode="#" horiz-adv-x="1153" d="M39 340v94h211l88 324h-258v94h282l123 463h101l-125 -463h352l123 463h98l-123 -463h185v-94h-211l-86 -324h256v-94h-283l-131 -492h-98l131 492h-350l-134 -492h-98l133 492h-186zM348 434h352l86 324h-352z" />
<glyph unicode="$" horiz-adv-x="1005" d="M70 92l47 117q130 -87 260 -111q0 7 35 254q3 26 15 113t19 141q-62 20 -104.5 36.5t-93.5 46.5t-81.5 64t-51.5 87t-21 118q0 154 114 251.5t294 97.5q31 0 47 -2q0 2 12 96l12 94h89l-27 -201q135 -23 252 -98l-47 -115q-103 71 -222 95l-63 -467q61 -19 107 -38 t95.5 -50t81 -68t52 -91t20.5 -120q0 -161 -120.5 -265t-311.5 -104h-30l-31 -225h-88l30 236q-149 20 -290 108zM221 969q0 -90 59.5 -140t190.5 -96q-1 1 3.5 32t13 90t14.5 106q16 102 30 227h-30q-136 0 -208.5 -62.5t-72.5 -156.5zM463 90h20q135 0 219 69t84 173 q0 95 -62 149.5t-196 98.5z" />
<glyph unicode="%" horiz-adv-x="1521" d="M31 987q0 144 93.5 243t246.5 99q154 0 247 -99t93 -243q0 -140 -93.5 -239t-246.5 -99q-152 0 -246 99t-94 239zM125 987q0 -104 66.5 -177t179.5 -73t180 73t67 177q0 109 -66.5 181.5t-180.5 72.5t-180 -72.5t-66 -181.5zM186 -31l1039 1340h110l-1036 -1340h-113z M809 291q0 140 93.5 239t246.5 99q152 0 246 -99t94 -239q0 -144 -93.5 -243t-246.5 -99q-154 0 -247 99t-93 243zM903 291q0 -109 66 -181.5t180 -72.5t181 72.5t67 181.5q0 104 -67.5 177t-180.5 73t-179.5 -73t-66.5 -177z" />
<glyph unicode="&#x26;" horiz-adv-x="1277" d="M61 324q0 128 89 222t229 136q-217 113 -217 301q0 81 43.5 154t128 120.5t190.5 47.5q149 0 241.5 -89t92.5 -215q0 -103 -68.5 -182.5t-189.5 -128.5q150 -74 301 -254l217 344h152l-307 -413l290 -359l-125 -37l-239 305q-92 -142 -206.5 -222.5t-244.5 -80.5 q-172 0 -274.5 102.5t-102.5 248.5zM190 330q0 -102 73 -173t192 -71q195 0 376 260q-186 222 -372 293q-269 -121 -269 -309zM293 991q0 -168 221 -262q219 94 219 262q0 87 -61.5 145t-157.5 58q-100 0 -160.5 -60t-60.5 -143z" />
<glyph unicode="'" horiz-adv-x="333" d="M-6 815l260 508l123 -59l-316 -449h-67z" />
<glyph unicode="(" horiz-adv-x="716" d="M139 463q0 143 35.5 278t92 239t130.5 193.5t147.5 149.5t145.5 98l60 -90q-68 -36 -135 -92t-133 -138t-116 -176.5t-81 -215t-31 -246.5q0 -125 31 -244.5t81 -214t115.5 -176.5t133 -138.5t135.5 -92.5l-60 -91q-73 38 -145.5 97.5t-147 149t-131 193t-92 239 t-35.5 278.5z" />
<glyph unicode=")" horiz-adv-x="716" d="M-33 -403q68 36 135.5 92t133 138t115 176.5t80 214.5t30.5 245q0 126 -30.5 246t-80 215t-115 177t-133 138t-135.5 92l60 90q72 -38 145.5 -98t147.5 -149.5t130.5 -193.5t92 -239t35.5 -278t-35.5 -278.5t-92 -239t-131 -193t-147 -149t-145.5 -97.5z" />
<glyph unicode="*" horiz-adv-x="694" d="M27 825l274 146v10l-270 147l78 109l221 -221l8 2l57 303l127 -41l-141 -276l6 -7l297 43v-133l-297 43l-6 -6l137 -278l-125 -39l-57 305l-6 2l-221 -217z" />
<glyph unicode="+" horiz-adv-x="995" d="M84 424l6 113h354v364h113v-364h350l6 -113h-356v-367h-113v367h-360z" />
<glyph unicode="," horiz-adv-x="382" d="M23 -266q180 126 180 243q0 40 -28.5 65t-98.5 52q5 42 33.5 71.5t76.5 29.5q58 0 102 -46t44 -116q0 -98 -70 -188.5t-184 -166.5z" />
<glyph unicode="-" horiz-adv-x="598" d="M70 438v119h462v-119h-462z" />
<glyph unicode="." horiz-adv-x="382" d="M90 80q0 42 29.5 72t73.5 30t73 -30t29 -72t-29.5 -74.5t-72.5 -32.5t-73 32.5t-30 74.5z" />
<glyph unicode="/" horiz-adv-x="423" d="M-106 -408l497 1846h103l-500 -1846h-100z" />
<glyph unicode="0" horiz-adv-x="1183" d="M98 483q0 223 140 366.5t352 143.5q214 0 354.5 -143.5t140.5 -366.5t-140.5 -366.5t-354.5 -143.5q-212 0 -352 143.5t-140 366.5zM225 483q0 -167 102.5 -278t262.5 -111q163 0 265.5 110.5t102.5 278.5t-102.5 278.5t-265.5 110.5q-160 0 -262.5 -111t-102.5 -278z " />
<glyph unicode="1" horiz-adv-x="667" d="M88 858l369 135v-993h-125v831l-238 -90z" />
<glyph unicode="2" horiz-adv-x="901" d="M96 0v117q34 26 98 74q78 59 115 87t96.5 75.5t87 73.5t64.5 64.5t52.5 66t27.5 60t12 64.5q0 84 -58.5 138t-156.5 54q-144 0 -291 -118l-45 108q163 129 348 129q149 0 242.5 -82t93.5 -213q0 -73 -27.5 -136.5t-102.5 -136.5t-125 -113.5t-174 -132.5q-51 -38 -77 -58 h553v-121h-733z" />
<glyph unicode="3" horiz-adv-x="858" d="M39 858q74 60 168.5 97.5t193.5 37.5q170 0 269.5 -87t99.5 -228q0 -113 -79 -201t-202 -135q149 -12 238.5 -105.5t89.5 -220.5q0 -177 -128.5 -286t-317.5 -109q-91 0 -180.5 21.5t-149.5 58.5l33 117q134 -80 301 -80q138 0 223.5 71.5t85.5 196.5q0 114 -79 177.5 t-208 68.5q-81 0 -186 -19v105q197 47 310.5 127.5t113.5 196.5q0 102 -65.5 157t-180.5 55q-154 0 -303 -122z" />
<glyph unicode="4" horiz-adv-x="1026" d="M31 119l657 880h111v-847h194l6 -121h-200v-408h-123v408h-629zM195 152h481v645z" />
<glyph unicode="5" horiz-adv-x="858" d="M39 -295l24 125q154 -88 308 -88q137 0 225 85t88 224q0 120 -85 202.5t-224 82.5q-84 0 -133 -8.5t-111 -30.5l-43 41l82 631h608l6 -123h-510l-59 -420q67 20 172 20q191 0 308.5 -109t117.5 -280q0 -191 -128 -313.5t-318 -122.5q-85 0 -174.5 23.5t-153.5 60.5z" />
<glyph unicode="6" horiz-adv-x="1030" d="M90 487q0 130 44 256t129.5 237.5t224.5 198t315 128.5l37 -119q-252 -60 -410 -206.5t-203 -346.5l4 -2q153 143 344 143q100 0 183 -43t135.5 -131t52.5 -207q0 -184 -115.5 -303t-304.5 -119q-135 0 -235.5 70t-150.5 185.5t-50 258.5zM223 461q0 -100 35.5 -183.5 t106.5 -135.5t165 -52q132 0 209.5 83t77.5 216q0 126 -75.5 200.5t-190.5 74.5q-179 0 -322 -136q-6 -30 -6 -67z" />
<glyph unicode="7" horiz-adv-x="899" d="M37 844l6 125h809v-103l-580 -1243h-129l572 1221h-678z" />
<glyph unicode="8" horiz-adv-x="1003" d="M92 313q0 65 26 122.5t68 97t86 66t90 42.5q-116 51 -182.5 121t-66.5 178q0 156 109.5 254t287.5 98q174 0 277.5 -94.5t103.5 -243.5q0 -58 -22 -111t-59 -91.5t-76 -66.5t-83 -48q59 -27 101.5 -54t80.5 -64t58 -84.5t20 -104.5q0 -71 -26 -134.5t-76 -113.5 t-129 -79.5t-178 -29.5q-200 0 -305 97t-105 243zM221 330q0 -112 75.5 -178t209.5 -66q137 0 206.5 60.5t69.5 164.5q0 43 -16.5 79.5t-43 63t-66 51t-79.5 43t-89 39.5q-18 7 -27 11q-104 -35 -172 -105t-68 -163zM242 954q0 -41 19 -77t43.5 -60t74 -52t81.5 -42.5 t95 -40.5q93 38 150 102.5t57 153.5q0 107 -72.5 175.5t-183.5 68.5q-122 0 -193 -66t-71 -162z" />
<glyph unicode="9" horiz-adv-x="1030" d="M84 571q0 184 116 303t306 119q135 0 235 -70t149.5 -185t49.5 -259q0 -104 -27 -205t-84.5 -197t-140.5 -176.5t-201 -143.5t-260 -97l-37 119q252 60 410 206.5t203 346.5l-4 2q-154 -144 -344 -144q-100 0 -183 43t-135.5 131t-52.5 207zM213 578q0 -126 76 -200.5 t190 -74.5q180 0 322 135q6 30 6 68q0 159 -82 265t-225 106q-132 0 -209.5 -83t-77.5 -216z" />
<glyph unicode=":" horiz-adv-x="382" d="M90 80q0 42 29.5 72t73.5 30t73 -30t29 -72t-29.5 -74.5t-72.5 -32.5t-73 32.5t-30 74.5zM90 733q0 42 29.5 71.5t73.5 29.5t73 -29.5t29 -71.5q0 -44 -29 -75t-73 -31t-73.5 31.5t-29.5 74.5z" />
<glyph unicode=";" horiz-adv-x="382" d="M23 -266q180 126 180 243q0 40 -28.5 65t-98.5 52q5 42 33.5 71.5t76.5 29.5q58 0 102 -46t44 -116q0 -98 -70 -188.5t-184 -166.5zM90 733q0 42 29.5 71.5t73.5 29.5t73 -29.5t29 -71.5q0 -44 -29 -75t-73 -31t-73.5 31.5t-29.5 74.5z" />
<glyph unicode="&#x3c;" horiz-adv-x="933" d="M70 426v111l780 391v-125l-637 -311v-21l639 -311v-123z" />
<glyph unicode="=" horiz-adv-x="913" d="M72 244l8 112h758l8 -112h-774zM72 717h774l-8 -113h-758z" />
<glyph unicode="&#x3e;" horiz-adv-x="933" d="M78 37v123l639 311v21l-637 311v125l780 -391v-111z" />
<glyph unicode="?" horiz-adv-x="714" d="M106 1174v116q74 19 148 19q170 0 274.5 -101t104.5 -233q0 -61 -17.5 -108t-51.5 -78.5t-66.5 -50.5t-79.5 -38q-46 -20 -68 -31t-47.5 -28.5t-35 -36t-9.5 -43.5q0 -80 123 -174l-68 -22q-67 40 -112 95t-45 118q0 83 51 131t147 86q88 35 131 72.5t43 105.5 q0 91 -75.5 155t-204.5 64q-50 0 -142 -18zM199 80q0 42 29 72t75 30q44 0 73.5 -30t29.5 -72t-30 -74.5t-73 -32.5q-46 0 -75 32t-29 75z" />
<glyph unicode="@" horiz-adv-x="1701" d="M88 496q0 163 61.5 311.5t166.5 256.5t251.5 172t309.5 64q150 0 285 -47.5t237 -132.5t162.5 -213t60.5 -280q0 -124 -32.5 -226t-86.5 -167t-122.5 -100.5t-143.5 -35.5q-84 0 -144.5 42t-86.5 110q-113 -135 -250 -135q-129 0 -211 96.5t-82 239.5q0 126 57.5 235 t156 173.5t214.5 64.5q100 0 203 -62l118 53l-100 -491q-23 -113 13 -174.5t126 -61.5q120 0 206.5 117.5t86.5 321.5q0 134 -56 249.5t-149 192.5t-213.5 120.5t-248.5 43.5q-194 0 -358.5 -101.5t-258.5 -270.5t-94 -363q0 -187 82 -342.5t232 -246.5t337 -91 q117 0 252 41l18 -68q-136 -43 -274 -43q-206 0 -372.5 99t-259.5 270t-93 379zM578 459q0 -109 57.5 -178.5t150.5 -69.5q106 0 197 104l88 433q-76 83 -192 83q-82 0 -152.5 -54t-109.5 -139t-39 -179z" />
<glyph unicode="A" horiz-adv-x="1177" d="M31 0l485 1280h154l477 -1280h-133l-135 367h-580l-135 -367h-133zM344 485h490l-244 666z" />
<glyph unicode="B" horiz-adv-x="1126" d="M164 0v1280h399q221 0 328.5 -90t107.5 -244q0 -101 -61.5 -180.5t-183.5 -110.5q139 -29 212.5 -107t73.5 -192q0 -163 -114 -259.5t-346 -96.5h-416zM295 119h295q319 0 319 237q0 112 -89.5 169t-262.5 57h-262v-463zM295 700h254q149 0 234 61t85 175 q0 107 -74.5 166t-224.5 59h-274v-461z" />
<glyph unicode="C" horiz-adv-x="1200" d="M96 637q0 302 173.5 486t445.5 184q111 0 214 -29.5t181 -75.5l-41 -117q-162 103 -356 103q-213 0 -348.5 -146t-135.5 -401q0 -252 133.5 -400.5t354.5 -148.5q100 0 194.5 31.5t163.5 83.5l25 -129q-74 -49 -174.5 -77t-210.5 -28q-279 0 -449 181.5t-170 482.5z" />
<glyph unicode="D" horiz-adv-x="1286" d="M164 0v1280h348q313 0 495.5 -172.5t182.5 -458.5q0 -303 -181.5 -476t-506.5 -173h-338zM295 121h213q254 0 402.5 131.5t148.5 386.5q0 246 -145.5 383t-409.5 137h-209v-1038z" />
<glyph unicode="E" horiz-adv-x="1038" d="M164 0v1280h774v-121h-643v-459h536v-118h-536v-461h643v-121h-774z" />
<glyph unicode="F" horiz-adv-x="980" d="M164 0v1280h754v-123h-623v-477h516v-121h-516v-559h-131z" />
<glyph unicode="G" horiz-adv-x="1280" d="M96 637q0 302 173.5 486t445.5 184q112 0 219.5 -30.5t185.5 -76.5l-43 -119q-74 49 -170.5 78t-193.5 29q-213 0 -348.5 -146t-135.5 -401q0 -252 133.5 -400.5t354.5 -148.5q171 0 307 78v348h-371v119h498v-537q-92 -62 -207.5 -94.5t-228.5 -32.5q-279 0 -449 181.5 t-170 482.5z" />
<glyph unicode="H" horiz-adv-x="1339" d="M164 0v1280h131v-578h749v578h132v-1280h-132v584h-749v-584h-131z" />
<glyph unicode="I" horiz-adv-x="466" d="M168 0v1280h129v-1280h-129z" />
<glyph unicode="J" horiz-adv-x="847" d="M29 53l22 127q141 -88 264 -88q254 0 254 305v883h129v-887q0 -198 -95 -309t-290 -111q-155 0 -284 80z" />
<glyph unicode="K" horiz-adv-x="1099" d="M164 0v1280h131v-614h2l592 614h168l-633 -635l643 -645h-170l-600 612h-2v-612h-131z" />
<glyph unicode="L" horiz-adv-x="978" d="M164 0v1280h131v-1157h633v-123h-764z" />
<glyph unicode="M" horiz-adv-x="1558" d="M133 0l43 1280h176l432 -1130l426 1130h174l41 -1280h-133l-20 1118l-420 -1110h-143l-424 1112l-23 -1120h-129z" />
<glyph unicode="N" horiz-adv-x="1331" d="M164 0v1280h147l727 -1098v1098h127v-1292h-141l-733 1108v-1096h-127z" />
<glyph unicode="O" d="M96 637q0 194 81 347t225 238t325 85q132 0 248 -48.5t200 -134.5t132.5 -210t48.5 -269q0 -193 -80.5 -346.5t-225 -239.5t-325.5 -86q-132 0 -247.5 48.5t-200 134.5t-133 211t-48.5 270zM229 645q0 -246 142 -400.5t360 -154.5q215 0 353.5 153t138.5 394 q0 246 -140 399.5t-360 153.5q-216 0 -355 -152t-139 -393z" />
<glyph unicode="P" horiz-adv-x="1062" d="M164 0v1280h321q246 0 373 -108t127 -291q0 -207 -136 -315t-380 -113l-174 -2v-451h-131zM295 571l182 4q373 9 373 299q0 137 -95 211t-274 74h-186v-588z" />
<glyph unicode="Q" d="M96 637q0 194 81 347t225 238t325 85q132 0 248 -48.5t200 -134.5t132.5 -210t48.5 -269q0 -217 -103 -380t-278 -238l420 -213l-58 -113l-524 281q-47 -9 -88 -9q-132 0 -247.5 48.5t-200 134.5t-133 211t-48.5 270zM229 645q0 -246 142 -400.5t360 -154.5 q215 0 353.5 153t138.5 394q0 246 -140 399.5t-360 153.5q-216 0 -355 -152t-139 -393z" />
<glyph unicode="R" horiz-adv-x="1083" d="M164 0v1280h344q231 0 348 -98t117 -271q0 -136 -83 -228.5t-214 -131.5l354 -551h-151l-328 528l-256 -16v-512h-131zM295 629l229 8q135 5 226.5 75.5t91.5 192.5q0 126 -89.5 191t-258.5 65h-199v-532z" />
<glyph unicode="S" horiz-adv-x="1003" d="M74 92l47 117q172 -119 368 -119q132 0 218 69t86 173q0 44 -15 80t-40.5 62t-68.5 49.5t-88.5 40.5t-111.5 36q-64 20 -109 37t-99 47.5t-87 65.5t-55.5 88.5t-22.5 119.5q0 153 115.5 251t294.5 98q217 0 385 -111l-47 -115q-73 50 -161.5 78.5t-174.5 28.5 q-136 0 -210.5 -63t-74.5 -156q0 -41 15.5 -74.5t41 -58.5t69 -47.5t88.5 -39.5t110 -36q63 -19 111 -37.5t99.5 -50t84.5 -69t54.5 -92.5t21.5 -122q0 -161 -121 -265t-312 -104q-223 0 -411 119z" />
<glyph unicode="T" horiz-adv-x="1126" d="M47 1157v123h1032v-123h-450v-1157h-131v1157h-451z" />
<glyph unicode="U" horiz-adv-x="1261" d="M150 469v811h126v-795q0 -187 91 -289t268 -102q172 0 261 100.5t89 292.5v793h129v-791q0 -242 -125 -379t-360 -137q-227 0 -353 133t-126 363z" />
<glyph unicode="V" horiz-adv-x="1136" d="M20 1280h134l415 -1145l414 1145h133l-473 -1280h-154z" />
<glyph unicode="W" horiz-adv-x="1832" d="M84 1280h135l299 -1094l326 1094h155l332 -1094l287 1094h131l-358 -1280h-127l-344 1126l-347 -1126h-124z" />
<glyph unicode="X" horiz-adv-x="1150" d="M27 0l469 651l-445 629h156l368 -535l371 535h154l-449 -623l471 -657h-159l-392 567l-391 -567h-153z" />
<glyph unicode="Y" horiz-adv-x="1073" d="M25 1280h147l369 -637l362 637h146l-447 -766v-514h-131v514z" />
<glyph unicode="Z" horiz-adv-x="1044" d="M49 0v96l760 1065h-737v119h901v-98l-760 -1063h758v-119h-922z" />
<glyph unicode="[" horiz-adv-x="792" d="M201 -455v1837h532v-104h-416v-1628h416v-105h-532z" />
<glyph unicode="\" horiz-adv-x="423" d="M-68 1438h103l497 -1846h-100z" />
<glyph unicode="]" horiz-adv-x="792" d="M61 -350h416v1628h-416v104h531v-1837h-531v105z" />
<glyph unicode="^" horiz-adv-x="772" d="M106 1061l232 373h143l232 -373h-97l-204 276h-2l-207 -276h-97z" />
<glyph unicode="_" horiz-adv-x="911" d="M-23 0h957v-100h-957v100z" />
<glyph unicode="`" horiz-adv-x="811" d="M145 1427h164l242 -366h-94z" />
<glyph unicode="a" horiz-adv-x="899" d="M68 233q0 304 569 334v56q0 112 -53 167.5t-168 55.5q-72 0 -156.5 -32.5t-150.5 -80.5l-29 119q65 47 162.5 80t185.5 33q168 0 252.5 -80.5t83.5 -255.5v-451q0 -55 18 -75q17 -19 71 -19h5l-8 -104q-14 -1 -27 -1q-158 0 -178 134h-6q-50 -63 -121.5 -101.5 t-152.5 -38.5q-129 0 -213 73.5t-84 186.5zM201 248q0 -74 53.5 -119t138.5 -45q71 0 134 34.5t110 88.5v274q-238 -29 -337 -83.5t-99 -149.5z" />
<glyph unicode="b" horiz-adv-x="1046" d="M147 -31v1411l127 27v-567q126 118 283 118q185 0 297.5 -132.5t112.5 -344.5q0 -222 -130 -365t-333 -143q-124 0 -230 52zM274 162q90 -74 236 -74q150 0 238 107.5t88 279.5q0 162 -83 264.5t-221 102.5q-145 0 -258 -105v-575z" />
<glyph unicode="c" horiz-adv-x="923" d="M86 467q0 219 130.5 358.5t330.5 139.5q168 0 293 -80l-33 -115q-116 76 -260 76q-152 0 -241 -103.5t-89 -271.5q0 -171 91 -275t241 -104q141 0 260 78l27 -117q-131 -80 -291 -80q-211 0 -335 136.5t-124 357.5z" />
<glyph unicode="d" horiz-adv-x="1052" d="M86 461q0 218 131 357.5t334 139.5q123 0 227 -51v473l127 27v-1407h-127v88q-127 -115 -272 -115q-189 0 -304.5 135.5t-115.5 352.5zM217 463q0 -166 85 -269.5t226 -103.5q140 0 250 105v577q-87 72 -233 72q-150 0 -239 -106.5t-89 -274.5z" />
<glyph unicode="e" horiz-adv-x="962" d="M86 461q0 220 125.5 362t316.5 142q156 0 249 -94t93 -253q0 -90 -20 -149l-635 -4v-10q5 -162 93.5 -262.5t234.5 -100.5q153 0 272 78l25 -117q-131 -80 -301 -80q-202 0 -327.5 136t-125.5 352zM223 565l520 2q2 10 2 41q0 111 -58.5 176.5t-166.5 65.5 q-122 0 -200.5 -81t-96.5 -204z" />
<glyph unicode="f" horiz-adv-x="610" d="M23 827l8 80l141 33l2 147q8 338 283 338q95 0 172 -41q-1 -1 -8.5 -30t-14.5 -57t-8 -27q-73 39 -143 39q-79 0 -117.5 -52.5t-38.5 -166.5v-156h295l-6 -113h-289v-821h-125v817z" />
<glyph unicode="g" horiz-adv-x="958" d="M16 -233q0 80 55.5 144t147.5 87q-127 49 -127 149q0 58 42.5 105.5t111.5 73.5q-70 43 -111 117t-41 169q0 151 103 252t266 101q129 0 221 -56l260 21l6 -127l-207 20q35 -35 55.5 -94t20.5 -117q0 -149 -104 -246.5t-260 -97.5q-61 0 -140 27q-104 -49 -104 -113 q0 -47 47.5 -71.5t165.5 -24.5h121q389 0 389 -246q0 -100 -69 -180.5t-181.5 -124t-243.5 -43.5q-189 0 -306.5 76t-117.5 199zM139 -211q0 -86 86.5 -139t233.5 -53q148 0 250 63.5t102 157.5q0 82 -69 115.5t-216 33.5q-141 0 -196 6q-86 -23 -138.5 -73.5t-52.5 -110.5z M219 610q0 -106 64.5 -172.5t177.5 -66.5q107 0 170 67.5t63 177.5q0 108 -62 176t-177 68q-109 0 -172.5 -69t-63.5 -181z" />
<glyph unicode="h" horiz-adv-x="1034" d="M147 0v1380l127 27v-592q72 72 159 111t167 39q137 0 215 -84.5t78 -237.5v-643h-127v606q0 123 -49 180.5t-152 57.5q-158 0 -291 -133v-711h-127z" />
<glyph unicode="i" horiz-adv-x="428" d="M127 1247q0 38 22.5 64t63.5 26t63.5 -26t22.5 -64q0 -39 -22.5 -66.5t-63.5 -27.5t-63.5 27.5t-22.5 66.5zM150 0v938l126 27v-965h-126z" />
<glyph unicode="j" horiz-adv-x="423" d="M-31 -422q102 53 141.5 129.5t39.5 226.5v1004l126 27v-1031q0 -179 -50.5 -279t-170.5 -167zM127 1247q0 38 22.5 64t63.5 26t63.5 -26t22.5 -64q0 -39 -22.5 -66.5t-63.5 -27.5t-63.5 27.5t-22.5 66.5z" />
<glyph unicode="k" horiz-adv-x="888" d="M147 0v1380l127 27v-901h5l421 432h160l-450 -446l452 -492h-162l-421 467h-5v-467h-127z" />
<glyph unicode="l" horiz-adv-x="421" d="M147 0v1380l127 27v-1407h-127z" />
<glyph unicode="m" horiz-adv-x="1587" d="M147 0v938l127 27v-129q141 129 297 129q183 0 254 -156q156 156 332 156q136 0 212.5 -85t76.5 -239v-641h-127v604q0 123 -48 181.5t-151 58.5q-136 0 -264 -121q4 -28 4 -84v-639h-127v604q0 123 -48 181.5t-150 58.5q-136 0 -261 -109v-735h-127z" />
<glyph unicode="n" horiz-adv-x="1034" d="M147 0v938l127 27v-154q72 72 158.5 113t161.5 41q141 0 220 -84.5t79 -237.5v-643h-127v606q0 123 -50.5 180.5t-156.5 57.5q-152 0 -285 -133v-711h-127z" />
<glyph unicode="o" horiz-adv-x="1087" d="M86 467q0 221 132 359.5t331 138.5t324.5 -135.5t125.5 -358.5q0 -221 -131 -359.5t-329 -138.5q-199 0 -326 135.5t-127 358.5zM213 471q0 -172 91.5 -277.5t240.5 -105.5q148 0 238.5 106t90.5 273q0 172 -91 277.5t-240 105.5q-148 0 -239 -106t-91 -273z" />
<glyph unicode="p" horiz-adv-x="1054" d="M147 -477v1419l127 27v-125q122 114 273 114q189 0 304.5 -135t115.5 -350q0 -219 -129.5 -359.5t-333.5 -140.5q-128 0 -230 50v-500h-127zM274 162q90 -74 236 -74q150 0 238 107t88 276q0 165 -84.5 268t-225.5 103q-139 0 -252 -105v-575z" />
<glyph unicode="q" horiz-adv-x="1052" d="M86 461q0 218 131 357.5t334 139.5q140 0 248 -53l106 60v-1442h-127v565q-127 -115 -272 -115q-189 0 -304.5 135.5t-115.5 352.5zM217 463q0 -166 85 -270.5t226 -104.5q138 0 250 107v577q-90 74 -233 74q-150 0 -239 -107t-89 -276z" />
<glyph unicode="r" horiz-adv-x="729" d="M147 0v938l127 27v-201q103 201 277 201q90 0 164 -43l-33 -119q-67 41 -143 41q-160 0 -265 -242v-602h-127z" />
<glyph unicode="s" horiz-adv-x="792" d="M68 57l34 117q125 -86 277 -86q89 0 150 42t61 116q0 19 -3.5 35t-13.5 30l-17.5 24.5t-26.5 21.5t-28 17t-35 15.5t-34.5 12.5t-39.5 13.5t-38 12.5q-44 12 -78.5 26t-72.5 36.5t-63 49.5t-41.5 67t-16.5 87q0 124 90.5 197.5t226.5 73.5q148 0 285 -70l-37 -115 q-130 70 -256 70q-87 0 -137.5 -38t-50.5 -105q0 -48 36 -83.5t70 -49.5t114 -40q7 -3 11 -4q59 -17 101 -35.5t86 -50t67 -79t23 -109.5q0 -125 -96.5 -204t-239.5 -79q-175 0 -307 84z" />
<glyph unicode="t" horiz-adv-x="673" d="M25 827l6 80l141 33l6 213h121l-6 -219h313l-6 -113h-311l-15 -561v-14q0 -162 138 -162q77 0 180 45l22 -111q-104 -49 -208 -49q-134 0 -196 73q-57 68 -56 200v22l14 555z" />
<glyph unicode="u" horiz-adv-x="1032" d="M139 295v643h127v-606q0 -123 49.5 -180.5t153.5 -57.5q80 0 155 35.5t134 97.5v711h127v-938l-127 -27v152q-71 -72 -157.5 -112t-166.5 -40q-138 0 -216.5 84.5t-78.5 237.5z" />
<glyph unicode="v" horiz-adv-x="868" d="M6 938h137l297 -774l287 774h133l-368 -940h-115z" />
<glyph unicode="w" horiz-adv-x="1355" d="M31 938h135l217 -748l244 746h114l256 -750l195 752h139l-278 -942h-113l-256 758l-256 -758h-111z" />
<glyph unicode="x" horiz-adv-x="806" d="M8 0l324 481l-303 457h141l233 -365l230 365h141l-299 -453l324 -485h-142l-254 395l-251 -395h-144z" />
<glyph unicode="y" horiz-adv-x="868" d="M-66 -444l39 116q77 -41 144 -41q58 0 101.5 45t90.5 172l64 166l-367 924h137l295 -774l289 774h133l-364 -928l-76 -203q-64 -167 -133 -230.5t-170 -63.5q-85 0 -183 43z" />
<glyph unicode="z" horiz-adv-x="802" d="M43 0v100l559 725h-541v113h693v-98l-559 -727h559v-113h-711z" />
<glyph unicode="{" horiz-adv-x="679" d="M39 473l6 70q144 11 202 51t58 135q0 54 -25.5 125.5t-51 150.5t-25.5 150q0 129 111 190t333 72v-94q-177 -13 -251 -50.5t-74 -107.5q0 -64 52 -203.5t52 -211.5q0 -112 -71 -186.5t-212 -84.5v-12q142 -10 212.5 -83.5t70.5 -188.5q0 -71 -52 -210t-52 -198 q0 -75 73.5 -113t251.5 -51v-92q-223 11 -333.5 71t-110.5 189q0 72 25.5 151.5t51 151.5t25.5 125q0 93 -58.5 134t-201.5 53z" />
<glyph unicode="|" horiz-adv-x="505" d="M197 -408v1846h112v-1846h-112z" />
<glyph unicode="}" horiz-adv-x="679" d="M33 -377q176 12 250.5 49.5t74.5 110.5q0 62 -52 202t-52 210q0 112 71 187t212 85v12q-141 7 -212 81.5t-71 189.5q0 72 52 211.5t52 201.5q0 73 -74 110t-251 50v94q223 -13 333.5 -73t110.5 -189q0 -72 -26 -151.5t-52 -151t-26 -125.5q0 -95 59 -135t203 -51l6 -68 l-6 -70q-144 -11 -203 -51t-59 -135q0 -54 26 -125.5t52 -150.5t26 -150q0 -130 -111.5 -191t-332.5 -69v92z" />
<glyph unicode="~" horiz-adv-x="772" d="M76 375q17 122 60.5 178.5t121.5 56.5q51 0 112.5 -37t114 -73.5t82.5 -36.5q31 0 51.5 29t38.5 106h84q-17 -122 -60.5 -179t-121.5 -57q-41 0 -88 23t-82 50t-73 50t-64 23q-32 0 -52 -28.5t-40 -104.5h-84z" />
<glyph unicode="&#xa1;" horiz-adv-x="532" d="M164 1198q0 43 28.5 75t73.5 32q43 0 73 -32.5t30 -74.5t-29.5 -71t-73.5 -29q-46 0 -74 29t-28 71zM188 -51l41 950h72l41 -950h-154z" />
<glyph unicode="&#xa2;" horiz-adv-x="911" d="M86 467q0 219 129 358.5t330 139.5h22l25 186h88l-12 -98q-3 -22 -6.5 -46t-6 -38t-2.5 -15q109 -19 187 -69l-33 -115q-74 50 -170 68l-100 -746h12q141 0 260 78l27 -117q-131 -80 -289 -80h-27l-28 -225h-89l33 238q-161 37 -255.5 165t-94.5 316zM217 471 q0 -142 62.5 -239t171.5 -128l7 52q8 53 21 146t23 173q7 54 23.5 177.5t25.5 193.5h-6q-152 0 -240 -103t-88 -272z" />
<glyph unicode="&#xa3;" horiz-adv-x="1013" d="M39 70q136 40 183.5 101t47.5 179q0 103 -6 217h-192l-6 95h194q-6 120 -6 217q0 209 101.5 320.5t283.5 111.5q152 0 281 -76l-33 -113q-130 74 -252 74q-130 0 -193 -81t-63 -218q0 -112 8 -235h401l-6 -95h-391q4 -136 4 -205q0 -84 -14 -139q67 -60 155.5 -99.5 t147.5 -39.5q80 0 134.5 49.5t82.5 171.5l94 -20q-17 -150 -99 -233t-198 -83q-176 0 -354 164q-72 -114 -276 -168q-7 34 -15 53q-14 47 -14 52z" />
<glyph unicode="&#xa4;" horiz-adv-x="1032" d="M68 430l6 92h141q-4 78 -4 113q0 45 4 127h-141l-6 92h161q41 226 160.5 341.5t304.5 115.5q179 0 295 -70l-28 -113q-116 70 -267 70q-278 0 -340 -344h482l-7 -92h-485q-4 -78 -4 -115q0 -47 4 -125h424l6 -92h-418q65 -348 332 -348q157 0 277 68l20 -113 q-127 -68 -301 -68q-189 0 -306.5 115t-152.5 346h-157z" />
<glyph unicode="&#xa5;" horiz-adv-x="1116" d="M27 1280h145l369 -612l364 612h142l-404 -645h320l-7 -94h-356v-181h356l7 -92h-363v-268h-127v268h-362l6 92h358v181h-358l-6 94h321z" />
<glyph unicode="&#xa6;" horiz-adv-x="763" d="M33 41l20 127q116 -76 223 -76q224 0 224 277v911h131v-915q0 -392 -355 -392q-65 0 -130.5 19.5t-112.5 48.5z" />
<glyph unicode="&#xa7;" horiz-adv-x="962" d="M49 600q0 93 67.5 161t172.5 99q-121 69 -121 184q0 125 92.5 199t228.5 74q148 0 285 -70l-37 -112q-131 67 -256 67q-87 0 -139.5 -38t-52.5 -105q0 -33 20 -59.5t57.5 -45t78.5 -33t97 -30.5l7.5 -1.5t6.5 -2t8 -2.5t7 -2q63 -18 104.5 -32t93 -39.5t82 -53.5t52 -71 t21.5 -95q0 -94 -62 -160t-166 -98q107 -73 107 -187q0 -127 -97.5 -204.5t-242.5 -77.5q-170 0 -307 84l37 114q130 -83 274 -83q90 0 152.5 42t62.5 113q0 26 -9 47.5t-33.5 40t-41.5 30t-60.5 27.5t-62 21.5t-72.5 21.5q-7 2 -10 3q-64 19 -102.5 31.5t-90.5 37t-80.5 50 t-49.5 66t-21 89.5zM166 627q0 -43 28.5 -75t80.5 -54.5t106.5 -39.5t125.5 -40t118 -45q76 33 128 82t52 112q0 44 -26.5 78t-76.5 58t-100 41t-121.5 39t-115.5 40q-199 -88 -199 -196z" />
<glyph unicode="&#xa8;" horiz-adv-x="813" d="M115 1214q0 42 27 71.5t69 29.5q43 0 70.5 -29.5t27.5 -71.5t-27.5 -72t-70.5 -30q-42 0 -69 30t-27 72zM508 1214q0 42 28.5 71.5t71.5 29.5q42 0 69.5 -29.5t27.5 -71.5t-27.5 -72t-69.5 -30q-43 0 -71.5 30t-28.5 72z" />
<glyph unicode="&#xa9;" horiz-adv-x="1492" d="M78 637q0 182 89.5 336.5t244 245t336.5 90.5q137 0 261 -53.5t213 -143.5t142 -214.5t53 -260.5t-53 -260t-142 -214t-213 -143t-261 -53q-182 0 -336.5 90t-244 244t-89.5 336zM137 637q0 -165 82 -306t223 -223.5t306 -82.5t305.5 82.5t222.5 223.5t82 306 q0 124 -48.5 237.5t-130 196.5t-194.5 132.5t-237 49.5q-165 0 -306 -83.5t-223 -225.5t-82 -307zM412 635q0 172 101 276.5t263 104.5q142 0 230 -60l-35 -92q-88 58 -195 58q-118 0 -188 -75t-70 -208q0 -131 71 -209t189 -78q115 0 201 66l20 -101q-86 -59 -225 -59 q-162 0 -262 103t-100 274z" />
<glyph unicode="&#xaa;" horiz-adv-x="696" d="M47 721q0 246 434 268v49q0 166 -155 166q-116 0 -232 -90l-43 88q147 105 283 105q115 0 183.5 -62t68.5 -201v-311q0 -110 78 -196l-111 -25q-40 40 -61 111h-3q-41 -47 -101.5 -79t-127.5 -32q-96 0 -154.5 59.5t-58.5 149.5zM150 733q0 -60 38.5 -92.5t96.5 -32.5 q53 0 106.5 24t89.5 62v213q-331 -21 -331 -174z" />
<glyph unicode="&#xab;" horiz-adv-x="1173" d="M51 416v127l479 340l17 -95l-383 -307v-4l383 -307l-17 -94zM586 412v135l504 358l14 -98l-402 -326v-4l402 -325l-14 -99z" />
<glyph unicode="&#xac;" horiz-adv-x="1052" d="M86 461q0 218 131 357.5t334 139.5q140 0 248 -53l106 60v-787q0 -55 18 -75t76 -19l-8 -104q-93 -6 -143.5 28.5t-63.5 93.5q-126 -129 -278 -129q-189 0 -304.5 135.5t-115.5 352.5zM217 463q0 -166 85 -270.5t226 -104.5q138 0 250 107v577q-90 74 -233 74 q-150 0 -239 -107t-89 -276z" />
<glyph unicode="&#xad;" horiz-adv-x="598" d="M70 438v119h462v-119h-462z" />
<glyph unicode="&#xae;" horiz-adv-x="1492" d="M78 637q0 182 89.5 336.5t244 245t336.5 90.5q137 0 261 -53.5t213 -143.5t142 -214.5t53 -260.5t-53 -260t-142 -214t-213 -143t-261 -53q-182 0 -336.5 90t-244 244t-89.5 336zM137 637q0 -165 82 -306t223 -223.5t306 -82.5t305.5 82.5t222.5 223.5t82 306 q0 124 -48.5 237.5t-130 196.5t-194.5 132.5t-237 49.5q-165 0 -306 -83.5t-223 -225.5t-82 -307zM506 283v725h233q135 0 206 -59t71 -165q0 -77 -38 -130.5t-106 -78.5l183 -292h-119l-166 268l-162 -8v-260h-102zM606 631l129 4q89 1 133.5 38.5t44.5 104.5 q0 137 -184 137h-123v-284z" />
<glyph unicode="&#xaf;" horiz-adv-x="813" d="M150 1098l6 92h508l8 -92h-522z" />
<glyph unicode="&#xb0;" horiz-adv-x="729" d="M61 1004q0 128 84 217.5t220 89.5q137 0 220 -89t83 -218q0 -126 -83.5 -215t-219.5 -89q-135 0 -219.5 89t-84.5 215zM150 1004q0 -92 58 -155t157 -63t157 63t58 155q0 96 -57.5 158.5t-157.5 62.5t-157.5 -62.5t-57.5 -158.5z" />
<glyph unicode="&#xb1;" horiz-adv-x="1492" d="M78 637q0 182 89.5 336.5t244 245t336.5 90.5q137 0 261 -53.5t213 -143.5t142 -214.5t53 -260.5q0 -137 -53 -261t-142 -213.5t-213 -142.5t-261 -53t-261 53t-213.5 142.5t-142.5 213.5t-53 261zM137 637q0 -165 82 -306t223 -223.5t306 -82.5t305.5 82.5t222.5 223.5 t82 306q0 124 -48.5 237.5t-130 196.5t-194.5 132.5t-237 49.5q-165 0 -306 -83.5t-223 -225.5t-82 -307zM545 262v725h219q143 0 216 -62.5t73 -170.5q0 -123 -78 -186.5t-221 -63.5h-107v-242h-102zM647 596h115q186 3 186 154q0 145 -188 145h-113v-299z" />
<glyph unicode="&#xb4;" horiz-adv-x="811" d="M268 1061l242 366h164l-312 -366h-94z" />
<glyph unicode="&#xb5;" horiz-adv-x="1054" d="M86 461q0 218 132 357.5t335 139.5q140 0 248 -53l106 60v-981q0 -471 -411 -471q-166 0 -310 67l33 117q129 -68 277 -68q142 0 213 83.5t71 264.5v113q-127 -115 -272 -115q-188 0 -305 135.5t-117 350.5zM217 463q0 -165 86.5 -269t226.5 -104q138 0 250 107v575 q-90 74 -233 74q-149 0 -239.5 -107.5t-90.5 -275.5z" />
<glyph unicode="&#xb6;" horiz-adv-x="1026" d="M94 893q0 187 129.5 287t345.5 100h267v-1411h-111v670q-78 -19 -154 -19q-234 0 -355.5 103.5t-121.5 269.5z" />
<glyph unicode="&#xb7;" horiz-adv-x="382" d="M90 469q0 42 29.5 72t73.5 30t73 -30t29 -72t-29.5 -74.5t-72.5 -32.5t-73 32.5t-30 74.5z" />
<glyph unicode="&#xb8;" horiz-adv-x="813" d="M256 -170l236 231h102l-205 -200q113 5 181.5 -39.5t68.5 -128.5q0 -89 -82.5 -148t-245.5 -77l-10 86q116 6 176 40t60 89q0 66 -70.5 88t-198.5 -2z" />
<glyph unicode="&#xba;" horiz-adv-x="866" d="M68 909q0 177 105 287.5t265 110.5q159 0 260 -108.5t101 -287.5q0 -176 -105.5 -286.5t-263.5 -110.5t-260 108t-102 287zM172 911q0 -135 72 -219t190 -84q120 0 191 83.5t71 215.5q0 137 -72 221t-190 84q-120 0 -191 -83t-71 -218z" />
<glyph unicode="&#xbb;" horiz-adv-x="1179" d="M76 152l401 325v4l-401 326l16 98l502 -358v-135l-502 -359zM633 170l383 307v4l-383 307l16 95l479 -340v-127l-479 -340z" />
<glyph unicode="&#xbc;" horiz-adv-x="1230" d="M23 829l8 78l141 33l2 127q8 338 283 338q95 0 172 -41q-1 -1 -8.5 -30t-14.5 -57.5t-8 -27.5q-73 39 -143 39q-79 0 -117.5 -52.5t-38.5 -166.5v-135h494l2 153q8 338 282 338q97 0 174 -41q-1 -1 -8 -30t-14 -57t-8 -27q-73 39 -146 39q-79 0 -116 -52t-37 -167v-156 h292l-6 -115h-286v-819h-127v819h-496v-819h-125v819z" />
<glyph unicode="&#xbd;" horiz-adv-x="1642" d="M23 829l8 78l141 33l2 127q0 175 76.5 256.5t206.5 81.5q95 0 172 -41q-1 -1 -8.5 -30t-14.5 -57.5t-8 -27.5q-73 39 -143 39q-79 0 -117.5 -52.5t-38.5 -166.5v-135h494l2 153q8 338 282 338q97 0 174 -41q-1 -1 -8 -30t-14 -57t-8 -27q-73 39 -146 39q-79 0 -116 -52 t-37 -167v-156h442l131 31v-965h-125v819h-448v-819h-127v819h-496v-819h-125v819z" />
<glyph unicode="&#xbe;" horiz-adv-x="1642" d="M23 829l8 78l141 33l2 127q8 338 283 338q95 0 172 -41q-1 -1 -8.5 -30t-14.5 -57.5t-8 -27.5q-73 39 -143 39q-79 0 -117.5 -52.5t-38.5 -166.5v-135h494l2 153q8 338 282 338q97 0 174 -41q-1 -1 -8 -30t-14 -57t-8 -27q-73 39 -146 39q-79 0 -116 -52t-37 -167v-156 h292l-6 -115h-286v-819h-127v819h-496v-819h-125v819zM1370 0v1380l125 27v-1407h-125z" />
<glyph unicode="&#xbf;" horiz-adv-x="714" d="M80 303q0 61 18 108t53 79t67 50t79 38q87 38 122.5 65t35.5 74q0 82 -121 174l65 22q68 -40 113 -95t45 -118q0 -44 -14.5 -78.5t-44 -60t-61 -43t-77.5 -35.5q-88 -35 -131 -72.5t-43 -105.5q0 -91 75.5 -155t203.5 -64q49 0 141 18v-116q-74 -19 -145 -19 q-169 0 -275 101t-106 233zM309 1198q0 43 28.5 75t74.5 32q43 0 72.5 -32.5t29.5 -74.5t-29 -72t-73 -30q-46 0 -74.5 29.5t-28.5 72.5z" />
<glyph unicode="&#xc0;" horiz-adv-x="1177" d="M31 0l485 1280h154l477 -1280h-133l-135 367h-580l-135 -367h-133zM225 1769h164l242 -366h-94zM344 485h490l-244 666z" />
<glyph unicode="&#xc1;" horiz-adv-x="1177" d="M31 0l485 1280h154l477 -1280h-133l-135 367h-580l-135 -367h-133zM344 485h490l-244 666zM532 1403l242 366h164l-311 -366h-95z" />
<glyph unicode="&#xc2;" horiz-adv-x="1177" d="M31 0l485 1280h154l477 -1280h-133l-135 367h-580l-135 -367h-133zM289 1403l231 373h144l231 -373h-96l-205 276h-2l-207 -276h-96zM344 485h490l-244 666z" />
<glyph unicode="&#xc3;" horiz-adv-x="1177" d="M31 0l485 1280h154l477 -1280h-133l-135 367h-580l-135 -367h-133zM258 1423q17 122 60.5 179t121.5 57q51 0 112.5 -37t114.5 -74t83 -37q31 0 51.5 29.5t38.5 106.5h84q-17 -122 -61 -179t-122 -57q-41 0 -88 22.5t-82 50t-73 50t-64 22.5q-32 0 -52 -28.5t-40 -104.5 h-84zM344 485h490l-244 666z" />
<glyph unicode="&#xc4;" horiz-adv-x="1177" d="M31 0l485 1280h154l477 -1280h-133l-135 367h-580l-135 -367h-133zM293 1556q0 42 27 71.5t69 29.5q43 0 70.5 -29.5t27.5 -71.5t-27.5 -72t-70.5 -30q-42 0 -69 30t-27 72zM344 485h490l-244 666zM686 1556q0 42 28.5 71.5t71.5 29.5q42 0 69.5 -29.5t27.5 -71.5 t-27.5 -72t-69.5 -30q-43 0 -71.5 30t-28.5 72z" />
<glyph unicode="&#xc5;" horiz-adv-x="1177" d="M31 0l458 1214q-66 25 -102.5 76t-36.5 117q0 89 66.5 151t175.5 62t174.5 -61.5t67.5 -151.5q0 -66 -37 -117t-103 -76l453 -1214h-133l-135 367h-578l-137 -367h-133zM344 485h492l-244 666zM440 1409q0 -58 42.5 -98.5t109.5 -40.5q70 0 111.5 39t41.5 96 q0 59 -41.5 100t-111.5 41q-67 0 -109.5 -40t-42.5 -97z" />
<glyph unicode="&#xc6;" horiz-adv-x="1675" d="M2 0l733 1280h846v-121h-643v-457h537v-120h-537v-461h643v-121h-774v356h-463l-203 -356h-139zM414 477h393v688z" />
<glyph unicode="&#xc7;" horiz-adv-x="1200" d="M96 637q0 302 173.5 486t445.5 184q111 0 214 -29.5t181 -75.5l-41 -117q-162 103 -356 103q-213 0 -348.5 -146t-135.5 -401q0 -252 133.5 -400.5t354.5 -148.5q100 0 194.5 31.5t163.5 83.5l25 -129q-151 -94 -344 -103l-117 -114q113 5 181.5 -39.5t68.5 -128.5 q0 -89 -82.5 -148t-245.5 -77l-10 86q116 6 175.5 40t59.5 89q0 66 -70 88t-198 -2l-12 61l147 145q-254 20 -405.5 198t-151.5 464z" />
<glyph unicode="&#xc8;" horiz-adv-x="1038" d="M164 0v1280h774v-121h-643v-459h536v-118h-536v-461h643v-121h-774zM213 1769h164l241 -366h-94z" />
<glyph unicode="&#xc9;" horiz-adv-x="1038" d="M164 0v1280h774v-121h-643v-459h536v-118h-536v-461h643v-121h-774zM449 1403l241 366h164l-311 -366h-94z" />
<glyph unicode="&#xca;" horiz-adv-x="1038" d="M164 0v1280h774v-121h-643v-459h536v-118h-536v-461h643v-121h-774zM250 1403l231 373h144l231 -373h-96l-205 276h-2l-207 -276h-96z" />
<glyph unicode="&#xcb;" horiz-adv-x="1038" d="M164 0v1280h774v-121h-643v-459h536v-118h-536v-461h643v-121h-774zM248 1556q0 42 27 71.5t69 29.5q43 0 70.5 -29.5t27.5 -71.5t-27.5 -72t-70.5 -30q-42 0 -69 30t-27 72zM641 1556q0 42 28.5 71.5t71.5 29.5q42 0 69.5 -29.5t27.5 -71.5t-27.5 -72t-69.5 -30 q-43 0 -71.5 30t-28.5 72z" />
<glyph unicode="&#xcc;" horiz-adv-x="466" d="M-113 1769h164l242 -366h-94zM168 0v1280h129v-1280h-129z" />
<glyph unicode="&#xcd;" horiz-adv-x="466" d="M168 0v1280h129v-1280h-129zM180 1403l242 366h164l-312 -366h-94z" />
<glyph unicode="&#xce;" horiz-adv-x="466" d="M-68 1403l232 373h143l232 -373h-97l-204 276h-2l-207 -276h-97zM168 0v1280h129v-1280h-129z" />
<glyph unicode="&#xcf;" horiz-adv-x="466" d="M-59 1556q0 42 27 71.5t69 29.5q43 0 70.5 -29.5t27.5 -71.5t-27.5 -72t-70.5 -30q-42 0 -69 30t-27 72zM168 0v1280h129v-1280h-129zM334 1556q0 42 28.5 71.5t71.5 29.5q42 0 69 -29.5t27 -71.5t-27 -72t-69 -30q-43 0 -71.5 30t-28.5 72z" />
<glyph unicode="&#xd0;" horiz-adv-x="1323" d="M33 588v114h172v578h348q313 0 495.5 -172.5t182.5 -458.5q0 -303 -181.5 -476t-506.5 -173h-338v588h-172zM336 121h213q254 0 402.5 131.5t148.5 386.5q0 246 -145.5 383t-409.5 137h-209v-457h358v-114h-358v-467z" />
<glyph unicode="&#xd1;" horiz-adv-x="1331" d="M164 0v1280h147l727 -1098v1098h127v-1292h-141l-733 1108v-1096h-127zM334 1423q17 122 60.5 179t121.5 57q40 0 88 -23t83.5 -51t74.5 -51t63 -23q31 0 51.5 29.5t38.5 106.5h84q-17 -122 -60.5 -179t-121.5 -57q-41 0 -88 22.5t-82 50t-73 50t-64 22.5 q-32 0 -52 -28.5t-40 -104.5h-84z" />
<glyph unicode="&#xd2;" d="M96 637q0 194 81 347t225 238t325 85q132 0 248 -48.5t200 -134.5t132.5 -210t48.5 -269q0 -193 -80.5 -346.5t-225 -239.5t-325.5 -86q-132 0 -247.5 48.5t-200 134.5t-133 211t-48.5 270zM229 645q0 -246 142 -400.5t360 -154.5q215 0 353.5 153t138.5 394 q0 246 -140 399.5t-360 153.5q-216 0 -355 -152t-139 -393zM387 1769h164l242 -366h-95z" />
<glyph unicode="&#xd3;" d="M96 637q0 194 81 347t225 238t325 85q132 0 248 -48.5t200 -134.5t132.5 -210t48.5 -269q0 -193 -80.5 -346.5t-225 -239.5t-325.5 -86q-132 0 -247.5 48.5t-200 134.5t-133 211t-48.5 270zM229 645q0 -246 142 -400.5t360 -154.5q215 0 353.5 153t138.5 394 q0 246 -140 399.5t-360 153.5q-216 0 -355 -152t-139 -393zM666 1403l241 366h164l-311 -366h-94z" />
<glyph unicode="&#xd4;" d="M96 637q0 194 81 347t225 238t325 85q132 0 248 -48.5t200 -134.5t132.5 -210t48.5 -269q0 -193 -80.5 -346.5t-225 -239.5t-325.5 -86q-132 0 -247.5 48.5t-200 134.5t-133 211t-48.5 270zM229 645q0 -246 142 -400.5t360 -154.5q215 0 353.5 153t138.5 394 q0 246 -140 399.5t-360 153.5q-216 0 -355 -152t-139 -393zM426 1403l231 373h144l231 -373h-96l-205 276h-2l-207 -276h-96z" />
<glyph unicode="&#xd5;" d="M96 637q0 194 81 347t225 238t325 85q132 0 248 -48.5t200 -134.5t132.5 -210t48.5 -269q0 -193 -80.5 -346.5t-225 -239.5t-325.5 -86q-132 0 -247.5 48.5t-200 134.5t-133 211t-48.5 270zM229 645q0 -246 142 -400.5t360 -154.5q215 0 353.5 153t138.5 394 q0 246 -140 399.5t-360 153.5q-216 0 -355 -152t-139 -393zM395 1423q17 122 61 179t122 57q40 0 88 -23t83.5 -51t74.5 -51t63 -23q31 0 51.5 29.5t38.5 106.5h84q-17 -122 -60.5 -179t-121.5 -57q-41 0 -88 22.5t-82 50t-73.5 50t-64.5 22.5q-32 0 -52 -28.5t-40 -104.5 h-84z" />
<glyph unicode="&#xd6;" d="M96 637q0 194 81 347t225 238t325 85q132 0 248 -48.5t200 -134.5t132.5 -210t48.5 -269q0 -193 -80.5 -346.5t-225 -239.5t-325.5 -86q-132 0 -247.5 48.5t-200 134.5t-133 211t-48.5 270zM229 645q0 -246 142 -400.5t360 -154.5q215 0 353.5 153t138.5 394 q0 246 -140 399.5t-360 153.5q-216 0 -355 -152t-139 -393zM434 1556q0 42 27 71.5t69 29.5q43 0 71 -29.5t28 -71.5t-28 -72t-71 -30q-42 0 -69 30t-27 72zM827 1556q0 42 28.5 71.5t72.5 29.5q42 0 69 -29.5t27 -71.5t-27 -72t-69 -30q-43 0 -72 30t-29 72z" />
<glyph unicode="&#xd7;" horiz-adv-x="995" d="M80 133l346 346l-346 344l76 76l346 -346l346 348l76 -76l-349 -346l347 -346l-76 -76l-344 346l-346 -346z" />
<glyph unicode="&#xd8;" d="M100 637q0 194 81 347t225 238t325 85q148 0 291 -70l104 180h107l-131 -225q120 -88 188 -229.5t68 -317.5q0 -192 -80.5 -345.5t-224.5 -240t-324 -86.5q-150 0 -293 70l-102 -180h-107q54 88 66 112q13 23 30.5 53.5t26 45.5t8.5 14q-121 90 -189.5 231.5t-68.5 317.5 zM231 645q0 -143 50.5 -256.5t140.5 -189.5l541 934q-105 57 -238 57q-216 0 -355 -152t-139 -393zM496 147q108 -57 237 -57q216 0 354 153t138 394q0 140 -49.5 255.5t-137.5 188.5z" />
<glyph unicode="&#xd9;" horiz-adv-x="1261" d="M150 469v811h126v-795q0 -187 91 -289t268 -102q172 0 261 100.5t89 292.5v793h129v-791q0 -242 -125 -379t-360 -137q-227 0 -353 133t-126 363zM305 1769h164l242 -366h-95z" />
<glyph unicode="&#xda;" horiz-adv-x="1261" d="M150 469v811h126v-795q0 -187 91 -289t268 -102q172 0 261 100.5t89 292.5v793h129v-791q0 -242 -125 -379t-360 -137q-227 0 -353 133t-126 363zM545 1403l241 366h164l-311 -366h-94z" />
<glyph unicode="&#xdb;" horiz-adv-x="1261" d="M150 469v811h126v-795q0 -187 91 -289t268 -102q172 0 261 100.5t89 292.5v793h129v-791q0 -242 -125 -379t-360 -137q-227 0 -353 133t-126 363zM330 1403l231 373h144l231 -373h-96l-205 276h-2l-207 -276h-96z" />
<glyph unicode="&#xdc;" horiz-adv-x="1261" d="M150 469v811h126v-795q0 -187 91 -289t268 -102q172 0 261 100.5t89 292.5v793h129v-791q0 -242 -125 -379t-360 -137q-227 0 -353 133t-126 363zM338 1556q0 42 27 71.5t69 29.5q43 0 70.5 -29.5t27.5 -71.5t-27.5 -72t-70.5 -30q-42 0 -69 30t-27 72zM731 1556 q0 42 28.5 71.5t71.5 29.5q42 0 69.5 -29.5t27.5 -71.5t-27.5 -72t-69.5 -30q-43 0 -71.5 30t-28.5 72z" />
<glyph unicode="&#xdd;" horiz-adv-x="1073" d="M25 1280h147l369 -637l362 637h146l-447 -766v-514h-131v514zM467 1403l242 366h163l-311 -366h-94z" />
<glyph unicode="&#xde;" horiz-adv-x="1056" d="M164 0v1280h131v-219h190q246 0 373 -108.5t127 -293.5q0 -207 -136 -315t-380 -113l-174 -2v-229h-131zM295 352l182 2q186 5 279.5 78t93.5 223q0 137 -95 211t-274 74h-186v-588z" />
<glyph unicode="&#xdf;" horiz-adv-x="1224" d="M23 827l8 80l141 33l2 147q4 180 78 259t205 79q95 0 172 -41q-1 -1 -8.5 -30t-14.5 -57t-8 -27q-73 39 -143 39q-79 0 -117.5 -52.5t-38.5 -166.5v-1090h-125v817zM502 57l35 117q125 -86 274 -86q89 0 151 42.5t62 115.5q0 19 -3.5 35t-13.5 30l-17.5 24.5t-26.5 21.5 t-28 17t-35 15.5t-34.5 12.5t-39.5 13.5t-38 12.5q-44 12 -78.5 26t-72.5 36.5t-63 49.5t-41.5 67t-16.5 87q0 124 90 197.5t225 73.5q148 0 285 -70l-35 -115q-130 70 -258 70q-87 0 -137.5 -38t-50.5 -105q0 -25 8 -46t26.5 -38t35.5 -29t49 -25t53 -20t59 -19 q59 -17 101 -35.5t86 -50t67 -79t23 -109.5q0 -126 -95.5 -204.5t-240.5 -78.5q-173 0 -305 84z" />
<glyph unicode="&#xe0;" horiz-adv-x="899" d="M68 233q0 304 569 334v56q0 112 -53 167.5t-168 55.5q-72 0 -156.5 -32.5t-150.5 -80.5l-29 119q65 47 162.5 80t185.5 33q168 0 252.5 -80.5t83.5 -255.5v-451q0 -55 18 -75t76 -19l-8 -104q-183 -12 -205 133h-6q-50 -63 -121.5 -101.5t-152.5 -38.5q-129 0 -213 73.5 t-84 186.5zM109 1427h163l242 -366h-94zM201 248q0 -74 53.5 -119t138.5 -45q71 0 134 34.5t110 88.5v274q-238 -29 -337 -83.5t-99 -149.5z" />
<glyph unicode="&#xe1;" horiz-adv-x="899" d="M68 233q0 304 569 334v56q0 112 -53 167.5t-168 55.5q-72 0 -156.5 -32.5t-150.5 -80.5l-29 119q65 47 162.5 80t185.5 33q168 0 252.5 -80.5t83.5 -255.5v-451q0 -55 18 -75t76 -19l-8 -104q-183 -12 -205 133h-6q-50 -63 -121.5 -101.5t-152.5 -38.5q-129 0 -213 73.5 t-84 186.5zM201 248q0 -74 53.5 -119t138.5 -45q71 0 134 34.5t110 88.5v274q-238 -29 -337 -83.5t-99 -149.5zM332 1061l241 366h164l-311 -366h-94z" />
<glyph unicode="&#xe2;" horiz-adv-x="899" d="M68 233q0 304 569 334v56q0 112 -53 167.5t-168 55.5q-72 0 -156.5 -32.5t-150.5 -80.5l-29 119q65 47 162.5 80t185.5 33q168 0 252.5 -80.5t83.5 -255.5v-451q0 -55 18 -75t76 -19l-8 -104q-183 -12 -205 133h-6q-50 -63 -121.5 -101.5t-152.5 -38.5q-129 0 -213 73.5 t-84 186.5zM127 1061l231 373h144l231 -373h-96l-205 276h-2l-207 -276h-96zM201 248q0 -74 53.5 -119t138.5 -45q71 0 134 34.5t110 88.5v274q-238 -29 -337 -83.5t-99 -149.5z" />
<glyph unicode="&#xe3;" horiz-adv-x="899" d="M68 233q0 304 569 334v56q0 112 -53 167.5t-168 55.5q-72 0 -156.5 -32.5t-150.5 -80.5l-29 119q65 47 162.5 80t185.5 33q168 0 252.5 -80.5t83.5 -255.5v-451q0 -55 18 -75t76 -19l-8 -104q-183 -12 -205 133h-6q-50 -63 -121.5 -101.5t-152.5 -38.5q-129 0 -213 73.5 t-84 186.5zM96 1081q17 122 61 179t122 57q40 0 88 -23t83.5 -51t74.5 -51t63 -23q31 0 51.5 29.5t38.5 106.5h84q-17 -122 -60.5 -179t-121.5 -57q-41 0 -88 22.5t-82 50t-73.5 50t-64.5 22.5q-32 0 -52 -28.5t-40 -104.5h-84zM201 248q0 -74 53.5 -119t138.5 -45 q71 0 134 34.5t110 88.5v274q-238 -29 -337 -83.5t-99 -149.5z" />
<glyph unicode="&#xe4;" horiz-adv-x="899" d="M68 233q0 304 569 334v56q0 112 -53 167.5t-168 55.5q-72 0 -156.5 -32.5t-150.5 -80.5l-29 119q65 47 162.5 80t185.5 33q168 0 252.5 -80.5t83.5 -255.5v-451q0 -55 18 -75t76 -19l-8 -104q-183 -12 -205 133h-6q-50 -63 -121.5 -101.5t-152.5 -38.5q-129 0 -213 73.5 t-84 186.5zM135 1214q0 42 27 71.5t69 29.5q43 0 71 -29.5t28 -71.5t-28 -72t-71 -30q-42 0 -69 30t-27 72zM201 248q0 -74 53.5 -119t138.5 -45q71 0 134 34.5t110 88.5v274q-238 -29 -337 -83.5t-99 -149.5zM528 1214q0 42 28.5 71.5t72.5 29.5q42 0 69 -29.5t27 -71.5 t-27 -72t-69 -30q-43 0 -72 30t-29 72z" />
<glyph unicode="&#xe5;" horiz-adv-x="899" d="M68 233q0 304 569 334v56q0 112 -53 167.5t-168 55.5q-72 0 -156.5 -32.5t-150.5 -80.5l-29 119q65 47 162.5 80t185.5 33q168 0 252.5 -80.5t83.5 -255.5v-451q0 -55 18 -75t76 -19l-8 -104q-183 -12 -205 133h-6q-50 -63 -121.5 -101.5t-152.5 -38.5q-129 0 -213 73.5 t-84 186.5zM188 1266q0 89 66.5 151t175.5 62q111 0 176.5 -61.5t67.5 -151.5q0 -91 -66 -151t-178 -60q-110 0 -176 60.5t-66 150.5zM201 248q0 -74 53.5 -119t138.5 -45q71 0 134 34.5t110 88.5v274q-238 -29 -337 -83.5t-99 -149.5zM281 1268q0 -59 41.5 -99.5 t107.5 -40.5q70 0 112 39.5t42 96.5q0 59 -42 100t-112 41q-66 0 -107.5 -40t-41.5 -97z" />
<glyph unicode="&#xe6;" horiz-adv-x="1509" d="M68 227q0 308 569 330l2 51q4 122 -51.5 179t-175.5 57q-73 0 -152.5 -31.5t-146.5 -79.5l-35 113q69 50 161 84.5t183 34.5q252 0 307 -181q57 84 146.5 132.5t197.5 48.5q156 0 249 -94t93 -253q0 -90 -20 -149l-635 -4v-10q5 -162 93 -262.5t234 -100.5q154 0 273 78 l24 -117q-131 -80 -301 -80q-122 0 -219 53.5t-155 147.5q-59 -87 -158.5 -144t-202.5 -57q-126 0 -203 73t-77 181zM199 242q0 -72 49.5 -113t132.5 -41q71 0 152 42.5t139 115.5q-15 38 -26 105.5t-11 117.5q-234 -17 -335 -74t-101 -153zM768 565l520 2q4 28 4 41 q0 111 -59.5 176.5t-167.5 65.5q-122 0 -200.5 -81t-96.5 -204z" />
<glyph unicode="&#xe7;" horiz-adv-x="923" d="M86 467q0 219 130.5 358.5t330.5 139.5q168 0 293 -80l-33 -115q-116 76 -260 76q-152 0 -241 -103.5t-89 -271.5q0 -171 91 -275t241 -104q141 0 260 78l27 -117q-110 -66 -242 -78l-117 -114q113 5 181.5 -39.5t68.5 -128.5q0 -89 -82.5 -148t-245.5 -77l-10 86 q116 6 176 40t60 89q0 66 -70.5 88t-198.5 -2l-12 61l148 145q-186 17 -296 152.5t-110 339.5z" />
<glyph unicode="&#xe8;" horiz-adv-x="962" d="M86 461q0 220 125.5 362t316.5 142q156 0 249 -94t93 -253q0 -90 -20 -149l-635 -4v-10q5 -162 93.5 -262.5t234.5 -100.5q153 0 272 78l25 -117q-131 -80 -301 -80q-202 0 -327.5 136t-125.5 352zM176 1427h164l242 -366h-95zM223 565l520 2q2 10 2 41 q0 111 -58.5 176.5t-166.5 65.5q-122 0 -200.5 -81t-96.5 -204z" />
<glyph unicode="&#xe9;" horiz-adv-x="962" d="M86 461q0 220 125.5 362t316.5 142q156 0 249 -94t93 -253q0 -90 -20 -149l-635 -4v-10q5 -162 93.5 -262.5t234.5 -100.5q153 0 272 78l25 -117q-131 -80 -301 -80q-202 0 -327.5 136t-125.5 352zM223 565l520 2q2 10 2 41q0 111 -58.5 176.5t-166.5 65.5 q-122 0 -200.5 -81t-96.5 -204zM432 1061l242 366h164l-312 -366h-94z" />
<glyph unicode="&#xea;" horiz-adv-x="962" d="M86 461q0 220 125.5 362t316.5 142q156 0 249 -94t93 -253q0 -90 -20 -149l-635 -4v-10q5 -162 93.5 -262.5t234.5 -100.5q153 0 272 78l25 -117q-131 -80 -301 -80q-202 0 -327.5 136t-125.5 352zM174 1061l232 373h143l231 -373h-96l-205 276h-2l-207 -276h-96z M223 565l520 2q2 10 2 41q0 111 -58.5 176.5t-166.5 65.5q-122 0 -200.5 -81t-96.5 -204z" />
<glyph unicode="&#xeb;" horiz-adv-x="962" d="M86 461q0 220 125.5 362t316.5 142q156 0 249 -94t93 -253q0 -90 -20 -149l-635 -4v-10q5 -162 93.5 -262.5t234.5 -100.5q153 0 272 78l25 -117q-131 -80 -301 -80q-202 0 -327.5 136t-125.5 352zM193 1214q0 42 27 71.5t69 29.5q43 0 70.5 -29.5t27.5 -71.5t-27.5 -72 t-70.5 -30q-42 0 -69 30t-27 72zM223 565l520 2q2 10 2 41q0 111 -58.5 176.5t-166.5 65.5q-122 0 -200.5 -81t-96.5 -204zM586 1214q0 42 28.5 71.5t71.5 29.5q42 0 69 -29.5t27 -71.5t-27 -72t-69 -30q-43 0 -71.5 30t-28.5 72z" />
<glyph unicode="&#xec;" horiz-adv-x="428" d="M-133 1427h164l241 -366h-94zM154 0v928l127 26v-954h-127z" />
<glyph unicode="&#xed;" horiz-adv-x="428" d="M154 0v928l127 26v-954h-127zM158 1061l241 366h164l-311 -366h-94z" />
<glyph unicode="&#xee;" horiz-adv-x="428" d="M-84 1061l231 373h144l231 -373h-96l-205 276h-2l-207 -276h-96zM154 0v928l127 26v-954h-127z" />
<glyph unicode="&#xef;" horiz-adv-x="428" d="M-76 1214q0 42 27 71.5t69 29.5q43 0 71 -29.5t28 -71.5t-28 -72t-71 -30q-42 0 -69 30t-27 72zM154 0v928l127 26v-954h-127zM317 1214q0 42 28.5 71.5t72.5 29.5q42 0 69 -29.5t27 -71.5t-27 -72t-69 -30q-43 0 -72 30t-29 72z" />
<glyph unicode="&#xf0;" horiz-adv-x="1075" d="M86 424q0 108 36 197.5t95.5 147t134.5 89t156 31.5q163 0 291 -111h2q-36 84 -111 186t-164 191l-239 -65l-25 94l187 51q-81 78 -181 156q39 9 70 18q32 7 49 12q16 4 23 4q88 -67 174 -153l215 57l24 -94l-82 -21q-18 -4 -38.5 -10t-31.5 -9t-12 -3 q151 -170 239.5 -347.5t88.5 -342.5q0 -113 -28.5 -209t-84 -167.5t-142.5 -112t-197 -40.5q-198 0 -323.5 127.5t-125.5 323.5zM221 438q0 -158 88.5 -254t229.5 -96q153 0 238 104t85 289q0 105 -37 193q-44 44 -124 72t-169 28q-140 0 -225.5 -91.5t-85.5 -244.5z" />
<glyph unicode="&#xf1;" horiz-adv-x="1034" d="M147 0v938l127 27v-154q72 72 158.5 113t161.5 41q141 0 220 -84.5t79 -237.5v-643h-127v606q0 123 -50.5 180.5t-156.5 57.5q-152 0 -285 -133v-711h-127zM186 1081q17 122 61 179t122 57q40 0 88 -23t83.5 -51t74.5 -51t63 -23q31 0 51.5 29.5t38.5 106.5h84 q-17 -122 -60.5 -179t-121.5 -57q-41 0 -88 22.5t-82 50t-73.5 50t-64.5 22.5q-32 0 -52 -28.5t-40 -104.5h-84z" />
<glyph unicode="&#xf2;" horiz-adv-x="1087" d="M86 467q0 221 132 359.5t331 138.5t324.5 -135.5t125.5 -358.5q0 -221 -131 -359.5t-329 -138.5q-199 0 -326 135.5t-127 358.5zM213 471q0 -172 91.5 -277.5t240.5 -105.5q148 0 238.5 106t90.5 273q0 172 -91 277.5t-240 105.5q-148 0 -239 -106t-91 -273zM231 1427 h164l242 -366h-94z" />
<glyph unicode="&#xf3;" horiz-adv-x="1087" d="M86 467q0 221 132 359.5t331 138.5t324.5 -135.5t125.5 -358.5q0 -221 -131 -359.5t-329 -138.5q-199 0 -326 135.5t-127 358.5zM213 471q0 -172 91.5 -277.5t240.5 -105.5q148 0 238.5 106t90.5 273q0 172 -91 277.5t-240 105.5q-148 0 -239 -106t-91 -273zM459 1061 l241 366h164l-311 -366h-94z" />
<glyph unicode="&#xf4;" horiz-adv-x="1087" d="M86 467q0 221 132 359.5t331 138.5t324.5 -135.5t125.5 -358.5q0 -221 -131 -359.5t-329 -138.5q-199 0 -326 135.5t-127 358.5zM213 471q0 -172 91.5 -277.5t240.5 -105.5q148 0 238.5 106t90.5 273q0 172 -91 277.5t-240 105.5q-148 0 -239 -106t-91 -273zM244 1061 l231 373h143l232 -373h-96l-205 276h-2l-207 -276h-96z" />
<glyph unicode="&#xf5;" horiz-adv-x="1087" d="M86 467q0 221 132 359.5t331 138.5t324.5 -135.5t125.5 -358.5q0 -221 -131 -359.5t-329 -138.5q-199 0 -326 135.5t-127 358.5zM213 471q0 -172 91.5 -277.5t240.5 -105.5q148 0 238.5 106t90.5 273q0 172 -91 277.5t-240 105.5q-148 0 -239 -106t-91 -273zM213 1081 q17 122 60.5 179t121.5 57q51 0 112.5 -37t114.5 -74t83 -37q31 0 51.5 29.5t38.5 106.5h84q-17 -122 -61 -179t-122 -57q-41 0 -88 22.5t-82 50t-73 50t-64 22.5q-32 0 -52 -28.5t-40 -104.5h-84z" />
<glyph unicode="&#xf6;" horiz-adv-x="1087" d="M86 467q0 221 132 359.5t331 138.5t324.5 -135.5t125.5 -358.5q0 -221 -131 -359.5t-329 -138.5q-199 0 -326 135.5t-127 358.5zM213 471q0 -172 91.5 -277.5t240.5 -105.5q148 0 238.5 106t90.5 273q0 172 -91 277.5t-240 105.5q-148 0 -239 -106t-91 -273zM252 1214 q0 42 27 71.5t69 29.5q43 0 70.5 -29.5t27.5 -71.5t-27.5 -72t-70.5 -30q-42 0 -69 30t-27 72zM645 1214q0 42 28.5 71.5t71.5 29.5q42 0 69.5 -29.5t27.5 -71.5t-27.5 -72t-69.5 -30q-43 0 -71.5 30t-28.5 72z" />
<glyph unicode="&#xf7;" horiz-adv-x="995" d="M84 426l6 111h817l6 -111h-829zM395 193q0 42 30.5 73t76.5 31t75 -30.5t29 -73.5t-29 -75t-75 -32t-76.5 32t-30.5 75zM395 766q0 43 29.5 74.5t75.5 31.5t76 -31.5t30 -74.5t-30 -75t-76 -32t-75.5 32t-29.5 75z" />
<glyph unicode="&#xf8;" horiz-adv-x="1087" d="M90 467q0 222 131.5 360t331.5 138q111 0 201 -43q2 3 20.5 36t32.5 54q24 39 37 65h108l-118 -207q80 -68 125 -170t45 -229q0 -221 -131.5 -359.5t-329.5 -138.5q-110 0 -201 45l-90 -155h-109q59 100 60 102q14 24 28.5 49.5t22 40.5t6.5 15q-80 65 -125 167t-45 230z M215 471q0 -191 109 -297l370 643q-62 33 -149 33q-148 0 -239 -106t-91 -273zM399 121q67 -33 150 -33q148 0 239 106t91 273q0 188 -109 297z" />
<glyph unicode="&#xf9;" horiz-adv-x="1032" d="M139 295v643h127v-606q0 -123 49.5 -180.5t153.5 -57.5q80 0 155 35.5t134 97.5v711h127v-938l-127 -27v152q-71 -72 -157.5 -112t-166.5 -40q-138 0 -216.5 84.5t-78.5 237.5zM190 1427h164l242 -366h-94z" />
<glyph unicode="&#xfa;" horiz-adv-x="1032" d="M139 295v643h127v-606q0 -123 49.5 -180.5t153.5 -57.5q80 0 155 35.5t134 97.5v711h127v-938l-127 -27v152q-71 -72 -157.5 -112t-166.5 -40q-138 0 -216.5 84.5t-78.5 237.5zM432 1061l242 366h164l-312 -366h-94z" />
<glyph unicode="&#xfb;" horiz-adv-x="1032" d="M139 295v643h127v-606q0 -123 49.5 -180.5t153.5 -57.5q80 0 155 35.5t134 97.5v711h127v-938l-127 -27v152q-71 -72 -157.5 -112t-166.5 -40q-138 0 -216.5 84.5t-78.5 237.5zM215 1061l231 373h144l231 -373h-96l-205 276h-2l-207 -276h-96z" />
<glyph unicode="&#xfc;" horiz-adv-x="1032" d="M139 295v643h127v-606q0 -123 49.5 -180.5t153.5 -57.5q80 0 155 35.5t134 97.5v711h127v-938l-127 -27v152q-71 -72 -157.5 -112t-166.5 -40q-138 0 -216.5 84.5t-78.5 237.5zM215 1214q0 42 27 71.5t69 29.5q43 0 71 -29.5t28 -71.5t-28 -72t-71 -30q-42 0 -69 30 t-27 72zM608 1214q0 42 28.5 71.5t72.5 29.5q42 0 69 -29.5t27 -71.5t-27 -72t-69 -30q-43 0 -72 30t-29 72z" />
<glyph unicode="&#xfd;" horiz-adv-x="868" d="M-66 -444l39 116q77 -41 144 -41q58 0 101.5 45t90.5 172l64 166l-367 924h137l295 -774l289 774h133l-364 -928l-76 -203q-64 -167 -133 -230.5t-170 -63.5q-85 0 -183 43zM352 1061l242 366h164l-312 -366h-94z" />
<glyph unicode="&#xfe;" horiz-adv-x="1048" d="M147 -492v1872l127 27v-557q124 108 269 108q192 0 308 -134.5t116 -350.5q0 -219 -129.5 -359.5t-333.5 -140.5q-128 0 -230 50v-515h-127zM274 162q90 -74 236 -74q150 0 238 107t88 276q0 165 -84.5 268t-225.5 103q-139 0 -252 -105v-575z" />
<glyph unicode="&#xff;" horiz-adv-x="868" d="M-66 -444l39 116q77 -41 144 -41q58 0 101.5 45t90.5 172l64 166l-367 924h137l295 -774l289 774h133l-364 -928l-76 -203q-64 -167 -133 -230.5t-170 -63.5q-85 0 -183 43zM141 1214q0 42 27.5 71.5t69.5 29.5q43 0 70.5 -29.5t27.5 -71.5t-27.5 -72t-70.5 -30 q-42 0 -69.5 30t-27.5 72zM535 1214q0 42 28.5 71.5t71.5 29.5q42 0 69 -29.5t27 -71.5t-27 -72t-69 -30q-43 0 -71.5 30t-28.5 72z" />
<glyph unicode="&#x152;" horiz-adv-x="1863" d="M100 631q0 303 181.5 476t506.5 173h979v-121h-641v-457h535v-120h-535v-461h641v-121h-989q-312 0 -495 173.5t-183 457.5zM231 641q0 -246 146 -383t409 -137h209v1038h-213q-254 0 -402.5 -131.5t-148.5 -386.5z" />
<glyph unicode="&#x153;" horiz-adv-x="1755" d="M86 467q0 221 132 359.5t331 138.5q135 0 236 -63.5t155 -180.5q57 115 155.5 179.5t225.5 64.5q156 0 249 -94t93 -253q0 -88 -21 -149h-100q-137 0 -217 -2q-92 -2 -317 -2v-10q5 -162 93 -262.5t234 -100.5q152 0 271 78l26 -117q-134 -80 -303 -80q-134 0 -236 64.5 t-157 179.5q-57 -116 -160.5 -180t-236.5 -64q-199 0 -326 135.5t-127 358.5zM213 471q0 -172 91.5 -277.5t240.5 -105.5q148 0 238.5 106t90.5 273q0 172 -91 277.5t-240 105.5q-148 0 -239 -106t-91 -273zM1016 565l520 2q2 10 2 41q0 112 -58.5 177t-168.5 65 q-120 0 -198.5 -81t-96.5 -204z" />
<glyph unicode="&#x178;" horiz-adv-x="1073" d="M25 1280h147l369 -637l362 637h146l-447 -766v-514h-131v514zM244 1556q0 42 27 71.5t69 29.5q43 0 70.5 -29.5t27.5 -71.5t-27.5 -72t-70.5 -30q-42 0 -69 30t-27 72zM637 1556q0 42 28.5 71.5t71.5 29.5q42 0 69.5 -29.5t27.5 -71.5t-27.5 -72t-69.5 -30 q-43 0 -71.5 30t-28.5 72z" />
<glyph unicode="&#x2c6;" horiz-adv-x="813" d="M106 1061l232 373h143l232 -373h-97l-204 276h-2l-207 -276h-97z" />
<glyph unicode="&#x2dc;" horiz-adv-x="813" d="M76 1081q17 122 60.5 179t121.5 57q40 0 88 -23t83.5 -51t74.5 -51t63 -23q31 0 51.5 29.5t38.5 106.5h84q-17 -122 -60.5 -179t-121.5 -57q-41 0 -88 22.5t-82 50t-73 50t-64 22.5q-32 0 -52 -28.5t-40 -104.5h-84z" />
<glyph unicode="&#x2000;" horiz-adv-x="888" />
<glyph unicode="&#x2001;" horiz-adv-x="1776" />
<glyph unicode="&#x2002;" horiz-adv-x="888" />
<glyph unicode="&#x2003;" horiz-adv-x="1776" />
<glyph unicode="&#x2004;" horiz-adv-x="592" />
<glyph unicode="&#x2005;" horiz-adv-x="444" />
<glyph unicode="&#x2006;" horiz-adv-x="296" />
<glyph unicode="&#x2007;" horiz-adv-x="296" />
<glyph unicode="&#x2008;" horiz-adv-x="222" />
<glyph unicode="&#x2009;" horiz-adv-x="355" />
<glyph unicode="&#x200a;" horiz-adv-x="98" />
<glyph unicode="&#x2010;" horiz-adv-x="598" d="M70 438v119h462v-119h-462z" />
<glyph unicode="&#x2011;" horiz-adv-x="598" d="M70 438v119h462v-119h-462z" />
<glyph unicode="&#x2012;" horiz-adv-x="598" d="M70 438v119h462v-119h-462z" />
<glyph unicode="&#x2013;" horiz-adv-x="911" d="M63 440l7 101h774l6 -101h-787z" />
<glyph unicode="&#x2014;" horiz-adv-x="1873" d="M63 440l7 101h1736l6 -101h-1749z" />
<glyph unicode="&#x2018;" horiz-adv-x="382" d="M51 991q0 97 70.5 188t183.5 164l55 -51q-180 -132 -180 -245q0 -40 28.5 -65t98.5 -52q-5 -42 -33.5 -71.5t-76.5 -29.5q-58 0 -102 46t-44 116z" />
<glyph unicode="&#x2019;" horiz-adv-x="382" d="M23 885q96 70 138 129t42 116q0 37 -29 62.5t-98 52.5q5 44 33.5 73.5t76.5 29.5q58 0 102 -46t44 -116q0 -97 -69.5 -187t-184.5 -165z" />
<glyph unicode="&#x201a;" horiz-adv-x="382" d="M23 -258q180 132 180 246q0 37 -28.5 62t-98.5 52q5 44 33.5 73.5t76.5 29.5q58 0 102 -46t44 -116q0 -97 -71 -190.5t-183 -161.5z" />
<glyph unicode="&#x201c;" horiz-adv-x="786" d="M51 991q0 97 70.5 188t183.5 164l55 -51q-180 -132 -180 -245q0 -40 28.5 -65t98.5 -52q-5 -42 -33.5 -71.5t-76.5 -29.5q-58 0 -102 46t-44 116zM455 991q0 97 70.5 188t183.5 164l55 -51q-180 -132 -180 -245q0 -40 28.5 -65t98.5 -52q-5 -42 -34 -71.5t-77 -29.5 q-58 0 -101.5 46t-43.5 116z" />
<glyph unicode="&#x201d;" horiz-adv-x="786" d="M23 885q96 70 138 129t42 116q0 37 -29 62.5t-98 52.5q5 44 33.5 73.5t76.5 29.5q58 0 102 -46t44 -116q0 -97 -69.5 -187t-184.5 -165zM426 885q96 70 138 129t42 116q0 37 -29 62.5t-98 52.5q5 44 34 73.5t77 29.5q58 0 101.5 -46t43.5 -116q0 -97 -69.5 -187 t-184.5 -165z" />
<glyph unicode="&#x201e;" horiz-adv-x="772" d="M23 -258q180 132 180 246q0 37 -28.5 62t-98.5 52q5 44 33.5 73.5t76.5 29.5q58 0 102 -46t44 -116q0 -97 -71 -190.5t-183 -161.5zM426 -258q180 132 180 246q0 37 -28.5 62t-98.5 52q5 44 34 73.5t77 29.5q58 0 101.5 -46t43.5 -116q0 -97 -71 -190.5t-183 -161.5z" />
<glyph unicode="&#x2022;" horiz-adv-x="925" d="M68 475q0 43 42.5 145.5t73.5 133.5t133.5 72.5t145.5 41.5t147 -41.5t131 -72.5q31 -27 73 -131.5t42 -147.5t-41.5 -145.5t-73.5 -134.5q-31 -31 -133.5 -73t-146.5 -42q-42 0 -145 43t-132 72q-30 35 -73 136t-43 144z" />
<glyph unicode="&#x2026;" horiz-adv-x="1159" d="M90 80q0 42 29.5 72t73.5 30t73 -30t29 -72t-29.5 -74.5t-72.5 -32.5t-73 32.5t-30 74.5zM477 80q0 42 29.5 72t75.5 30q43 0 71.5 -30t28.5 -72q0 -43 -28.5 -75t-71.5 -32q-46 0 -75.5 32t-29.5 75zM866 80q0 42 29.5 72t73.5 30t73 -30t29 -72t-29.5 -74.5 t-72.5 -32.5t-73 32.5t-30 74.5z" />
<glyph unicode="&#x202f;" horiz-adv-x="355" />
<glyph unicode="&#x2039;" horiz-adv-x="671" d="M63 412v135l502 358l17 -98l-408 -326v-4l408 -325l-17 -99z" />
<glyph unicode="&#x203a;" horiz-adv-x="671" d="M88 152l410 325v4l-410 326l16 98l504 -358v-135l-504 -359z" />
<glyph unicode="&#x205f;" horiz-adv-x="444" />
<glyph unicode="&#x20ac;" horiz-adv-x="1032" d="M68 430l6 92h141q-4 78 -4 113q0 45 4 127h-141l-6 92h161q41 226 160.5 341.5t304.5 115.5q179 0 295 -70l-28 -113q-116 70 -267 70q-278 0 -340 -344h482l-7 -92h-485q-4 -78 -4 -115q0 -47 4 -125h424l6 -92h-418q65 -348 332 -348q157 0 277 68l20 -113 q-127 -68 -301 -68q-189 0 -306.5 115t-152.5 346h-157z" />
<glyph unicode="&#x2122;" horiz-adv-x="1859" d="M68 1186v96h686v-96h-299v-670h-99v670h-288zM862 516l31 766h170l203 -645h14l225 645h162l29 -766h-101l-18 649h-14l-240 -639h-115l-215 639h-14l-23 -649h-94z" />
<glyph unicode="&#xe000;" horiz-adv-x="942" d="M0 0v942h942v-942h-942z" />
<glyph unicode="&#xfb01;" horiz-adv-x="1021" d="M23 829l8 78l141 33l2 147q8 338 283 338q95 0 172 -41q-1 -1 -8.5 -30t-14.5 -57t-8 -27q-73 39 -143 39q-79 0 -117.5 -52.5t-38.5 -166.5v-156h442l133 31v-965h-126v819h-449v-819h-125v819z" />
<glyph unicode="&#xfb02;" horiz-adv-x="1021" d="M23 829l8 78l141 33l2 147q8 338 283 338q95 0 172 -41q-1 -1 -8.5 -30t-14.5 -57t-8 -27q-73 39 -143 39q-79 0 -117.5 -52.5t-38.5 -166.5v-156h295l-6 -115h-289v-819h-125v819zM748 0v1380l126 27v-1407h-126z" />
<glyph unicode="&#xfb03;" horiz-adv-x="1642" d="M23 829l8 78l141 33l2 127q0 175 76.5 256.5t206.5 81.5q95 0 172 -41q-1 -1 -8.5 -30t-14.5 -57.5t-8 -27.5q-73 39 -143 39q-79 0 -117.5 -52.5t-38.5 -166.5v-135h494l2 153q8 338 282 338q97 0 174 -41q-1 -1 -8 -30t-14 -57t-8 -27q-73 39 -146 39q-79 0 -116 -52 t-37 -167v-156h442l131 31v-965h-125v819h-448v-819h-127v819h-496v-819h-125v819z" />
<glyph unicode="&#xfb04;" horiz-adv-x="1642" d="M23 829l8 78l141 33l2 127q8 338 283 338q95 0 172 -41q-1 -1 -8.5 -30t-14.5 -57.5t-8 -27.5q-73 39 -143 39q-79 0 -117.5 -52.5t-38.5 -166.5v-135h494l2 153q8 338 282 338q97 0 174 -41q-1 -1 -8 -30t-14 -57t-8 -27q-73 39 -146 39q-79 0 -116 -52t-37 -167v-156 h292l-6 -115h-286v-819h-127v819h-496v-819h-125v819zM1370 0v1380l125 27v-1407h-125z" />
</font>
</defs>
</svg>
