<?xml version="1.0" standalone="no"?>
<!DOCTYPE svg PUBLIC "-//W3C//DTD SVG 1.1//EN" "http://www.w3.org/Graphics/SVG/1.1/DTD/svg11.dtd" >
<svg xmlns="http://www.w3.org/2000/svg">
<metadata></metadata>
<defs>
<font id="freightitalic" horiz-adv-x="1439" >
<font-face units-per-em="2048" ascent="1638" descent="-410" />
<missing-glyph horiz-adv-x="284" />
<glyph horiz-adv-x="2048" />
<glyph horiz-adv-x="2048" />
<glyph unicode="&#xd;" horiz-adv-x="2048" />
<glyph unicode=" "  horiz-adv-x="284" />
<glyph unicode="&#x09;" horiz-adv-x="284" />
<glyph unicode="&#xa0;" horiz-adv-x="284" />
<glyph unicode="!" horiz-adv-x="530" d="M90 80q0 42 29.5 72t73.5 30q46 0 74 -29.5t28 -72.5t-28.5 -75t-73.5 -32q-43 0 -73 32.5t-30 74.5zM215 385l143 944l154 -16l-223 -934z" />
<glyph unicode="&#x22;" horiz-adv-x="620" d="M55 815l359 508l116 -59l-401 -449h-74zM358 815l361 508l117 -59l-402 -449h-76z" />
<glyph unicode="#" horiz-adv-x="1153" d="M-41 -152l231 492h-167v94h213l153 324h-244v94h287q1 -1 18 33.5t41.5 86.5t51.5 111q43 88 108 232h105q-89 -186 -111 -232q-22 -48 -39.5 -86t-34 -73t-26 -54t-10.5 -18h360l219 463h103l-220 -463h166l-2 -94h-209l-153 -324h241l-2 -94h-284l-232 -492h-102 l231 492h-358l-232 -492h-102zM338 434h358q1 0 78 162q29 59 76 162h-358z" />
<glyph unicode="$" horiz-adv-x="1007" d="M23 104l32 127q120 -81 252 -118q1 0 13.5 34.5t32.5 95t38 119.5l41 123t43 127q-64 29 -112 58.5t-91 69t-65.5 90.5t-22.5 112q0 114 60.5 198t156 124.5t209.5 40.5q58 0 105 -9l65 199h88l-71 -215q122 -31 209 -88l-33 -125q-103 67 -215 96l-158 -465 q69 -33 118 -63.5t93.5 -72.5t67 -95.5t22.5 -118.5q0 -169 -126.5 -272t-315.5 -103q-55 0 -107 9l-78 -234h-88l84 250q-150 39 -247 106zM313 956q0 -74 51.5 -124t159.5 -103l152 453q-41 6 -78 6q-123 0 -204 -62.5t-81 -169.5zM391 96q37 -6 74 -6q138 0 223.5 65.5 t85.5 178.5q0 82 -55 138.5t-166 107.5z" />
<glyph unicode="%" horiz-adv-x="1521" d="M90 -31l1294 1340h117l-1292 -1340h-119zM119 948q0 156 108.5 267.5t261.5 111.5q140 0 232 -82.5t92 -220.5q0 -157 -108.5 -268t-266.5 -111q-138 0 -228.5 83t-90.5 220zM211 954q0 -102 65 -162.5t166 -60.5q118 0 198.5 81t80.5 198q0 103 -65.5 165t-170.5 62 q-115 0 -194.5 -82.5t-79.5 -200.5zM784 254q0 156 108 266.5t263 110.5q140 0 231 -82.5t91 -220.5q0 -156 -109.5 -266.5t-265.5 -110.5q-139 0 -228.5 83t-89.5 220zM874 260q0 -102 66 -162.5t168 -60.5q117 0 196.5 81.5t79.5 200.5q0 102 -66 163t-167 61 q-116 0 -196.5 -82.5t-80.5 -200.5z" />
<glyph unicode="&#x26;" horiz-adv-x="1277" d="M29 307q0 80 33 147t90.5 114t122 79.5t141.5 54.5q-75 49 -117.5 116.5t-42.5 146.5q0 138 111.5 241t269.5 103q139 0 233.5 -81.5t94.5 -203.5q0 -67 -27.5 -124.5t-75 -98.5t-103.5 -70.5t-122 -48.5q148 -95 244 -264l282 354h156l-383 -432l207 -344l-139 -23 l-156 273q-238 -273 -461 -273q-152 0 -255 96t-103 238zM160 326q0 -103 71 -171.5t175 -68.5q56 0 112 20.5t107.5 58.5t90.5 75t85 88q-130 217 -314 323q-67 -21 -123 -50t-103 -68.5t-74 -92.5t-27 -114zM385 975q0 -69 45.5 -126t132.5 -116q58 21 101.5 43t85.5 55 t65 78t23 99q0 86 -60 140t-153 54q-100 0 -170 -67t-70 -160z" />
<glyph unicode="'" horiz-adv-x="333" d="M57 815l361 508l112 -59l-401 -449h-72z" />
<glyph unicode="(" horiz-adv-x="716" d="M139 463q0 143 36 278.5t93.5 240.5t131.5 194.5t148 149t146 95.5l56 -90q-84 -46 -168 -125.5t-159 -188.5t-122 -255t-47 -299q0 -154 47 -299.5t122 -254t158.5 -187.5t168.5 -125l-56 -91q-72 36 -146 95t-148.5 148.5t-131.5 194t-93 240.5t-36 279z" />
<glyph unicode=")" horiz-adv-x="716" d="M-33 -403q67 37 134 93.5t132.5 138t115.5 176t81 214t31 244.5t-31 245t-81 214.5t-115.5 177t-132.5 139t-134 92.5l58 90q72 -36 145.5 -95.5t147.5 -149t131.5 -194.5t93 -240.5t35.5 -278.5t-36 -279t-93 -240t-131.5 -193.5t-148 -148.5t-146.5 -96z" />
<glyph unicode="*" horiz-adv-x="694" d="M102 889l297 90l2 10l-235 197l96 92l176 -260h6l117 287l115 -64l-191 -246l4 -6l299 -14l-24 -131l-283 100l-8 -6l84 -301l-131 -12l2 309l-6 4l-258 -170z" />
<glyph unicode="+" horiz-adv-x="995" d="M84 426l6 111h354v364h113v-364h350l6 -111h-356v-369h-113v369h-360z" />
<glyph unicode="," horiz-adv-x="382" d="M-119 -256q92 50 161 119.5t69 132.5q0 58 -107 110q11 38 43 63.5t74 25.5q56 0 93.5 -42.5t37.5 -103.5q0 -57 -30 -113t-80.5 -102t-103.5 -81.5t-112 -65.5z" />
<glyph unicode="-" horiz-adv-x="598" d="M74 438v119h463v-119h-463z" />
<glyph unicode="." horiz-adv-x="382" d="M16 80q0 42 29.5 72t75.5 30q43 0 71.5 -30t28.5 -72q0 -43 -28.5 -75t-71.5 -32q-46 0 -75.5 32t-29.5 75z" />
<glyph unicode="/" horiz-adv-x="423" d="M-233 -408l854 1846h98l-854 -1846h-98z" />
<glyph unicode="0" horiz-adv-x="1183" d="M92 418q0 151 71 283t197.5 212t278.5 80q198 0 329.5 -124.5t131.5 -321.5q0 -114 -42.5 -219t-115 -183t-175 -125t-216.5 -47q-199 0 -329 123t-130 322zM221 428q0 -149 94.5 -242.5t243.5 -93.5q117 0 212.5 62.5t147.5 164.5t52 220q0 148 -95.5 241.5t-244.5 93.5 q-87 0 -164 -36.5t-130.5 -97.5t-84.5 -142.5t-31 -169.5z" />
<glyph unicode="1" horiz-adv-x="667" d="M154 799l16 112l393 84l-194 -995h-127l168 850z" />
<glyph unicode="2" horiz-adv-x="901" d="M2 0l25 139q36 21 100 59.5t100 60t93 56.5t90 57t78.5 54.5t71.5 56t56 53.5t45.5 55t26 52.5t10.5 54.5q0 84 -57.5 132.5t-151.5 48.5q-129 0 -286 -91l-25 111q164 94 326 94q143 0 236.5 -75t93.5 -201q0 -54 -19 -104.5t-72.5 -106t-90.5 -91.5t-133.5 -99 t-137.5 -88.5t-163 -97.5l-15 -9h561l-21 -121h-741z" />
<glyph unicode="3" horiz-adv-x="878" d="M-98 -258l51 113q72 -51 158 -82t168 -31q133 0 228 78.5t95 208.5q0 64 -29 112.5t-76.5 75t-98.5 39t-105 12.5q-57 0 -123 -12l23 109q49 7 96.5 16.5t106 26.5t107 42.5t90.5 58t65.5 79t23.5 100.5q0 65 -38 109.5t-90 62t-112 17.5q-137 0 -297 -93l-26 109 q166 100 344 100q65 0 127 -17.5t114.5 -51.5t84.5 -90.5t32 -128.5t-30.5 -135t-81.5 -108.5t-112.5 -77t-129.5 -48.5q120 -21 195 -100.5t75 -198.5q0 -120 -67.5 -215.5t-173 -145t-224.5 -49.5q-95 0 -201 32t-169 83z" />
<glyph unicode="4" horiz-adv-x="1026" d="M-37 127l840 872h117l-168 -849h200l-18 -119h-205l-82 -408h-127l82 408h-625zM135 150h492l129 653z" />
<glyph unicode="5" horiz-adv-x="847" d="M-104 -264l45 117q162 -115 315 -115q140 0 239 89t99 232q0 130 -89.5 201.5t-232.5 71.5q-84 0 -178 -17l-28 37l200 617h611l-19 -123h-510l-137 -414q41 8 94 8q85 0 159.5 -22.5t134 -66t94 -116t34.5 -165.5q0 -189 -139 -318t-332 -129q-96 0 -195 30t-165 83z " />
<glyph unicode="6" horiz-adv-x="1044" d="M90 422q0 171 71.5 326.5t194 271.5t288 195t351.5 106l11 -125q-114 -17 -223 -57t-209 -103t-181 -156t-129 -206l2 -4q177 123 346 123q149 0 251 -99t102 -256q0 -195 -131.5 -328t-323.5 -133q-189 0 -304.5 125t-115.5 320zM221 414q0 -137 81.5 -229.5 t213.5 -92.5q138 0 228 97t90 235q0 119 -75 189.5t-188 70.5q-172 0 -329 -123q-21 -64 -21 -147z" />
<glyph unicode="7" horiz-adv-x="899" d="M-74 -377l862 1221h-675l30 125h795v-105l-875 -1241h-137z" />
<glyph unicode="8" horiz-adv-x="1003" d="M66 299q0 140 100.5 234.5t245.5 121.5q-203 117 -203 293q0 143 113.5 244.5t287.5 101.5q176 0 277.5 -89t101.5 -234q0 -69 -26 -128t-71 -101.5t-99 -72t-115 -46.5q92 -49 150.5 -125.5t58.5 -175.5q0 -143 -115.5 -246t-294.5 -103q-181 0 -296 89.5t-115 236.5z M195 311q0 -103 79 -164t209 -61q123 0 199 63t76 166q0 50 -22 93.5t-64.5 80t-80.5 61t-95 54.5q-133 -29 -217 -105.5t-84 -187.5zM338 956q0 -38 16.5 -74t38.5 -62t61 -54.5t67.5 -45.5t74.5 -42q114 32 190 106t76 177q0 100 -71.5 161.5t-178.5 61.5 q-119 0 -196.5 -67t-77.5 -161z" />
<glyph unicode="9" horiz-adv-x="1044" d="M61 -225q114 17 223 57t208.5 102.5t180 155.5t128.5 205l-2 4q-179 -123 -346 -123q-149 0 -250 99t-101 257q0 195 130.5 328t322.5 133q189 0 304.5 -125.5t115.5 -320.5q0 -171 -71.5 -326.5t-194 -271t-287.5 -194t-350 -105.5zM233 547q0 -119 75.5 -189.5 t185.5 -70.5q176 0 331 121q19 82 19 147q0 137 -81 230.5t-214 93.5q-137 0 -226.5 -97t-89.5 -235z" />
<glyph unicode=":" horiz-adv-x="382" d="M16 80q0 42 29.5 72t75.5 30q43 0 71.5 -30t28.5 -72q0 -43 -28.5 -75t-71.5 -32q-46 0 -75.5 32t-29.5 75zM141 733q0 42 29.5 71.5t73.5 29.5t73 -29.5t29 -71.5q0 -44 -29 -75t-73 -31t-73.5 31.5t-29.5 74.5z" />
<glyph unicode=";" horiz-adv-x="382" d="M-119 -256q92 50 161 119.5t69 132.5q0 58 -107 110q11 38 43 63.5t74 25.5q56 0 93.5 -42.5t37.5 -103.5q0 -57 -30 -113t-80.5 -102t-103.5 -81.5t-112 -65.5zM141 733q0 42 29.5 71.5t73.5 29.5t73 -29.5t29 -71.5q0 -44 -29 -75t-73 -31t-73.5 31.5t-29.5 74.5z" />
<glyph unicode="&#x3c;" horiz-adv-x="933" d="M70 426v111l780 391v-125l-637 -311v-21l639 -311v-123z" />
<glyph unicode="=" horiz-adv-x="913" d="M72 244l8 112h758l8 -112h-774zM72 717h774l-8 -113h-758z" />
<glyph unicode="&#x3e;" horiz-adv-x="933" d="M78 37v123l639 311v21l-637 311v125l780 -391v-111z" />
<glyph unicode="?" horiz-adv-x="714" d="M129 80q0 42 29 72t75 30q44 0 73.5 -30t29.5 -72t-30 -74.5t-73 -32.5q-46 0 -75 32t-29 75zM176 567q0 88 62.5 138.5t179.5 87.5q59 21 89 34t64 35.5t48 51.5t14 69q0 66 -45.5 115t-107.5 70.5t-128 21.5q-11 0 -104 -6l22 119q40 6 97 6q159 0 266.5 -90 t107.5 -226q0 -68 -22 -119.5t-65 -85.5t-83.5 -54t-99.5 -40q-110 -34 -152.5 -62.5t-42.5 -84.5q0 -61 93 -158l-37 -8q-24 -8 -37 -8q-119 89 -119 194z" />
<glyph unicode="@" horiz-adv-x="1701" d="M88 496q0 163 61.5 311.5t166.5 256.5t251.5 172t309.5 64q150 0 285 -47.5t237 -132.5t162.5 -213t60.5 -280q0 -124 -32.5 -226t-86.5 -167t-122.5 -100.5t-143.5 -35.5q-84 0 -144.5 42t-86.5 110q-113 -135 -250 -135q-129 0 -211 96.5t-82 239.5q0 126 57.5 235 t156 173.5t214.5 64.5q100 0 203 -62l118 53l-100 -491q-23 -113 13 -174.5t126 -61.5q120 0 206.5 117.5t86.5 321.5q0 134 -56 249.5t-149 192.5t-213.5 120.5t-248.5 43.5q-194 0 -358.5 -101.5t-258.5 -270.5t-94 -363q0 -187 82 -342.5t232 -246.5t337 -91 q117 0 252 41l18 -68q-136 -43 -274 -43q-206 0 -372.5 99t-259.5 270t-93 379zM578 459q0 -109 57.5 -178.5t150.5 -69.5q106 0 197 104l88 433q-76 83 -192 83q-82 0 -152.5 -54t-109.5 -139t-39 -179z" />
<glyph unicode="A" horiz-adv-x="1185" d="M-70 0l754 1278h152l229 -1278h-131l-62 356h-593l-205 -356h-144zM348 475h504l-115 670z" />
<glyph unicode="B" horiz-adv-x="1099" d="M74 0l248 1280h360q188 0 287.5 -88.5t99.5 -226.5q0 -123 -80.5 -208t-230.5 -120q111 -29 174 -103.5t63 -173.5q0 -76 -30 -140t-89.5 -113.5t-158 -78t-225.5 -28.5h-418zM227 121h287q177 0 261.5 63.5t84.5 177.5q0 97 -79.5 159.5t-221.5 62.5h-242zM342 698h233 q100 0 180 26.5t129.5 83.5t49.5 136q0 94 -69 154.5t-208 60.5h-227z" />
<glyph unicode="C" horiz-adv-x="1196" d="M109 541q0 155 52 294t144.5 243.5t229.5 165.5t299 61q190 0 395 -80l-25 -125q-187 88 -379 88q-133 0 -244.5 -52t-184.5 -139.5t-113.5 -202.5t-40.5 -241q0 -217 124 -339t336 -122q165 0 322 80l27 -117q-77 -38 -175 -60t-184 -22q-260 0 -421.5 155t-161.5 413z " />
<glyph unicode="D" horiz-adv-x="1282" d="M74 0l248 1280h276q128 0 239 -36.5t193.5 -104.5t130 -173t47.5 -235q0 -151 -49 -282t-142.5 -232t-244 -159t-340.5 -58h-358zM229 121h228q131 0 242.5 39.5t194.5 113t130 187.5t47 256q0 213 -131 326.5t-362 115.5h-148z" />
<glyph unicode="E" horiz-adv-x="1038" d="M74 0l250 1280h772l-23 -121h-643l-88 -459h537l-25 -118h-535l-90 -461h641l-22 -121h-774z" />
<glyph unicode="F" horiz-adv-x="983" d="M74 0l248 1280h753l-22 -123h-623l-92 -477h516l-25 -119h-516l-108 -561h-131z" />
<glyph unicode="G" horiz-adv-x="1271" d="M109 541q0 155 51 294t142.5 243.5t229.5 165.5t302 61q190 0 395 -80l-25 -125q-187 88 -379 88q-134 0 -245.5 -52t-184.5 -139.5t-113 -202t-40 -241.5q0 -218 126.5 -340.5t336.5 -122.5q120 0 253 55l74 373h-340l25 119h469l-111 -571q-86 -42 -189 -67.5 t-194 -25.5q-260 0 -421.5 155t-161.5 413z" />
<glyph unicode="H" horiz-adv-x="1331" d="M74 0l248 1280h131l-111 -578h739l111 578h131l-248 -1280h-131l115 584h-742l-112 -584h-131z" />
<glyph unicode="I" horiz-adv-x="466" d="M76 0l248 1280h131l-250 -1280h-129z" />
<glyph unicode="J" horiz-adv-x="835" d="M-55 86l47 119q133 -113 280 -113q117 0 184.5 72t94.5 209l176 907h129l-180 -930q-34 -175 -136 -276t-270 -101q-90 0 -176.5 31t-148.5 82z" />
<glyph unicode="K" horiz-adv-x="1073" d="M74 0l248 1280h131l-119 -614h2l708 614h170l-755 -641l510 -639h-156l-487 612h-2l-119 -612h-131z" />
<glyph unicode="L" horiz-adv-x="978" d="M74 0l250 1280h131l-226 -1157h633l-24 -123h-764z" />
<glyph unicode="M" horiz-adv-x="1554" d="M31 0l297 1280h176l211 -1128l647 1128h186l-209 -1280h-133l193 1116l-635 -1108h-148l-200 1102l-248 -1110h-137z" />
<glyph unicode="N" horiz-adv-x="1320" d="M74 0l245 1280h160l502 -1122l211 1122h127l-248 -1292h-153l-506 1134l-211 -1122h-127z" />
<glyph unicode="O" d="M113 565q0 196 90.5 365.5t255 273t364.5 103.5q166 0 298.5 -74.5t207 -208.5t74.5 -305q0 -195 -91 -365.5t-255.5 -275.5t-362.5 -105q-254 0 -417.5 166.5t-163.5 425.5zM246 573q0 -209 129 -346t334 -137q163 0 293.5 90.5t199 231t68.5 297.5q0 212 -128.5 346.5 t-334.5 134.5q-163 0 -293.5 -89.5t-199 -229.5t-68.5 -298z" />
<glyph unicode="P" horiz-adv-x="1062" d="M74 0l248 1280h309q107 0 192.5 -29.5t138.5 -80t81 -114.5t28 -136q0 -215 -149 -342t-422 -127h-207l-90 -451h-129zM313 571l203 -2q204 0 312 90.5t108 237.5q0 116 -85.5 189t-240.5 73h-180z" />
<glyph unicode="Q" d="M113 565q0 196 90.5 365t254.5 272t365 103q253 0 416.5 -164t163.5 -422q0 -240 -139 -439t-361 -272l371 -248l-78 -106l-459 323q-28 -4 -41 -4q-166 0 -299 75.5t-208.5 211t-75.5 305.5zM246 573q0 -209 129 -346t334 -137q163 0 293.5 90.5t199 231t68.5 297.5 q0 212 -128.5 346.5t-334.5 134.5q-163 0 -293.5 -89.5t-199 -229.5t-68.5 -298z" />
<glyph unicode="R" horiz-adv-x="1093" d="M74 0l248 1280h296q212 0 325.5 -99.5t113.5 -248.5q0 -83 -31.5 -152.5t-85 -117t-118.5 -78t-138 -43.5l234 -541h-146l-217 526l-252 -16l-98 -510h-131zM324 627l204 4q80 2 148.5 20t124.5 51.5t88.5 89t32.5 126.5q0 113 -80 178t-234 65h-178z" />
<glyph unicode="S" horiz-adv-x="1005" d="M23 104l32 127q92 -63 201 -102t209 -39q135 0 222 69t87 175q0 38 -13.5 71t-36.5 59t-60 51.5t-75.5 45t-92.5 43.5q-69 30 -119 59.5t-97 70t-71.5 93t-24.5 115.5q0 114 60.5 198t156 124.5t209.5 40.5q108 0 213 -31.5t183 -81.5l-33 -125q-79 52 -180.5 86.5 t-194.5 34.5q-121 0 -203 -62.5t-82 -169.5q0 -44 18 -79t58.5 -65.5t83 -53t113.5 -53.5q72 -32 123.5 -62.5t98 -73t70 -98t23.5 -123.5q0 -169 -126.5 -272t-315.5 -103q-118 0 -232 36t-204 95z" />
<glyph unicode="T" horiz-adv-x="1112" d="M180 1157l25 123h1030l-23 -123h-450l-225 -1157h-129l225 1157h-453z" />
<glyph unicode="U" horiz-adv-x="1232" d="M125 352q0 75 20 183l148 745h129l-146 -750q-20 -97 -20 -153q0 -135 88 -209t252 -74q149 0 243.5 96t127.5 263l161 827h129l-161 -842q-42 -221 -170.5 -343t-337.5 -122q-208 0 -335.5 101t-127.5 278z" />
<glyph unicode="V" horiz-adv-x="1146" d="M182 1280h133l191 -1143l647 1143h141l-739 -1278h-149z" />
<glyph unicode="W" horiz-adv-x="1851" d="M250 1280h135l84 -1092l539 1092h155l119 -1092l498 1092h137l-606 -1280h-127l-125 1120l-565 -1120h-127z" />
<glyph unicode="X" horiz-adv-x="1150" d="M-63 0l602 657l-330 623h147l271 -537l469 537h161l-573 -631l348 -649h-147l-289 567l-498 -567h-161z" />
<glyph unicode="Y" horiz-adv-x="1073" d="M184 1280h140l245 -643l482 643h153l-594 -770l-100 -510h-127l100 518z" />
<glyph unicode="Z" horiz-adv-x="1044" d="M-41 0l21 96l954 1063h-727l22 121h899l-18 -98l-952 -1061h745l-22 -121h-922z" />
<glyph unicode="[" horiz-adv-x="792" d="M201 -455v1837h532v-104h-416v-1628h416v-105h-532z" />
<glyph unicode="\" horiz-adv-x="423" d="M164 1438h96l137 -1846h-94z" />
<glyph unicode="]" horiz-adv-x="792" d="M61 -350h416v1628h-416v104h531v-1837h-531v105z" />
<glyph unicode="^" horiz-adv-x="772" d="M223 1061l305 373h144l159 -373h-106l-137 276h-4l-242 -276h-119z" />
<glyph unicode="_" horiz-adv-x="911" d="M-70 0h955v-115h-955v115z" />
<glyph unicode="`" horiz-adv-x="811" d="M330 1427h164l170 -366h-95z" />
<glyph unicode="a" horiz-adv-x="905" d="M29 238q1 158 155 242q143 78 431 78q24 0 49 -1l10 45q7 34 7 64q0 73 -40 118q-56 64 -184 64q-140 0 -283 -84l-16 115q63 37 147 60.5t168 23.5q183 0 273 -96q63 -67 64 -176q0 -48 -13 -105l-80 -389q-5 -28 -5 -48q0 -25 8 -39q14 -26 69 -26h4l-23 -104 q-14 -1 -27 -1q-70 1 -105 33q-41 38 -46 99h-2q-57 -62 -134 -99t-155 -37q-118 0 -195 80t-77 183zM162 252q0 -71 48 -118.5t130 -47.5q133 0 254 113l53 268q-248 -1 -366.5 -57.5t-118.5 -157.5z" />
<glyph unicode="b" horiz-adv-x="1058" d="M55 -10l269 1390l133 27l-105 -551q47 33 76.5 51t81 34.5t106.5 16.5q160 0 263.5 -115t103.5 -292q0 -159 -68.5 -291.5t-187.5 -209.5t-262 -77q-138 0 -270 86zM221 190q44 -48 112.5 -77t145.5 -29q106 0 193 64.5t133.5 166.5t46.5 217q0 141 -75.5 228.5 t-190.5 87.5q-125 0 -258 -109z" />
<glyph unicode="c" horiz-adv-x="917" d="M80 412q0 105 37.5 205t102.5 177t161.5 124t206.5 47q180 0 321 -101l-35 -116q-149 100 -292 100q-80 0 -150.5 -37.5t-117.5 -98.5t-74 -137t-27 -153q0 -157 82 -243.5t225 -86.5q117 0 225 53l17 -114q-49 -26 -119 -42t-133 -16q-188 0 -309 119.5t-121 319.5z" />
<glyph unicode="d" horiz-adv-x="1056" d="M76 383q0 157 68.5 289t188.5 209t265 77q146 0 264 -90l99 512l131 27l-273 -1407h-127l15 76q-65 -50 -125 -76.5t-140 -26.5q-159 0 -262.5 116t-103.5 294zM207 401q0 -144 74.5 -230.5t191.5 -86.5q125 0 256 104l109 553q-44 48 -112.5 78.5t-139.5 30.5 q-107 0 -195 -64.5t-136 -167t-48 -217.5z" />
<glyph unicode="e" horiz-adv-x="956" d="M82 412q0 142 59.5 267.5t173 205.5t254.5 80q145 0 235.5 -83t90.5 -218q0 -103 -41 -193l-639 -4q0 -8 -1 -23t-1 -22q0 -156 83 -243t226 -87q118 0 226 53l18 -114q-49 -26 -119.5 -42t-134.5 -16q-187 0 -308.5 120.5t-121.5 318.5zM233 565q3 0 106 1t175 1h238 q14 47 14 86q0 91 -57.5 144t-155.5 53q-113 0 -200 -80t-120 -205z" />
<glyph unicode="f" horiz-adv-x="608" d="M84 0l158 817l-144 10l6 80l160 33l35 170q33 158 107.5 236.5t201.5 78.5q118 0 205 -65q-1 -3 -4 -9.5t-4 -9.5q-4 -9 -19 -36q-4 -8 -13 -27t-13 -27q-85 56 -160 56q-133 0 -174 -201l-35 -172h271l-7 -115h-286l-160 -819h-125z" />
<glyph unicode="g" horiz-adv-x="960" d="M-115 -233q0 92 69 163.5t196 106.5q-78 49 -78 127q0 58 45 107t114 73q-114 87 -114 248q0 153 113.5 263t269.5 110q126 0 211 -60l293 25l6 -129l-215 12q49 -68 49 -168q0 -157 -112 -265t-273 -108q-91 0 -166 35q-39 -18 -64.5 -45.5t-25.5 -56.5q0 -50 49 -78 t174 -53l55 -11q156 -32 237 -94.5t81 -167.5q0 -133 -127.5 -222t-347.5 -89q-200 0 -319.5 77.5t-119.5 199.5zM12 -213q0 -90 91 -140t235 -50q153 0 244.5 52t91.5 138q0 64 -62.5 103t-191.5 65q-103 18 -187 43q-104 -23 -162.5 -79.5t-58.5 -131.5zM240 598 q0 -101 60.5 -163t166.5 -62q108 0 182 76t74 188q0 101 -61 163t-173 62q-101 0 -175 -75.5t-74 -188.5z" />
<glyph unicode="h" horiz-adv-x="1034" d="M57 0l269 1380l133 27l-113 -584q164 140 320 140q123 0 195.5 -69t72.5 -187q0 -43 -12 -105l-119 -602h-127l112 580q13 63 13 96q0 85 -48.5 128.5t-140.5 43.5q-134 0 -286 -125l-142 -723h-127z" />
<glyph unicode="i" horiz-adv-x="428" d="M59 0l181 928l131 26l-185 -954h-127zM272 1247q0 41 24 70t69 29t69.5 -29t24.5 -70q0 -44 -24.5 -73t-69.5 -29t-69 29t-24 73z" />
<glyph unicode="j" horiz-adv-x="423" d="M-205 -420q110 45 165.5 120t84.5 222q0 -2 2.5 11t8 39.5t12 61.5t15.5 81.5t17.5 93.5t19.5 104t21 107l99 508l131 26q-62 -332 -101 -524q-23 -121 -47 -246.5t-38.5 -197t-14.5 -68.5q-36 -182 -105 -277t-202 -153zM272 1247q0 41 24 70t69 29t69.5 -29t24.5 -70 q0 -44 -24.5 -73t-69.5 -29t-69 29t-24 73z" />
<glyph unicode="k" horiz-adv-x="888" d="M57 0l269 1380l133 27l-174 -881h4l483 412h178l-532 -438l364 -500h-155l-344 485h-4l-95 -485h-127z" />
<glyph unicode="l" horiz-adv-x="421" d="M57 0l269 1380l133 27l-275 -1407h-127z" />
<glyph unicode="m" horiz-adv-x="1587" d="M57 0l183 938l133 27l-25 -125q149 125 289 125q92 0 159 -43.5t93 -118.5q173 162 334 162q118 0 191 -69.5t73 -182.5q0 -51 -14 -123l-117 -590h-127l110 569q17 83 17 113q0 78 -46 121t-132 43q-134 0 -273 -125q-1 -5 -2 -15.5t-2 -15.5q0 -25 -10 -80l-121 -610 h-127l113 569q14 68 14 113q0 78 -46 121t-132 43q-129 0 -264 -117l-144 -729h-127z" />
<glyph unicode="n" horiz-adv-x="1034" d="M57 0l183 938l133 27l-27 -142q166 142 320 142q122 0 195 -69.5t73 -182.5q0 -45 -16 -127l-115 -586h-127l110 569q17 83 17 113q0 79 -47.5 121.5t-137.5 42.5q-70 0 -148 -37.5t-146 -99.5l-140 -709h-127z" />
<glyph unicode="o" horiz-adv-x="1085" d="M80 406q0 145 63.5 271.5t184 206t270.5 79.5q183 0 296.5 -123t113.5 -310q0 -108 -38 -208.5t-105 -177.5t-166 -123t-212 -46q-183 0 -295 122t-112 309zM207 412q0 -144 78.5 -234t216.5 -90q113 0 201 64.5t132 162.5t44 207q0 145 -78 237.5t-215 92.5 q-114 0 -202.5 -66.5t-132.5 -166t-44 -207.5z" />
<glyph unicode="p" horiz-adv-x="1058" d="M-35 -477l275 1415l133 27l-21 -107q47 33 75.5 50t80 33.5t108.5 16.5q157 0 262 -115.5t105 -291.5q0 -159 -68.5 -291.5t-188.5 -209.5t-265 -77q-144 0 -266 93l-103 -543h-127zM221 190q43 -48 111 -77t141 -29q107 0 195 64.5t136 166.5t48 217q0 141 -75.5 228.5 t-190.5 87.5q-131 0 -256 -105z" />
<glyph unicode="q" horiz-adv-x="1056" d="M76 383q0 157 69.5 289.5t190 209t264.5 76.5q146 0 264 -90l142 90l-277 -1435h-129l107 553q-66 -51 -124.5 -77t-140.5 -26q-157 0 -261.5 116t-104.5 294zM207 401q0 -141 75.5 -229t192.5 -88q130 0 254 104l109 553q-44 48 -112 78.5t-140 30.5q-107 0 -195 -64.5 t-136 -167t-48 -217.5z" />
<glyph unicode="r" horiz-adv-x="729" d="M57 0l183 938l133 27l-35 -179q52 83 123.5 131t148.5 48q100 0 172 -45l-34 -123q-82 47 -164 47q-157 0 -279 -223l-121 -621h-127z" />
<glyph unicode="s" horiz-adv-x="778" d="M-8 76l43 117q163 -107 301 -107q89 0 150 44t61 120q0 56 -45.5 93t-159.5 89q-56 25 -91 46t-68.5 51.5t-49.5 70t-16 90.5q0 123 94 199t225 76q162 0 322 -95l-41 -116q-152 98 -289 98q-81 0 -134.5 -39.5t-53.5 -105.5q0 -31 11 -54.5t40.5 -45.5t60 -38.5 t88.5 -44.5q59 -29 95 -50.5t70 -52t49.5 -69t15.5 -88.5q0 -128 -98 -209.5t-246 -81.5q-175 0 -334 103z" />
<glyph unicode="t" horiz-adv-x="684" d="M100 827l6 80l158 33l49 213h121l-49 -219h309l-6 -115h-330l-116 -530q-2 -11 -7.5 -32.5t-7.5 -34.5t-2 -27q0 -58 37 -85.5t100 -27.5q65 0 160 35l21 -111q-88 -37 -195 -37q-109 0 -176.5 53t-67.5 154q0 34 19 123l115 518z" />
<glyph unicode="u" horiz-adv-x="1034" d="M100 225q0 40 17 127l114 586h127l-110 -569q-17 -83 -17 -113q0 -79 47.5 -121.5t137.5 -42.5q72 0 149.5 36.5t145.5 98.5l139 711h127l-182 -938l-133 -27l26 142q-166 -142 -319 -142q-122 0 -195.5 69.5t-73.5 182.5z" />
<glyph unicode="v" horiz-adv-x="866" d="M96 938h131l142 -774l442 774h141l-555 -940h-116z" />
<glyph unicode="w" horiz-adv-x="1329" d="M117 938h131l67 -748l394 750h116l101 -754l344 752h143l-463 -942h-114l-101 756l-407 -756h-113z" />
<glyph unicode="x" horiz-adv-x="806" d="M-86 0l414 483l-207 455h135l160 -373l295 373h145l-381 -459l227 -479h-137l-174 401l-328 -401h-149z" />
<glyph unicode="y" horiz-adv-x="866" d="M-213 -434l63 106q57 -43 109 -43q43 0 88.5 38.5t106.5 144.5l122 206l-178 920h131l140 -776l442 776h141l-569 -961l-125 -215q-88 -147 -156 -201.5t-149 -54.5q-91 0 -166 60z" />
<glyph unicode="z" horiz-adv-x="796" d="M-53 0l18 88l680 735h-520l22 115h695l-19 -88l-682 -735h539l-23 -115h-710z" />
<glyph unicode="{" horiz-adv-x="679" d="M39 473l6 70q144 11 202 51t58 135q0 54 -25.5 125.5t-51 150.5t-25.5 150q0 129 111 190t333 72v-94q-177 -13 -251 -50.5t-74 -107.5q0 -64 52 -203.5t52 -211.5q0 -112 -71 -186.5t-212 -84.5v-12q142 -10 212.5 -83.5t70.5 -188.5q0 -71 -52 -210t-52 -198 q0 -75 73.5 -113t251.5 -51v-92q-223 11 -333.5 71t-110.5 189q0 72 25.5 151.5t51 151.5t25.5 125q0 93 -58.5 134t-201.5 53z" />
<glyph unicode="|" horiz-adv-x="505" d="M197 -408v1846h112v-1846h-112z" />
<glyph unicode="}" horiz-adv-x="679" d="M33 -377q176 12 250.5 49.5t74.5 110.5q0 62 -52 202t-52 210q0 112 71 187t212 85v12q-141 7 -212 81.5t-71 189.5q0 72 52 211.5t52 201.5q0 73 -74 110t-251 50v94q223 -13 333.5 -73t110.5 -189q0 -72 -26 -151.5t-52 -151t-26 -125.5q0 -95 59 -135t203 -51l6 -68 l-6 -70q-144 -11 -203 -51t-59 -135q0 -54 26 -125.5t52 -150.5t26 -150q0 -130 -111.5 -191t-332.5 -69v92z" />
<glyph unicode="~" horiz-adv-x="813" d="M57 377q33 113 83 173t130 60q46 0 93 -22.5t78 -49t66.5 -49t61.5 -22.5q33 0 57.5 31.5t49.5 97.5h94q-35 -113 -85.5 -173.5t-127.5 -60.5q-46 0 -93 22.5t-78 49.5t-66.5 49.5t-61.5 22.5q-34 0 -57.5 -31.5t-50.5 -97.5h-93z" />
<glyph unicode="&#xa1;" horiz-adv-x="530" d="M86 -35l225 936l72 -6l-143 -946zM303 1198q0 43 28.5 75t74.5 32q45 0 73.5 -32t28.5 -75q0 -42 -28 -71t-74 -29t-74.5 29t-28.5 71z" />
<glyph unicode="&#xa2;" horiz-adv-x="890" d="M80 412q0 140 64 265.5t184 205.5t266 80q10 0 68 -5l65 193h90q-7 -22 -19 -57t-16 -47q-35 -107 -37 -107q100 -23 175 -86l-54 -111q-68 61 -157 84q0 -1 -121 -366q-42 -132 -123 -367q32 -4 55 -4q119 0 232 55l4 -118q-121 -54 -246 -54q-37 0 -84 7l-78 -232h-90 l84 254q-121 45 -191.5 152t-70.5 258zM213 422q0 -113 44 -191t124 -114q-1 0 15 46.5t51.5 151t56.5 166.5q12 37 53.5 162t67.5 203q-14 2 -43 2q-83 0 -154 -38t-117 -99t-72 -136.5t-26 -152.5z" />
<glyph unicode="&#xa3;" horiz-adv-x="1013" d="M-41 70q137 25 199 79t86 175q25 118 39 243h-185l-4 95h199q34 222 41 258q36 188 143 289.5t277 101.5q173 0 313 -105l-53 -106q-132 98 -271 98q-118 0 -186.5 -74t-93.5 -200q-27 -146 -39 -262h393l-8 -95h-397q-14 -119 -39 -243q-16 -68 -25 -91 q62 -65 141.5 -107t149.5 -42q83 0 137 51.5t94 155.5l91 -29q-37 -138 -121 -215.5t-203 -77.5q-170 -3 -334 172q-46 -73 -124.5 -113.5t-209.5 -64.5q-1 10 -2 28.5t-2 26.5z" />
<glyph unicode="&#xa4;" horiz-adv-x="1032" d="M63 430l7 92h153q2 51 17 137q7 42 22 103h-117l-6 92h152q72 204 202.5 321t311.5 117q92 0 183.5 -27.5t152.5 -74.5l-51 -107q-57 44 -138 70.5t-157 26.5q-253 0 -371 -326h483l-6 -92h-506q-15 -61 -22 -103q-3 -14 -21 -137h414l6 -92h-422q5 -173 83 -260.5 t247 -87.5q125 0 223 43l-2 -113q-87 -40 -231 -43q-453 0 -453 461h-154z" />
<glyph unicode="&#xa5;" horiz-adv-x="1116" d="M76 268l18 92h361l34 181h-354l8 94h322l-281 645h140l251 -612l476 612h153q-183 -222 -262 -322l-262 -323h311l-16 -94h-361l-34 -181h352l-6 -92h-365l-51 -268h-127l51 268h-358z" />
<glyph unicode="&#xa6;" horiz-adv-x="731" d="M-57 61l47 121q110 -90 221 -90q93 0 148.5 57.5t80.5 180.5l185 950h129l-187 -963q-35 -177 -122.5 -260.5t-229.5 -83.5q-76 0 -149 24.5t-123 63.5z" />
<glyph unicode="&#xa7;" horiz-adv-x="962" d="M59 -16l60 108q58 -52 137.5 -84.5t155.5 -32.5q49 0 95 14.5t81 50.5t35 87q0 30 -14.5 57t-34 45.5t-59 40.5t-68 34.5t-82.5 35.5q-53 23 -86 38.5t-76 41.5t-67.5 51t-42 60t-17.5 75q0 56 27.5 104.5t72 81.5t96 54.5t105.5 30.5q-94 70 -94 176q0 123 90.5 193.5 t224.5 70.5q179 0 332 -98l-58 -111q-140 96 -280 96q-73 0 -128.5 -33t-55.5 -104q0 -29 14.5 -54t33 -43t58.5 -40t67 -34t83 -36q38 -18 48.5 -22.5t45 -21.5t46.5 -25t39.5 -25.5t38.5 -29t29 -30.5t25.5 -36.5t13.5 -39.5t6 -46q0 -57 -26 -105t-69.5 -80.5t-93 -53.5 t-103.5 -32q84 -70 84 -170q0 -86 -49 -151.5t-125 -97t-164 -31.5q-90 0 -190.5 34.5t-160.5 86.5zM197 635q0 -28 19 -56t42.5 -47t64 -40.5t63 -31.5t60.5 -25q12 -5 17 -7q17 -8 64.5 -28t74.5 -35q47 15 81.5 30t72 38t58 56t20.5 72q0 37 -24.5 70t-68.5 58.5 t-77 40.5t-78 33q-9 3 -13 5q-21 10 -66.5 28t-70.5 31q-239 -69 -239 -192z" />
<glyph unicode="&#xa8;" horiz-adv-x="772" d="M260 1214q0 42 27 71.5t69 29.5q43 0 71 -29.5t28 -71.5t-28 -72t-71 -30q-42 0 -69 30t-27 72zM653 1214q0 42 28.5 71.5t72.5 29.5q42 0 69 -29.5t27 -71.5t-27 -72t-69 -30q-43 0 -72 30t-29 72z" />
<glyph unicode="&#xa9;" horiz-adv-x="1492" d="M121 637q0 182 89.5 336.5t244 245t336.5 90.5q137 0 261 -53.5t213 -143.5t142 -214.5t53 -260.5t-53 -260t-142 -214t-213 -143t-261 -53q-182 0 -336.5 90t-244 244t-89.5 336zM180 637q0 -165 82 -306t223 -223.5t306 -82.5t305.5 82.5t222.5 223.5t82 306 q0 124 -48.5 237.5t-130 196.5t-194.5 132.5t-237 49.5q-165 0 -306 -83.5t-223 -225.5t-82 -307zM455 635q0 172 101 276.5t263 104.5q142 0 230 -60l-35 -92q-88 58 -195 58q-118 0 -188 -75t-70 -208q0 -131 71 -209t189 -78q115 0 201 66l20 -101q-86 -59 -225 -59 q-162 0 -262 103t-100 274z" />
<glyph unicode="&#xaa;" horiz-adv-x="694" d="M88 707q0 131 124.5 205.5t369.5 70.5l10 45q38 184 -148 184q-94 0 -225 -71l-22 90q137 76 260 76q61 0 108 -14.5t84 -47.5t47.5 -87t-2.5 -134l-59 -295q-23 -111 37 -194l-109 -23q-35 41 -41 115h-4q-46 -46 -108 -79.5t-123 -33.5q-88 0 -143.5 57.5t-55.5 135.5z M193 719q0 -50 37 -80.5t92 -30.5q53 0 107.5 26t96.5 62l41 209q-203 -4 -288.5 -55.5t-85.5 -130.5z" />
<glyph unicode="&#xab;" horiz-adv-x="1177" d="M43 414l27 131l557 348l-6 -107l-457 -317v-2l338 -322l-37 -82zM578 412l26 135l570 356l-7 -110l-467 -324v-2l347 -328l-37 -86z" />
<glyph unicode="&#xac;" horiz-adv-x="1052" d="M76 383q0 157 68.5 289t188.5 209t265 77q146 0 264 -90l144 90l-152 -761q-12 -62 1.5 -88t72.5 -25l-23 -104q-163 -12 -176 122h-2q-126 -129 -285 -129t-262.5 116t-103.5 294zM207 401q0 -144 74.5 -230.5t191.5 -86.5q130 0 254 104l111 553q-44 48 -112.5 78.5 t-139.5 30.5q-107 0 -195 -64.5t-136 -167t-48 -217.5z" />
<glyph unicode="&#xad;" horiz-adv-x="598" d="M74 438v119h463v-119h-463z" />
<glyph unicode="&#xae;" horiz-adv-x="1492" d="M121 637q0 182 89.5 336.5t244 245t336.5 90.5q137 0 261 -53.5t213 -143.5t142 -214.5t53 -260.5t-53 -260t-142 -214t-213 -143t-261 -53q-182 0 -336.5 90t-244 244t-89.5 336zM180 637q0 -165 82 -306t223 -223.5t306 -82.5t305.5 82.5t222.5 223.5t82 306 q0 124 -48.5 237.5t-130 196.5t-194.5 132.5t-237 49.5q-165 0 -306 -83.5t-223 -225.5t-82 -307zM549 283v725h233q135 0 206 -59t71 -165q0 -77 -38 -130.5t-106 -78.5l183 -292h-119l-166 268l-162 -8v-260h-102zM649 631l129 4q89 1 133.5 38.5t44.5 104.5 q0 137 -184 137h-123v-284z" />
<glyph unicode="&#xaf;" horiz-adv-x="813" d="M272 1098l25 92h508l-8 -92h-525z" />
<glyph unicode="&#xb0;" horiz-adv-x="729" d="M166 979q0 133 97.5 231.5t232.5 98.5q124 0 201 -74.5t77 -196.5q0 -136 -97 -231.5t-237 -95.5q-124 0 -199 73t-75 195zM252 985q0 -89 55.5 -140.5t145.5 -51.5q98 0 166.5 71t68.5 168q0 90 -55.5 141.5t-145.5 51.5q-98 0 -166.5 -70.5t-68.5 -169.5z" />
<glyph unicode="&#xb1;" horiz-adv-x="1492" d="M121 637q0 182 89.5 336.5t244 245t336.5 90.5q137 0 261 -53.5t213 -143.5t142 -214.5t53 -260.5q0 -137 -53 -261t-142 -213.5t-213 -142.5t-261 -53t-261 53t-213.5 142.5t-142.5 213.5t-53 261zM180 637q0 -165 82 -306t223 -223.5t306 -82.5t305.5 82.5t222.5 223.5 t82 306q0 124 -48.5 237.5t-130 196.5t-194.5 132.5t-237 49.5q-165 0 -306 -83.5t-223 -225.5t-82 -307zM588 262v725h219q143 0 216 -62.5t73 -170.5q0 -123 -78 -186.5t-221 -63.5h-107v-242h-102zM690 596h115q186 3 186 154q0 145 -188 145h-113v-299z" />
<glyph unicode="&#xb4;" horiz-adv-x="811" d="M377 1061l315 366h168l-383 -366h-100z" />
<glyph unicode="&#xb5;" horiz-adv-x="1052" d="M6 -401l57 114q145 -100 293 -100q134 0 211.5 80t112.5 258l27 125q-65 -50 -125 -76.5t-140 -26.5q-159 0 -262.5 116t-103.5 294q0 157 68.5 289t188.5 209t265 77q146 0 264 -90l144 90l-199 -1015q-44 -224 -154 -334.5t-303 -110.5q-170 0 -344 101zM207 401 q0 -144 74.5 -230.5t191.5 -86.5q130 0 254 100l111 557q-44 48 -112.5 78.5t-139.5 30.5q-107 0 -195 -64.5t-136 -167t-48 -217.5z" />
<glyph unicode="&#xb6;" horiz-adv-x="1026" d="M168 860q0 128 66 224t178 145t252 49h335l-280 -1411h-113l131 661q-25 -6 -121 -6q-121 0 -221 37t-163.5 115.5t-63.5 185.5z" />
<glyph unicode="&#xb7;" horiz-adv-x="382" d="M94 469q0 42 29.5 72t75.5 30q43 0 71.5 -30t28.5 -72q0 -43 -28.5 -75t-71.5 -32q-46 0 -75.5 32t-29.5 75z" />
<glyph unicode="&#xb8;" horiz-adv-x="813" d="M135 -522l4 88q127 -4 194.5 29t67.5 94q0 57 -64.5 81t-186.5 13v61l270 217h108l-241 -196q101 -6 161 -50.5t60 -117.5q0 -95 -97 -156.5t-276 -62.5z" />
<glyph unicode="&#xba;" horiz-adv-x="868" d="M150 858q0 116 51 217.5t147.5 165.5t216.5 64q146 0 240 -98t94 -246q0 -118 -52.5 -220t-149.5 -164.5t-216 -62.5q-147 0 -239 98t-92 246zM250 864q0 -117 65 -188.5t179 -71.5q134 0 218.5 107.5t84.5 244.5q0 115 -65.5 188t-176.5 73q-91 0 -162.5 -54 t-107 -133.5t-35.5 -165.5z" />
<glyph unicode="&#xbb;" horiz-adv-x="1183" d="M12 53l6 113l467 321v2l-344 330l37 86l434 -360l-26 -135zM561 66l4 106l457 315v2l-336 324l37 80l422 -350l-27 -129z" />
<glyph unicode="&#xbc;" horiz-adv-x="1214" d="M84 0l158 819l-144 10l6 78l160 33l31 150q33 158 107.5 236.5t201.5 78.5q116 0 205 -66q-1 -3 -4 -9t-4 -9q-5 -12 -19 -37q-5 -8 -14 -27.5t-12 -25.5q-83 55 -160 55q-133 0 -174 -201l-31 -151h479l37 176q33 159 106.5 237t200.5 78q120 0 207 -65q-1 -3 -4 -9.5 t-4 -9.5q-6 -15 -18 -36l-27 -54q-85 56 -162 56q-133 0 -174 -201l-35 -172h271l-6 -115h-285l-160 -819h-127l160 819h-481l-160 -819h-125z" />
<glyph unicode="&#xbd;" horiz-adv-x="1640" d="M84 0l158 819l-144 10l6 78l160 33l31 150q33 158 107.5 236.5t201.5 78.5q116 0 205 -66q-1 -3 -4 -9t-4 -9q-5 -12 -19 -37q-5 -8 -14 -27.5t-12 -25.5q-83 55 -160 55q-133 0 -174 -201l-31 -151h479l37 176q33 159 106.5 237t200.5 78q120 0 207 -65q-1 -3 -4 -9.5 t-4 -9.5q-6 -15 -18 -36l-27 -54q-85 56 -162 56q-133 0 -174 -201l-35 -172h465l123 20l-184 -954h-125l160 819h-459l-160 -819h-127l160 819h-481l-160 -819h-125z" />
<glyph unicode="&#xbe;" horiz-adv-x="1636" d="M84 0l158 819l-144 10l6 78l160 33l31 150q33 158 107.5 236.5t201.5 78.5q116 0 205 -66q-1 -3 -4 -9t-4 -9q-5 -12 -19 -37q-5 -8 -14 -27.5t-12 -25.5q-83 55 -160 55q-133 0 -174 -201l-31 -151h479l37 176q33 159 106.5 237t200.5 78q120 0 207 -65q-1 -3 -4 -9.5 t-4 -9.5q-6 -15 -18 -36l-27 -54q-85 56 -162 56q-133 0 -174 -201l-35 -172h271l-6 -115h-285l-160 -819h-127l160 819h-481l-160 -819h-125zM1274 0l268 1380l131 27l-274 -1407h-125z" />
<glyph unicode="&#xbf;" horiz-adv-x="714" d="M49 285q0 56 16 101.5t40 75t62.5 55t71.5 39.5t80 30q109 33 152 61t43 84q0 68 -94 158l74 16q120 -90 120 -194q0 -87 -62 -137t-179 -87q-108 -33 -161.5 -74.5t-53.5 -117.5q0 -50 26 -91t68 -65t90 -36.5t96 -12.5q62 0 105 6l-23 -119q-36 -8 -96 -8 q-159 0 -267 90.5t-108 225.5zM455 1198q0 43 28.5 75t73.5 32t73.5 -32t28.5 -75q0 -42 -28 -71t-74 -29t-74 29t-28 71z" />
<glyph unicode="&#xc0;" horiz-adv-x="1185" d="M-70 0l754 1278h152l229 -1278h-131l-62 356h-593l-205 -356h-144zM348 475h504l-115 670zM504 1769h164l170 -366h-95z" />
<glyph unicode="&#xc1;" horiz-adv-x="1185" d="M-70 0l754 1278h152l229 -1278h-131l-62 356h-593l-205 -356h-144zM348 475h504l-115 670zM715 1403l315 366h168l-383 -366h-100z" />
<glyph unicode="&#xc2;" horiz-adv-x="1185" d="M-70 0l754 1278h152l229 -1278h-131l-62 356h-593l-205 -356h-144zM348 475h504l-115 670zM459 1403l305 373h143l160 -373h-106l-138 276h-4l-241 -276h-119z" />
<glyph unicode="&#xc3;" horiz-adv-x="1185" d="M-70 0l754 1278h152l229 -1278h-131l-62 356h-593l-205 -356h-144zM348 475h504l-115 670zM432 1425q33 113 83 173.5t130 60.5q46 0 93 -22.5t78 -49t66.5 -49t61.5 -22.5q33 0 57.5 31.5t49.5 97.5h94q-35 -113 -85.5 -173.5t-127.5 -60.5q-46 0 -93 22.5t-78 49 t-66.5 49t-61.5 22.5q-34 0 -58 -32t-51 -97h-92z" />
<glyph unicode="&#xc4;" horiz-adv-x="1185" d="M-70 0l754 1278h152l229 -1278h-131l-62 356h-593l-205 -356h-144zM348 475h504l-115 670zM502 1556q0 42 27 71.5t69 29.5q43 0 70.5 -29.5t27.5 -71.5t-27.5 -72t-70.5 -30q-42 0 -69 30t-27 72zM895 1556q0 42 28.5 71.5t71.5 29.5q42 0 69.5 -29.5t27.5 -71.5 t-27.5 -72t-69.5 -30q-43 0 -71.5 30t-28.5 72z" />
<glyph unicode="&#xc5;" horiz-adv-x="1185" d="M-66 0l719 1223q-55 24 -86.5 70.5t-31.5 105.5q0 96 72 158.5t177 62.5q101 0 169.5 -58t68.5 -149q0 -75 -47 -129.5t-125 -73.5l217 -1210h-131l-62 356h-591l-205 -356h-144zM352 475h502l-115 672zM627 1403q0 -57 41.5 -94t103.5 -37q69 0 114.5 39.5t45.5 99.5 q0 59 -42 97t-106 38q-68 0 -112.5 -41t-44.5 -102z" />
<glyph unicode="&#xc6;" horiz-adv-x="1677" d="M-92 0l983 1280h848l-23 -121h-643l-88 -457h535l-23 -120h-536l-91 -461h643l-22 -121h-774l69 356h-460l-273 -356h-145zM418 477h393l133 688z" />
<glyph unicode="&#xc7;" horiz-adv-x="1196" d="M109 541q0 155 52 294t144.5 243.5t229.5 165.5t299 61q190 0 395 -80l-25 -125q-187 88 -379 88q-133 0 -244.5 -52t-184.5 -139.5t-113.5 -202.5t-40.5 -241q0 -217 124 -339t336 -122q165 0 322 80l27 -117q-73 -36 -168 -58t-181 -24l-133 -108q101 -6 161.5 -50.5 t60.5 -117.5q0 -95 -97 -156.5t-276 -62.5l4 88q127 -4 194.5 29t67.5 94q0 57 -65 81t-187 13v61l168 136q-222 25 -356.5 176t-134.5 385z" />
<glyph unicode="&#xc8;" horiz-adv-x="1038" d="M74 0l250 1280h772l-23 -121h-643l-88 -459h537l-25 -118h-535l-90 -461h641l-22 -121h-774zM418 1769h164l170 -366h-95z" />
<glyph unicode="&#xc9;" horiz-adv-x="1038" d="M74 0l250 1280h772l-23 -121h-643l-88 -459h537l-25 -118h-535l-90 -461h641l-22 -121h-774zM625 1403l315 366h168l-383 -366h-100z" />
<glyph unicode="&#xca;" horiz-adv-x="1038" d="M74 0l250 1280h772l-23 -121h-643l-88 -459h537l-25 -118h-535l-90 -461h641l-22 -121h-774zM416 1403l305 373h143l160 -373h-106l-138 276h-4l-241 -276h-119z" />
<glyph unicode="&#xcb;" horiz-adv-x="1038" d="M74 0l250 1280h772l-23 -121h-643l-88 -459h537l-25 -118h-535l-90 -461h641l-22 -121h-774zM434 1556q0 42 27 71.5t69 29.5q43 0 71 -29.5t28 -71.5t-28 -72t-71 -30q-42 0 -69 30t-27 72zM827 1556q0 42 28.5 71.5t72.5 29.5q42 0 69 -29.5t27 -71.5t-27 -72t-69 -30 q-43 0 -72 30t-29 72z" />
<glyph unicode="&#xcc;" horiz-adv-x="466" d="M76 0l248 1280h131l-250 -1280h-129zM125 1769h164l170 -366h-94z" />
<glyph unicode="&#xcd;" horiz-adv-x="466" d="M76 0l248 1280h131l-250 -1280h-129zM348 1403l316 366h167l-382 -366h-101z" />
<glyph unicode="&#xce;" horiz-adv-x="466" d="M76 0l248 1280h131l-250 -1280h-129zM88 1403l305 373h144l159 -373h-106l-137 276h-4l-242 -276h-119z" />
<glyph unicode="&#xcf;" horiz-adv-x="466" d="M76 0l248 1280h131l-250 -1280h-129zM133 1556q0 42 27 71.5t69 29.5q43 0 71 -29.5t28 -71.5t-28 -72t-71 -30q-42 0 -69 30t-27 72zM526 1556q0 42 28.5 71.5t72.5 29.5q42 0 69 -29.5t27 -71.5t-27 -72t-69 -30q-43 0 -72 30t-29 72z" />
<glyph unicode="&#xd0;" horiz-adv-x="1304" d="M68 588v114h163q31 144 58 289q54 282 55 289h274q130 0 241 -35.5t194.5 -103t130.5 -172t47 -234.5q0 -120 -30 -228.5t-93 -201.5t-153.5 -160.5t-218.5 -106t-281 -38.5h-359l115 588h-143zM252 121h225q130 0 241.5 39.5t195.5 113t132 187.5t48 256 q0 212 -132.5 327t-361.5 115h-147l-88 -457h362v-114h-385z" />
<glyph unicode="&#xd1;" horiz-adv-x="1320" d="M74 0l245 1280h160l502 -1122l211 1122h127l-248 -1292h-153l-506 1134l-211 -1122h-127zM500 1425q33 113 83 173.5t130 60.5q46 0 93 -22.5t78 -49t66.5 -49t61.5 -22.5q33 0 56.5 31.5t49.5 97.5h94q-35 -113 -85.5 -173.5t-127.5 -60.5q-46 0 -93 22.5t-78 49 t-66.5 49t-61.5 22.5q-34 0 -57.5 -31.5t-50.5 -97.5h-92z" />
<glyph unicode="&#xd2;" d="M113 565q0 196 90.5 365.5t255 273t364.5 103.5q166 0 298.5 -74.5t207 -208.5t74.5 -305q0 -195 -91 -365.5t-255.5 -275.5t-362.5 -105q-254 0 -417.5 166.5t-163.5 425.5zM246 573q0 -209 129 -346t334 -137q163 0 293.5 90.5t199 231t68.5 297.5q0 212 -128.5 346.5 t-334.5 134.5q-163 0 -293.5 -89.5t-199 -229.5t-68.5 -298zM557 1769h164l170 -366h-94z" />
<glyph unicode="&#xd3;" d="M113 565q0 196 90.5 365.5t255 273t364.5 103.5q166 0 298.5 -74.5t207 -208.5t74.5 -305q0 -195 -91 -365.5t-255.5 -275.5t-362.5 -105q-254 0 -417.5 166.5t-163.5 425.5zM246 573q0 -209 129 -346t334 -137q163 0 293.5 90.5t199 231t68.5 297.5q0 212 -128.5 346.5 t-334.5 134.5q-163 0 -293.5 -89.5t-199 -229.5t-68.5 -298zM801 1403l315 366h168l-383 -366h-100z" />
<glyph unicode="&#xd4;" d="M113 565q0 196 90.5 365.5t255 273t364.5 103.5q166 0 298.5 -74.5t207 -208.5t74.5 -305q0 -195 -91 -365.5t-255.5 -275.5t-362.5 -105q-254 0 -417.5 166.5t-163.5 425.5zM246 573q0 -209 129 -346t334 -137q163 0 293.5 90.5t199 231t68.5 297.5q0 212 -128.5 346.5 t-334.5 134.5q-163 0 -293.5 -89.5t-199 -229.5t-68.5 -298zM565 1403l305 373h144l160 -373h-107l-137 276h-4l-242 -276h-119z" />
<glyph unicode="&#xd5;" d="M113 565q0 196 90.5 365.5t255 273t364.5 103.5q166 0 298.5 -74.5t207 -208.5t74.5 -305q0 -195 -91 -365.5t-255.5 -275.5t-362.5 -105q-254 0 -417.5 166.5t-163.5 425.5zM246 573q0 -209 129 -346t334 -137q163 0 293.5 90.5t199 231t68.5 297.5q0 212 -128.5 346.5 t-334.5 134.5q-163 0 -293.5 -89.5t-199 -229.5t-68.5 -298zM539 1425q33 113 83 173.5t130 60.5q46 0 93 -22.5t78 -49t66.5 -49t61.5 -22.5q33 0 56.5 31.5t49.5 97.5h94q-35 -113 -85.5 -173.5t-127.5 -60.5q-46 0 -93 22.5t-78 49t-66.5 49t-61.5 22.5 q-34 0 -57.5 -31.5t-50.5 -97.5h-92z" />
<glyph unicode="&#xd6;" d="M113 565q0 196 90.5 365.5t255 273t364.5 103.5q166 0 298.5 -74.5t207 -208.5t74.5 -305q0 -195 -91 -365.5t-255.5 -275.5t-362.5 -105q-254 0 -417.5 166.5t-163.5 425.5zM246 573q0 -209 129 -346t334 -137q163 0 293.5 90.5t199 231t68.5 297.5q0 212 -128.5 346.5 t-334.5 134.5q-163 0 -293.5 -89.5t-199 -229.5t-68.5 -298zM629 1556q0 42 27 71.5t69 29.5q43 0 70.5 -29.5t27.5 -71.5t-27.5 -72t-70.5 -30q-42 0 -69 30t-27 72zM1022 1556q0 42 28.5 71.5t71.5 29.5q42 0 69.5 -29.5t27.5 -71.5t-27.5 -72t-69.5 -30q-43 0 -71.5 30 t-28.5 72z" />
<glyph unicode="&#xd7;" horiz-adv-x="995" d="M80 133l346 346l-346 344l76 76l346 -346l346 348l76 -76l-349 -346l347 -346l-76 -76l-344 346l-346 -346z" />
<glyph unicode="&#xd8;" d="M86 -137l209 262q-86 79 -133 192t-47 246q0 117 34 228t97.5 204t149.5 163t196.5 109.5t230.5 39.5q198 0 338 -101l170 211h113l-213 -266q174 -166 174 -430q0 -146 -53.5 -282.5t-146 -239t-225.5 -164.5t-282 -62q-182 0 -333 97l-166 -207h-113zM248 573 q0 -211 129 -346l706 881q-116 82 -272 82q-124 0 -231 -52.5t-178.5 -138.5t-112.5 -197.5t-41 -228.5zM444 170q115 -80 267 -80q163 0 293.5 90.5t199 231t68.5 297.5q0 207 -123 342z" />
<glyph unicode="&#xd9;" horiz-adv-x="1232" d="M125 352q0 75 20 183l148 745h129l-146 -750q-20 -97 -20 -153q0 -135 88 -209t252 -74q149 0 243.5 96t127.5 263l161 827h129l-161 -842q-42 -221 -170.5 -343t-337.5 -122q-208 0 -335.5 101t-127.5 278zM496 1769h163l170 -366h-94z" />
<glyph unicode="&#xda;" horiz-adv-x="1232" d="M125 352q0 75 20 183l148 745h129l-146 -750q-20 -97 -20 -153q0 -135 88 -209t252 -74q149 0 243.5 96t127.5 263l161 827h129l-161 -842q-42 -221 -170.5 -343t-337.5 -122q-208 0 -335.5 101t-127.5 278zM709 1403l315 366h168l-383 -366h-100z" />
<glyph unicode="&#xdb;" horiz-adv-x="1232" d="M125 352q0 75 20 183l148 745h129l-146 -750q-20 -97 -20 -153q0 -135 88 -209t252 -74q149 0 243.5 96t127.5 263l161 827h129l-161 -842q-42 -221 -170.5 -343t-337.5 -122q-208 0 -335.5 101t-127.5 278zM483 1403l305 373h144l160 -373h-107l-137 276h-4l-242 -276 h-119z" />
<glyph unicode="&#xdc;" horiz-adv-x="1232" d="M125 352q0 75 20 183l148 745h129l-146 -750q-20 -97 -20 -153q0 -135 88 -209t252 -74q149 0 243.5 96t127.5 263l161 827h129l-161 -842q-42 -221 -170.5 -343t-337.5 -122q-208 0 -335.5 101t-127.5 278zM514 1556q0 42 27 71.5t69 29.5q43 0 71 -29.5t28 -71.5 t-28 -72t-71 -30q-42 0 -69 30t-27 72zM907 1556q0 42 28.5 71.5t72.5 29.5q42 0 69 -29.5t27 -71.5t-27 -72t-69 -30q-43 0 -72 30t-29 72z" />
<glyph unicode="&#xdd;" horiz-adv-x="1073" d="M184 1280h140l245 -643l482 643h153l-594 -770l-100 -510h-127l100 518zM614 1403l316 366h168l-383 -366h-101z" />
<glyph unicode="&#xde;" horiz-adv-x="1062" d="M74 0l248 1280h131l-43 -219h178q107 0 193 -30.5t139.5 -81.5t81.5 -115.5t28 -135.5q0 -214 -149.5 -341.5t-423.5 -127.5h-207l-47 -229h-129zM272 350h203q203 0 310.5 90.5t107.5 237.5q0 117 -84.5 189.5t-239.5 72.5h-182z" />
<glyph unicode="&#xdf;" horiz-adv-x="1243" d="M84 0l158 817l-144 10l6 80l160 33l35 170q33 158 107.5 236.5t201.5 78.5q118 0 205 -65q-1 -3 -4 -9.5t-4 -9.5q-4 -9 -19 -36q-4 -8 -13 -27t-13 -27q-85 56 -160 56q-133 0 -174 -201l-217 -1106h-125zM457 76l43 117q163 -107 301 -107q89 0 150 44t61 120 q0 57 -44.5 94t-158.5 88q-56 25 -91.5 46t-69 51.5t-49 70t-15.5 90.5q0 123 94 199t223 76q162 0 322 -95l-41 -116q-152 98 -289 98q-81 0 -134.5 -39.5t-53.5 -105.5q0 -31 11 -54.5t40.5 -45.5t60 -38.5t88.5 -44.5q59 -29 95 -50.5t70 -52t49.5 -69t15.5 -88.5 q0 -128 -98 -209.5t-246 -81.5q-175 0 -334 103z" />
<glyph unicode="&#xe0;" horiz-adv-x="905" d="M29 238q0 158 154.5 242t480.5 77l10 45q23 118 -33 182t-184 64q-140 0 -283 -84l-16 115q63 37 147 60.5t168 23.5q183 0 273.5 -96t50.5 -281l-80 -389q-12 -61 2.5 -87.5t73.5 -25.5l-23 -104q-91 -7 -132 31.5t-46 99.5h-2q-57 -62 -134 -99t-155 -37 q-118 0 -195 80t-77 183zM162 252q0 -71 48 -118.5t130 -47.5q133 0 254 113l53 268q-248 -1 -366.5 -57.5t-118.5 -157.5zM268 1427h164l170 -366h-94z" />
<glyph unicode="&#xe1;" horiz-adv-x="905" d="M29 238q0 158 154.5 242t480.5 77l10 45q23 118 -33 182t-184 64q-140 0 -283 -84l-16 115q63 37 147 60.5t168 23.5q183 0 273.5 -96t50.5 -281l-80 -389q-12 -61 2.5 -87.5t73.5 -25.5l-23 -104q-91 -7 -132 31.5t-46 99.5h-2q-57 -62 -134 -99t-155 -37 q-118 0 -195 80t-77 183zM162 252q0 -71 48 -118.5t130 -47.5q133 0 254 113l53 268q-248 -1 -366.5 -57.5t-118.5 -157.5zM434 1061l316 366h168l-383 -366h-101z" />
<glyph unicode="&#xe2;" horiz-adv-x="905" d="M29 238q0 158 154.5 242t480.5 77l10 45q23 118 -33 182t-184 64q-140 0 -283 -84l-16 115q63 37 147 60.5t168 23.5q183 0 273.5 -96t50.5 -281l-80 -389q-12 -61 2.5 -87.5t73.5 -25.5l-23 -104q-91 -7 -132 31.5t-46 99.5h-2q-57 -62 -134 -99t-155 -37 q-118 0 -195 80t-77 183zM162 252q0 -71 48 -118.5t130 -47.5q133 0 254 113l53 268q-248 -1 -366.5 -57.5t-118.5 -157.5zM233 1061l306 373h143l160 -373h-107l-137 276h-4l-242 -276h-119z" />
<glyph unicode="&#xe3;" horiz-adv-x="905" d="M29 238q0 158 154.5 242t480.5 77l10 45q23 118 -33 182t-184 64q-140 0 -283 -84l-16 115q63 37 147 60.5t168 23.5q183 0 273.5 -96t50.5 -281l-80 -389q-12 -61 2.5 -87.5t73.5 -25.5l-23 -104q-91 -7 -132 31.5t-46 99.5h-2q-57 -62 -134 -99t-155 -37 q-118 0 -195 80t-77 183zM162 252q0 -71 48 -118.5t130 -47.5q133 0 254 113l53 268q-248 -1 -366.5 -57.5t-118.5 -157.5zM207 1083q33 113 83 173.5t130 60.5q46 0 93 -22.5t78 -49t66.5 -49t61.5 -22.5q33 0 56.5 31.5t49.5 97.5h95q-35 -113 -85.5 -173.5t-127.5 -60.5 q-46 0 -93 22.5t-78 49t-66.5 49t-61.5 22.5q-34 0 -58 -32t-51 -97h-92z" />
<glyph unicode="&#xe4;" horiz-adv-x="905" d="M29 238q0 158 154.5 242t480.5 77l10 45q23 118 -33 182t-184 64q-140 0 -283 -84l-16 115q63 37 147 60.5t168 23.5q183 0 273.5 -96t50.5 -281l-80 -389q-12 -61 2.5 -87.5t73.5 -25.5l-23 -104q-91 -7 -132 31.5t-46 99.5h-2q-57 -62 -134 -99t-155 -37 q-118 0 -195 80t-77 183zM162 252q0 -71 48 -118.5t130 -47.5q133 0 254 113l53 268q-248 -1 -366.5 -57.5t-118.5 -157.5zM279 1214q0 42 27 71.5t69 29.5q43 0 70.5 -29.5t27.5 -71.5t-27.5 -72t-70.5 -30q-42 0 -69 30t-27 72zM672 1214q0 42 28.5 71.5t71.5 29.5 q42 0 69 -29.5t27 -71.5t-27 -72t-69 -30q-43 0 -71.5 30t-28.5 72z" />
<glyph unicode="&#xe5;" horiz-adv-x="905" d="M29 238q0 158 154.5 242t480.5 77l10 45q23 118 -33 182t-184 64q-140 0 -283 -84l-16 115q63 37 147 60.5t168 23.5q183 0 273.5 -96t50.5 -281l-80 -389q-12 -61 2.5 -87.5t73.5 -25.5l-23 -104q-91 -7 -132 31.5t-46 99.5h-2q-57 -62 -134 -99t-155 -37 q-118 0 -195 80t-77 183zM162 252q0 -71 48 -118.5t130 -47.5q133 0 254 113l53 268q-248 -1 -366.5 -57.5t-118.5 -157.5zM336 1255q0 96 72.5 159t179.5 63q101 0 168 -57t67 -148q0 -96 -72 -156.5t-178 -60.5q-101 0 -169 55t-68 145zM428 1262q0 -59 41.5 -96.5 t105.5 -37.5q67 0 112.5 40.5t45.5 101.5q0 59 -41.5 96t-105.5 37q-68 0 -113 -40t-45 -101z" />
<glyph unicode="&#xe6;" horiz-adv-x="1525" d="M29 231q0 158 157 245t478 75l10 51q24 118 -29.5 182t-181.5 64q-142 0 -285 -84l-16 115q64 37 149.5 61.5t169.5 24.5q243 0 301 -174q147 174 353 174q143 0 235 -83.5t92 -217.5q0 -99 -43 -193l-637 -4q-2 -16 -2 -45q0 -156 83.5 -243t226.5 -87q117 0 225 53 l16 -114q-49 -26 -119 -42t-133 -16q-130 0 -229 59.5t-150 168.5q-171 -228 -393 -228q-122 0 -200 78t-78 180zM162 246q0 -73 48 -115.5t132 -42.5q78 0 163 45.5t165 142.5q-23 83 -17 185q-491 0 -491 -215zM801 565q1 0 103 1t175 1h238q14 38 14 86q0 91 -57 144 t-156 53q-113 0 -198.5 -80t-118.5 -205z" />
<glyph unicode="&#xe7;" horiz-adv-x="917" d="M80 412q0 105 37.5 205t102.5 177t161.5 124t206.5 47q180 0 321 -101l-35 -116q-149 100 -292 100q-80 0 -150.5 -37.5t-117.5 -98.5t-74 -137t-27 -153q0 -157 82 -243.5t225 -86.5q117 0 225 53l17 -114q-49 -26 -119 -42t-133 -16h-4l-133 -108q101 -6 161 -50.5 t60 -117.5q0 -95 -97 -156.5t-276 -62.5l4 88q127 -4 194.5 29t67.5 94q0 57 -64.5 81t-186.5 13v61l172 140q-150 30 -239 142.5t-89 285.5z" />
<glyph unicode="&#xe8;" horiz-adv-x="956" d="M82 412q0 142 59.5 267.5t173 205.5t254.5 80q145 0 235.5 -83t90.5 -218q0 -103 -41 -193l-639 -4q0 -8 -1 -23t-1 -22q0 -156 83 -243t226 -87q118 0 226 53l18 -114q-49 -26 -119.5 -42t-134.5 -16q-187 0 -308.5 120.5t-121.5 318.5zM233 565q3 0 106 1t175 1h238 q14 47 14 86q0 91 -57.5 144t-155.5 53q-113 0 -200 -80t-120 -205zM309 1427h164l170 -366h-94z" />
<glyph unicode="&#xe9;" horiz-adv-x="956" d="M82 412q0 142 59.5 267.5t173 205.5t254.5 80q145 0 235.5 -83t90.5 -218q0 -103 -41 -193l-639 -4q0 -8 -1 -23t-1 -22q0 -156 83 -243t226 -87q118 0 226 53l18 -114q-49 -26 -119.5 -42t-134.5 -16q-187 0 -308.5 120.5t-121.5 318.5zM233 565q3 0 106 1t175 1h238 q14 47 14 86q0 91 -57.5 144t-155.5 53q-113 0 -200 -80t-120 -205zM485 1061l316 366h168l-383 -366h-101z" />
<glyph unicode="&#xea;" horiz-adv-x="956" d="M82 412q0 142 59.5 267.5t173 205.5t254.5 80q145 0 235.5 -83t90.5 -218q0 -103 -41 -193l-639 -4q0 -8 -1 -23t-1 -22q0 -156 83 -243t226 -87q118 0 226 53l18 -114q-49 -26 -119.5 -42t-134.5 -16q-187 0 -308.5 120.5t-121.5 318.5zM233 565q3 0 106 1t175 1h238 q14 47 14 86q0 91 -57.5 144t-155.5 53q-113 0 -200 -80t-120 -205zM272 1061l306 373h143l160 -373h-107l-137 276h-4l-242 -276h-119z" />
<glyph unicode="&#xeb;" horiz-adv-x="956" d="M82 412q0 142 59.5 267.5t173 205.5t254.5 80q145 0 235.5 -83t90.5 -218q0 -103 -41 -193l-639 -4q0 -8 -1 -23t-1 -22q0 -156 83 -243t226 -87q118 0 226 53l18 -114q-49 -26 -119.5 -42t-134.5 -16q-187 0 -308.5 120.5t-121.5 318.5zM233 565q3 0 106 1t175 1h238 q14 47 14 86q0 91 -57.5 144t-155.5 53q-113 0 -200 -80t-120 -205zM328 1214q0 42 27 71.5t69 29.5q43 0 70.5 -29.5t27.5 -71.5t-27.5 -72t-70.5 -30q-42 0 -69 30t-27 72zM721 1214q0 42 28.5 71.5t71.5 29.5q42 0 69.5 -29.5t27.5 -71.5t-27.5 -72t-69.5 -30 q-43 0 -71.5 30t-28.5 72z" />
<glyph unicode="&#xec;" horiz-adv-x="428" d="M49 1427h164l170 -366h-94zM63 0l181 928l131 26l-185 -954h-127z" />
<glyph unicode="&#xed;" horiz-adv-x="428" d="M63 0l181 928l131 26l-185 -954h-127zM264 1061l316 366h168l-383 -366h-101z" />
<glyph unicode="&#xee;" horiz-adv-x="428" d="M29 1061l305 373h143l160 -373h-107l-137 276h-4l-242 -276h-118zM63 0l181 928l131 26l-185 -954h-127z" />
<glyph unicode="&#xef;" horiz-adv-x="428" d="M63 0l181 928l131 26l-185 -954h-127zM66 1214q0 42 27 71.5t69 29.5q43 0 70.5 -29.5t27.5 -71.5t-27.5 -72t-70.5 -30q-42 0 -69 30t-27 72zM459 1214q0 42 28.5 71.5t71.5 29.5q42 0 69 -29.5t27 -71.5t-27 -72t-69 -30q-43 0 -71.5 30t-28.5 72z" />
<glyph unicode="&#xf0;" horiz-adv-x="1069" d="M76 379q0 208 140 357t331 149q184 0 307 -137h4q-33 149 -213 405l-121 -31l-123 -32l-12 94l195 51q-59 79 -150 170l150 22q41 -41 135 -155l221 57l14 -94l-176 -45q223 -332 226 -623q0 -114 -36.5 -219.5t-101 -187.5t-162 -131t-212.5 -49q-186 0 -301 111 t-115 288zM213 389q0 -139 78.5 -219t212.5 -80q67 0 126.5 26t102.5 70.5t74.5 103t47 125.5t15.5 136q0 49 -6 92q-44 56 -131.5 92.5t-177.5 36.5q-146 0 -244 -112.5t-98 -270.5z" />
<glyph unicode="&#xf1;" horiz-adv-x="1034" d="M57 0l183 938l133 27l-27 -142q166 142 320 142q122 0 195 -69.5t73 -182.5q0 -45 -16 -127l-115 -586h-127l110 569q17 83 17 113q0 79 -47.5 121.5t-137.5 42.5q-70 0 -148 -37.5t-146 -99.5l-140 -709h-127zM305 1083q33 113 83 173.5t130 60.5q46 0 93 -22.5t78 -49 t66.5 -49t61.5 -22.5q33 0 57.5 31.5t49.5 97.5h94q-35 -113 -85.5 -173.5t-127.5 -60.5q-46 0 -93 22.5t-78 49t-66.5 49t-61.5 22.5q-34 0 -58 -32t-51 -97h-92z" />
<glyph unicode="&#xf2;" horiz-adv-x="1085" d="M80 406q0 145 63.5 271.5t184 206t270.5 79.5q183 0 296.5 -123t113.5 -310q0 -108 -38 -208.5t-105 -177.5t-166 -123t-212 -46q-183 0 -295 122t-112 309zM207 412q0 -144 78.5 -234t216.5 -90q113 0 201 64.5t132 162.5t44 207q0 145 -78 237.5t-215 92.5 q-114 0 -202.5 -66.5t-132.5 -166t-44 -207.5zM344 1427h164l170 -366h-94z" />
<glyph unicode="&#xf3;" horiz-adv-x="1085" d="M80 406q0 145 63.5 271.5t184 206t270.5 79.5q183 0 296.5 -123t113.5 -310q0 -108 -38 -208.5t-105 -177.5t-166 -123t-212 -46q-183 0 -295 122t-112 309zM207 412q0 -144 78.5 -234t216.5 -90q113 0 201 64.5t132 162.5t44 207q0 145 -78 237.5t-215 92.5 q-114 0 -202.5 -66.5t-132.5 -166t-44 -207.5zM555 1061l315 366h168l-383 -366h-100z" />
<glyph unicode="&#xf4;" horiz-adv-x="1085" d="M80 406q0 145 63.5 271.5t184 206t270.5 79.5q183 0 296.5 -123t113.5 -310q0 -108 -38 -208.5t-105 -177.5t-166 -123t-212 -46q-183 0 -295 122t-112 309zM207 412q0 -144 78.5 -234t216.5 -90q113 0 201 64.5t132 162.5t44 207q0 145 -78 237.5t-215 92.5 q-114 0 -202.5 -66.5t-132.5 -166t-44 -207.5zM358 1061l306 373h143l160 -373h-107l-137 276h-4l-242 -276h-119z" />
<glyph unicode="&#xf5;" horiz-adv-x="1085" d="M80 406q0 145 63.5 271.5t184 206t270.5 79.5q183 0 296.5 -123t113.5 -310q0 -108 -38 -208.5t-105 -177.5t-166 -123t-212 -46q-183 0 -295 122t-112 309zM207 412q0 -144 78.5 -234t216.5 -90q113 0 201 64.5t132 162.5t44 207q0 145 -78 237.5t-215 92.5 q-114 0 -202.5 -66.5t-132.5 -166t-44 -207.5zM332 1083q33 113 83 173.5t130 60.5q46 0 93 -22.5t78 -49t66.5 -49t61.5 -22.5q33 0 56.5 31.5t49.5 97.5h94q-35 -113 -85.5 -173.5t-127.5 -60.5q-46 0 -93 22.5t-78 49t-66.5 49t-61.5 22.5q-34 0 -57.5 -31.5t-50.5 -97.5 h-92z" />
<glyph unicode="&#xf6;" horiz-adv-x="1085" d="M80 406q0 145 63.5 271.5t184 206t270.5 79.5q183 0 296.5 -123t113.5 -310q0 -108 -38 -208.5t-105 -177.5t-166 -123t-212 -46q-183 0 -295 122t-112 309zM207 412q0 -144 78.5 -234t216.5 -90q113 0 201 64.5t132 162.5t44 207q0 145 -78 237.5t-215 92.5 q-114 0 -202.5 -66.5t-132.5 -166t-44 -207.5zM393 1214q0 42 27 71.5t69 29.5q43 0 71 -29.5t28 -71.5t-28 -72t-71 -30q-42 0 -69 30t-27 72zM786 1214q0 42 28.5 71.5t72.5 29.5q42 0 69 -29.5t27 -71.5t-27 -72t-69 -30q-43 0 -72 30t-29 72z" />
<glyph unicode="&#xf7;" horiz-adv-x="995" d="M84 426l6 111h817l6 -111h-829zM395 193q0 42 30.5 73t76.5 31t75 -30.5t29 -73.5t-29 -75t-75 -32t-76.5 32t-30.5 75zM395 766q0 43 29.5 74.5t75.5 31.5t76 -31.5t30 -74.5t-30 -75t-76 -32t-75.5 32t-29.5 75z" />
<glyph unicode="&#xf8;" horiz-adv-x="1085" d="M8 -137l187 235q-115 118 -115 305q0 144 64 271.5t185 208t271 80.5q131 0 229 -64l142 178h116q-14 -18 -39 -50t-36 -46q-23 -30 -62 -79t-49 -62q117 -120 117 -308q0 -109 -38.5 -210t-105.5 -178t-166 -123t-212 -46q-129 0 -232 64l-139 -176h-117zM207 410 q0 -128 67 -213l482 608q-71 47 -168 47q-113 0 -202 -67t-134 -167t-45 -208zM340 135q71 -47 170 -47q114 0 202.5 65.5t132.5 164t44 206.5q0 131 -68 217z" />
<glyph unicode="&#xf9;" horiz-adv-x="1034" d="M100 225q0 40 17 127l114 586h127l-110 -569q-17 -83 -17 -113q0 -79 47.5 -121.5t137.5 -42.5q72 0 149.5 36.5t145.5 98.5l139 711h127l-182 -938l-133 -27l26 142q-166 -142 -319 -142q-122 0 -195.5 69.5t-73.5 182.5zM340 1427h164l170 -366h-94z" />
<glyph unicode="&#xfa;" horiz-adv-x="1034" d="M100 225q0 40 17 127l114 586h127l-110 -569q-17 -83 -17 -113q0 -79 47.5 -121.5t137.5 -42.5q72 0 149.5 36.5t145.5 98.5l139 711h127l-182 -938l-133 -27l26 142q-166 -142 -319 -142q-122 0 -195.5 69.5t-73.5 182.5zM559 1061l315 366h168l-383 -366h-100z" />
<glyph unicode="&#xfb;" horiz-adv-x="1034" d="M100 225q0 40 17 127l114 586h127l-110 -569q-17 -83 -17 -113q0 -79 47.5 -121.5t137.5 -42.5q72 0 149.5 36.5t145.5 98.5l139 711h127l-182 -938l-133 -27l26 142q-166 -142 -319 -142q-122 0 -195.5 69.5t-73.5 182.5zM313 1061l305 373h144l160 -373h-107l-137 276 h-4l-242 -276h-119z" />
<glyph unicode="&#xfc;" horiz-adv-x="1034" d="M100 225q0 40 17 127l114 586h127l-110 -569q-17 -83 -17 -113q0 -79 47.5 -121.5t137.5 -42.5q72 0 149.5 36.5t145.5 98.5l139 711h127l-182 -938l-133 -27l26 142q-166 -142 -319 -142q-122 0 -195.5 69.5t-73.5 182.5zM348 1214q0 42 27 71.5t69 29.5q43 0 71 -29.5 t28 -71.5t-28 -72t-71 -30q-42 0 -69 30t-27 72zM741 1214q0 42 28.5 71.5t72.5 29.5q42 0 69 -29.5t27 -71.5t-27 -72t-69 -30q-43 0 -72 30t-29 72z" />
<glyph unicode="&#xfd;" horiz-adv-x="866" d="M-213 -434l63 106q57 -43 109 -43q43 0 88.5 38.5t106.5 144.5l122 206l-178 920h131l140 -776l442 776h141l-569 -961l-125 -215q-88 -147 -156 -201.5t-149 -54.5q-91 0 -166 60zM459 1061l315 366h168l-383 -366h-100z" />
<glyph unicode="&#xfe;" horiz-adv-x="1058" d="M-35 -477l361 1857l133 27l-107 -549q47 33 75.5 50t80 33.5t108.5 16.5q157 0 262 -115.5t105 -291.5q0 -159 -68.5 -291.5t-188.5 -209.5t-265 -77q-144 0 -266 93l-103 -543h-127zM221 190q43 -48 111 -77t141 -29q107 0 195 64.5t136 166.5t48 217q0 141 -75.5 228.5 t-190.5 87.5q-118 0 -256 -98z" />
<glyph unicode="&#xff;" horiz-adv-x="866" d="M-213 -434l63 106q57 -43 109 -43q43 0 88.5 38.5t106.5 144.5l122 206l-178 920h131l140 -776l442 776h141l-569 -961l-125 -215q-88 -147 -156 -201.5t-149 -54.5q-91 0 -166 60zM276 1214q0 42 27.5 71.5t69.5 29.5q43 0 70.5 -29.5t27.5 -71.5t-27.5 -72t-70.5 -30 q-42 0 -69.5 30t-27.5 72zM670 1214q0 42 28.5 71.5t71.5 29.5q42 0 69 -29.5t27 -71.5t-27 -72t-69 -30q-43 0 -71.5 30t-28.5 72z" />
<glyph unicode="&#x152;" horiz-adv-x="1828" d="M131 549q0 121 30 229.5t93 200.5t154 159t218.5 104.5t280.5 37.5h979l-22 -121h-621l-90 -457h516l-22 -120h-517l-90 -461h623l-25 -121h-897q-128 0 -239 36.5t-193.5 104.5t-130 173t-47.5 235zM268 563q0 -213 131.5 -326.5t362.5 -115.5h147l201 1038h-227 q-129 0 -240.5 -39.5t-195 -113t-131.5 -187.5t-48 -256z" />
<glyph unicode="&#x153;" horiz-adv-x="1738" d="M80 406q0 145 63.5 271.5t184 206t270.5 79.5q132 0 224 -63.5t136 -176.5q64 111 166 176.5t228 65.5q143 0 235 -83.5t92 -217.5q0 -99 -43 -193l-637 -4q-2 -16 -2 -45q0 -156 83.5 -243t226.5 -87q117 0 225 53l16 -114q-49 -26 -119 -42t-133 -16q-138 0 -237.5 65 t-147.5 183q-65 -114 -175 -180t-249 -66q-183 0 -295 122t-112 309zM207 412q0 -144 78.5 -234t216.5 -90q113 0 201 64.5t132 162.5t44 207q0 145 -78 237.5t-215 92.5q-114 0 -202.5 -66.5t-132.5 -166t-44 -207.5zM1018 565q3 0 105.5 1t174.5 1h238q14 47 14 86 q0 91 -57.5 144t-155.5 53q-114 0 -200 -80t-119 -205z" />
<glyph unicode="&#x178;" horiz-adv-x="1073" d="M184 1280h140l245 -643l482 643h153l-594 -770l-100 -510h-127l100 518zM420 1556q0 42 27 71.5t69 29.5q43 0 70.5 -29.5t27.5 -71.5t-27.5 -72t-70.5 -30q-42 0 -69 30t-27 72zM813 1556q0 42 28.5 71.5t71.5 29.5q42 0 69.5 -29.5t27.5 -71.5t-27.5 -72t-69.5 -30 q-43 0 -71.5 30t-28.5 72z" />
<glyph unicode="&#x2c6;" horiz-adv-x="813" d="M221 1061l305 373h144l159 -373h-106l-137 276h-4l-242 -276h-119z" />
<glyph unicode="&#x2dc;" horiz-adv-x="813" d="M195 1083q33 113 83 173.5t130 60.5q46 0 93 -22.5t78 -49t66.5 -49t61.5 -22.5q33 0 56.5 31.5t49.5 97.5h94q-35 -113 -85.5 -173.5t-127.5 -60.5q-46 0 -93 22.5t-78 49t-66.5 49t-61.5 22.5q-34 0 -57.5 -31.5t-50.5 -97.5h-92z" />
<glyph unicode="&#x2000;" horiz-adv-x="888" />
<glyph unicode="&#x2001;" horiz-adv-x="1776" />
<glyph unicode="&#x2002;" horiz-adv-x="888" />
<glyph unicode="&#x2003;" horiz-adv-x="1776" />
<glyph unicode="&#x2004;" horiz-adv-x="592" />
<glyph unicode="&#x2005;" horiz-adv-x="444" />
<glyph unicode="&#x2006;" horiz-adv-x="296" />
<glyph unicode="&#x2007;" horiz-adv-x="296" />
<glyph unicode="&#x2008;" horiz-adv-x="222" />
<glyph unicode="&#x2009;" horiz-adv-x="355" />
<glyph unicode="&#x200a;" horiz-adv-x="98" />
<glyph unicode="&#x2010;" horiz-adv-x="598" d="M74 438v119h463v-119h-463z" />
<glyph unicode="&#x2011;" horiz-adv-x="598" d="M74 438v119h463v-119h-463z" />
<glyph unicode="&#x2012;" horiz-adv-x="598" d="M74 438v119h463v-119h-463z" />
<glyph unicode="&#x2013;" horiz-adv-x="911" d="M66 440l6 101h774l6 -101h-786z" />
<glyph unicode="&#x2014;" horiz-adv-x="1873" d="M66 440l6 101h1736l7 -101h-1749z" />
<glyph unicode="&#x2018;" horiz-adv-x="382" d="M154 973q0 57 30 113.5t80.5 102.5t103 82t111.5 66l45 -57q-92 -50 -160.5 -119.5t-68.5 -132.5q0 -58 106 -110q-11 -39 -43 -64t-73 -25q-56 0 -93.5 43t-37.5 101z" />
<glyph unicode="&#x2019;" horiz-adv-x="382" d="M100 897q92 50 161 119.5t69 130.5t-107 113q11 39 44 63.5t75 24.5q55 0 92 -42.5t37 -103.5q0 -57 -30 -113t-80.5 -102t-103.5 -81.5t-112 -65.5z" />
<glyph unicode="&#x201a;" horiz-adv-x="382" d="M-121 -246q92 50 161 119.5t69 130.5t-107 113q11 39 44 63.5t75 24.5q55 0 92 -42.5t37 -103.5q0 -57 -30 -113t-80.5 -102t-103.5 -81.5t-112 -65.5z" />
<glyph unicode="&#x201c;" horiz-adv-x="772" d="M154 973q0 57 30 113.5t80.5 102.5t103 82t111.5 66l45 -57q-92 -50 -160.5 -119.5t-68.5 -132.5q0 -58 106 -110q-11 -39 -43 -64t-73 -25q-56 0 -93.5 43t-37.5 101zM557 973q0 57 30 113.5t81 102.5t103.5 82t111.5 66l45 -57q-92 -50 -161 -119.5t-69 -132.5 q0 -58 107 -110q-11 -39 -43 -64t-74 -25q-56 0 -93.5 43t-37.5 101z" />
<glyph unicode="&#x201d;" horiz-adv-x="772" d="M100 897q92 50 161 119.5t69 130.5t-107 113q11 39 44 63.5t75 24.5q55 0 92 -42.5t37 -103.5q0 -57 -30 -113t-80.5 -102t-103.5 -81.5t-112 -65.5zM506 897q91 49 159 118.5t68 131.5q0 61 -106 113q11 39 43.5 63.5t74.5 24.5q55 0 93.5 -43t38.5 -103q0 -57 -30 -113 t-81 -102t-104 -81.5t-113 -65.5z" />
<glyph unicode="&#x201e;" horiz-adv-x="772" d="M-119 -246q92 50 161 119.5t69 130.5t-107 113q11 39 44 63.5t75 24.5q55 0 92 -42.5t37 -103.5q0 -57 -30 -113t-80.5 -102t-103.5 -81.5t-112 -65.5zM287 -246q91 49 159 118.5t68 131.5q0 61 -106 113q11 39 43.5 63.5t74.5 24.5q55 0 93 -43t38 -103q0 -57 -30 -113 t-81 -102t-103.5 -81.5t-112.5 -65.5z" />
<glyph unicode="&#x2022;" horiz-adv-x="925" d="M68 475q0 43 42.5 145.5t73.5 133.5t133.5 72.5t145.5 41.5t147 -41.5t131 -72.5q31 -27 73 -131.5t42 -147.5t-41.5 -145.5t-73.5 -134.5q-31 -31 -133.5 -73t-146.5 -42q-42 0 -145 43t-132 72q-30 35 -73 136t-43 144z" />
<glyph unicode="&#x2026;" horiz-adv-x="1159" d="M16 80q0 42 29.5 72t75.5 30q43 0 71.5 -30t28.5 -72q0 -43 -28.5 -75t-71.5 -32q-46 0 -75.5 32t-29.5 75zM406 80q0 42 29 72t73 30t73 -30t29 -72t-29.5 -74.5t-72.5 -32.5t-72.5 32.5t-29.5 74.5zM793 80q0 42 29 72t73 30q46 0 74 -29.5t28 -72.5t-28.5 -75 t-73.5 -32q-43 0 -72.5 32.5t-29.5 74.5z" />
<glyph unicode="&#x202f;" horiz-adv-x="355" />
<glyph unicode="&#x2039;" horiz-adv-x="671" d="M53 412l27 135l571 356l-8 -110l-473 -324v-2l352 -328l-37 -86z" />
<glyph unicode="&#x203a;" horiz-adv-x="671" d="M25 51l8 111l471 321v2l-350 330l36 88l433 -360l-25 -135z" />
<glyph unicode="&#x205f;" horiz-adv-x="444" />
<glyph unicode="&#x20ac;" horiz-adv-x="1032" d="M63 430l7 92h153q2 51 17 137q7 42 22 103h-117l-6 92h152q72 204 202.5 321t311.5 117q92 0 183.5 -27.5t152.5 -74.5l-51 -107q-57 44 -138 70.5t-157 26.5q-253 0 -371 -326h483l-6 -92h-506q-15 -61 -22 -103q-3 -14 -21 -137h414l6 -92h-422q5 -173 83 -260.5 t247 -87.5q125 0 223 43l-2 -113q-87 -40 -231 -43q-453 0 -453 461h-154z" />
<glyph unicode="&#x2122;" horiz-adv-x="1859" d="M190 1186v96h687v-96h-299v-670h-101v670h-287zM983 516l31 766h170l202 -645h17l225 645h162l27 -766h-99l-18 649h-14l-240 -639h-117l-213 639h-14l-25 -649h-94z" />
<glyph unicode="&#xe000;" horiz-adv-x="942" d="M0 0v942h942v-942h-942z" />
<glyph unicode="&#xfb01;" horiz-adv-x="1032" d="M84 0l158 819l-144 10l6 78l160 33l35 170q33 158 107.5 236.5t201.5 78.5q118 0 205 -65q-1 -3 -4 -9.5t-4 -9.5q-4 -9 -19 -36q-4 -8 -13 -27t-13 -27q-85 56 -160 56q-133 0 -174 -201l-35 -172h463l125 20l-184 -954h-127l159 819h-458l-160 -819h-125z" />
<glyph unicode="&#xfb02;" horiz-adv-x="1030" d="M84 0l158 819l-144 10l6 78l160 33l35 170q33 158 107.5 236.5t201.5 78.5q118 0 205 -65q-1 -3 -4 -9.5t-4 -9.5q-4 -9 -19 -36q-4 -8 -13 -27t-13 -27q-85 56 -160 56q-133 0 -174 -201l-35 -172h271v-115h-293l-160 -819h-125zM666 0l268 1380l133 27l-274 -1407h-127 z" />
<glyph unicode="&#xfb03;" horiz-adv-x="1640" d="M84 0l158 819l-144 10l6 78l160 33l31 150q33 158 107.5 236.5t201.5 78.5q116 0 205 -66q-1 -3 -4 -9t-4 -9q-5 -12 -19 -37q-5 -8 -14 -27.5t-12 -25.5q-83 55 -160 55q-133 0 -174 -201l-31 -151h479l37 176q33 159 106.5 237t200.5 78q120 0 207 -65q-1 -3 -4 -9.5 t-4 -9.5q-6 -15 -18 -36l-27 -54q-85 56 -162 56q-133 0 -174 -201l-35 -172h465l123 20l-184 -954h-125l160 819h-459l-160 -819h-127l160 819h-481l-160 -819h-125z" />
<glyph unicode="&#xfb04;" horiz-adv-x="1636" d="M84 0l158 819l-144 10l6 78l160 33l31 150q33 158 107.5 236.5t201.5 78.5q116 0 205 -66q-1 -3 -4 -9t-4 -9q-5 -12 -19 -37q-5 -8 -14 -27.5t-12 -25.5q-83 55 -160 55q-133 0 -174 -201l-31 -151h479l37 176q33 159 106.5 237t200.5 78q120 0 207 -65q-1 -3 -4 -9.5 t-4 -9.5q-6 -15 -18 -36l-27 -54q-85 56 -162 56q-133 0 -174 -201l-35 -172h271l-6 -115h-285l-160 -819h-127l160 819h-481l-160 -819h-125zM1274 0l268 1380l131 27l-274 -1407h-125z" />
</font>
</defs>
</svg>
