<?xml version="1.0" encoding="utf-8"?>
<!-- Generator: Adobe Illustrator 16.0.0, SVG Export Plug-In . SVG Version: 6.00 Build 0)  -->
<!DOCTYPE svg PUBLIC "-//W3C//DTD SVG 1.1//EN" "http://www.w3.org/Graphics/SVG/1.1/DTD/svg11.dtd">
<svg version="1.1" id="Layer_1" xmlns="http://www.w3.org/2000/svg" xmlns:xlink="http://www.w3.org/1999/xlink" x="0px" y="0px"
	 width="40px" height="40px" viewBox="0 0 40 40" enable-background="new 0 0 40 40" xml:space="preserve">
<g>
	<path fill="#E05A4F" d="M24.671,27.5l-0.504-9.495L20.3,23.5h-0.055l-3.799-5.385L15.947,27.5h-4.1l0.882-16h4.101h0.034
		l3.472,5.843L23.79,11.5h4.169l0.883,16H24.671z"/>
	<path fill="#E05A4F" d="M20,40C8.972,40,0,31.027,0,20C0,8.972,8.972,0,20,0c11.027,0,20,8.972,20,20C40,31.027,31.027,40,20,40z
		 M20,2.909C10.576,2.909,2.909,10.576,2.909,20S10.576,37.091,20,37.091S37.091,29.424,37.091,20S29.424,2.909,20,2.909z"/>
</g>
</svg>
