<?xml version="1.0" encoding="utf-8"?>
<!-- Generator: Adobe Illustrator 16.0.0, SVG Export Plug-In . SVG Version: 6.00 Build 0)  -->
<!DOCTYPE svg PUBLIC "-//W3C//DTD SVG 1.1//EN" "http://www.w3.org/Graphics/SVG/1.1/DTD/svg11.dtd">
<svg version="1.1" id="Layer_1" xmlns="http://www.w3.org/2000/svg" xmlns:xlink="http://www.w3.org/1999/xlink" x="0px" y="0px"
	 width="40px" height="40px" viewBox="0 0 40 40" enable-background="new 0 0 40 40" xml:space="preserve">
<g>
	<path fill="#80CCC0" d="M20,40C8.972,40,0,31.028,0,20S8.972,0,20,0s20,8.972,20,20S31.028,40,20,40z M20,2.909
		C10.576,2.909,2.909,10.576,2.909,20S10.576,37.091,20,37.091S37.091,29.424,37.091,20S29.424,2.909,20,2.909z"/>
	<g>
		<path fill="#80CCC0" d="M17.14,26.288c-0.066-0.006-0.382-0.11-0.446-0.116c-0.129-0.016-0.385-0.09-0.512-0.117
			c-0.257-0.057-0.582-0.17-0.832-0.304c-0.252-0.132-0.526-0.33-0.721-0.57c-0.095-0.113-0.21-0.281-0.241-0.353
			c-0.038-0.079-0.089-0.163-0.14-0.245c-0.197-0.322-0.452-0.649-0.718-0.965l-0.807-0.896c-0.04-0.031-0.068-0.105-0.038-0.19
			c0.032-0.097,0.144-0.18,0.249-0.185c0.099-0.003,0.194,0.062,0.194,0.062c0.188,0.112,0.656,0.384,1.025,0.627
			c0.368,0.247,0.615,0.519,0.947,0.855c0.081,0.085,0.164,0.174,0.242,0.268c0.085,0.104,0.108,0.12,0.159,0.158
			c0.095,0.071,0.211,0.122,0.346,0.164c0.136,0.039,0.287,0.061,0.448,0.072c0.079,0.007,0.161,0.002,0.242,0.002l1.016-0.052
			c0.087-0.474,0.315-1.096,0.894-1.536c-2.413-0.357-3.729-1.376-4.441-2.467c-2.762-0.026-3.913,0.476-3.925,0.482l-0.077-0.17
			c0.048-0.025,1.166-0.508,3.883-0.495c-0.074-0.128-0.143-0.255-0.202-0.38c-3.614-0.099-3.914,0.218-3.937,0.256
			c0-0.001,0.011-0.018-0.008-0.044l-0.157,0.105c-0.021-0.03-0.036-0.091-0.002-0.153c0.167-0.302,1.518-0.423,4.018-0.357
			c-0.548-1.296-0.4-2.465-0.4-2.465c0-1.081,0.477-2.084,1.288-2.906c-0.359-0.887-0.232-2.205-0.193-2.685
			c0.036-0.444,0.596-0.336,0.596-0.336c0.503,0.057,1.312,0.382,1.312,0.382c0.606,0.224,1.116,0.562,1.468,0.835
			c0.835-0.24,1.749-0.374,2.706-0.374c0.867,0,1.7,0.109,2.47,0.31c0.346-0.263,0.821-0.565,1.382-0.771
			c0,0,0.806-0.325,1.309-0.382c0,0,0.561-0.108,0.597,0.336c0.036,0.439,0.145,1.581-0.115,2.451
			c0.962,0.863,1.535,1.953,1.535,3.14c0,0,0.154,1.236-0.448,2.573c2.53-0.481,3.382-0.001,3.421,0.022l-0.098,0.162
			c-0.009-0.004-0.873-0.476-3.424,0.032c-0.066,0.131-0.139,0.263-0.221,0.393c3.075-0.228,3.515,0.07,3.556,0.212l-0.083,0.03
			l-0.063,0.059c-0.013-0.013-0.309-0.306-3.48-0.064c-0.731,1.032-0.604,2.022-2.894,2.367c1.309,0.886,2.684,2.364,2.684,2.364
			v-0.053V29.5h-2v-4.044l0,0V29.5h-2v-4.703L20.63,24.5h0.87v5h-1v-4.044l0,0V29.5h-2v-3"/>
		<path fill="#80CCC0" d="M16.767,24.454"/>
	</g>
</g>
</svg>
