<?xml version="1.0" encoding="utf-8"?>
<!-- Generator: Adobe Illustrator 16.0.0, SVG Export Plug-In . SVG Version: 6.00 Build 0)  -->
<!DOCTYPE svg PUBLIC "-//W3C//DTD SVG 1.1//EN" "http://www.w3.org/Graphics/SVG/1.1/DTD/svg11.dtd">
<svg version="1.1" id="Layer_1" xmlns="http://www.w3.org/2000/svg" xmlns:xlink="http://www.w3.org/1999/xlink" x="0px" y="0px"
	 width="40px" height="40px" viewBox="0 0 40 40" enable-background="new 0 0 40 40" xml:space="preserve">
<g>
	<path fill="#E05A4F" d="M20,40C8.972,40,0,31.028,0,20S8.972,0,20,0s20,8.972,20,20S31.028,40,20,40z M20,2.909
		C10.576,2.909,2.909,10.576,2.909,20S10.576,37.091,20,37.091S37.091,29.424,37.091,20S29.424,2.909,20,2.909z"/>
	<g>
		<g>
			<path fill="#E05A4F" d="M10.695,14.014h3.509v13.234h-3.509V14.014z"/>
			<path fill="#E05A4F" d="M28.538,14.771c0.865,0.717,1.299,1.904,1.299,3.563v8.913h-3.545v-8.05c0-0.696-0.093-1.23-0.276-1.604
				c-0.34-0.68-0.981-1.019-1.931-1.019c-1.164,0-1.964,0.497-2.397,1.492c-0.226,0.526-0.339,1.197-0.339,2.015v7.165h-3.46V14.037
				h3.352v1.931c0.443-0.68,0.862-1.17,1.258-1.468c0.708-0.535,1.608-0.802,2.697-0.802C26.557,13.698,27.671,14.056,28.538,14.771
				z"/>
		</g>
		<circle fill="#E05A4F" cx="11.478" cy="10.278" r="2.142"/>
	</g>
</g>
</svg>
