<?xml version="1.0" encoding="utf-8"?>
<!-- Generator: Adobe Illustrator 16.0.0, SVG Export Plug-In . SVG Version: 6.00 Build 0)  -->
<!DOCTYPE svg PUBLIC "-//W3C//DTD SVG 1.1//EN" "http://www.w3.org/Graphics/SVG/1.1/DTD/svg11.dtd">
<svg version="1.1" id="Layer_1" xmlns="http://www.w3.org/2000/svg" xmlns:xlink="http://www.w3.org/1999/xlink" x="0px" y="0px"
	 width="40px" height="40px" viewBox="0 0 40 40" enable-background="new 0 0 40 40" xml:space="preserve">
<g>
	<path fill="#E05B4F" d="M20,9.722c-5.69,0-10.319,4.628-10.319,10.317S14.31,30.357,20,30.357c5.689,0,10.318-4.629,10.318-10.318
		S25.689,9.722,20,9.722z M24.93,26.818c-0.474-1.948-1.026-3.826-1.647-5.592c1.585-0.2,3.251-0.074,4.96,0.367
		C27.847,23.683,26.654,25.561,24.93,26.818z M11.612,20.005c1.615-0.082,5.209-0.367,8.567-1.361
		c0.166,0.375,0.333,0.768,0.499,1.177c-3.712,1.171-6.146,3.693-7.371,5.268c-1.096-1.45-1.695-3.23-1.695-5.049
		C11.612,20.027,11.612,20.016,11.612,20.005z M21.203,16.25c-1.021-2.07-1.978-3.534-2.667-4.469
		c2.363-0.42,4.782,0.204,6.638,1.659C24.507,14.543,23.173,15.486,21.203,16.25z M21.37,21.633c0.697,1.94,1.305,4.013,1.808,6.165
		c-1.013,0.417-2.081,0.628-3.178,0.628c-1.952,0-3.84-0.685-5.343-1.932C15.565,25.26,17.797,22.713,21.37,21.633z M22.585,19.369
		c-0.186-0.464-0.375-0.919-0.566-1.358c2.102-0.837,3.63-1.904,4.55-3.179c1.089,1.37,1.723,3.055,1.808,4.806
		c-1.228-0.293-2.442-0.44-3.614-0.44C24.027,19.197,23.297,19.255,22.585,19.369z M16.561,12.39
		c0.504,0.624,1.57,2.072,2.782,4.476c-2.974,0.838-6.029,1.111-7.494,1.197C12.456,15.551,14.194,13.456,16.561,12.39z"/>
	<path fill="#E05B4F" d="M20,40C8.972,40,0,31.028,0,20S8.972,0,20,0s20,8.972,20,20S31.028,40,20,40z M20,2.909
		C10.576,2.909,2.909,10.576,2.909,20S10.576,37.091,20,37.091S37.091,29.424,37.091,20S29.424,2.909,20,2.909z"/>
</g>
</svg>
