<?xml version="1.0" encoding="utf-8"?>
<!-- Generator: Adobe Illustrator 16.0.0, SVG Export Plug-In . SVG Version: 6.00 Build 0)  -->
<!DOCTYPE svg PUBLIC "-//W3C//DTD SVG 1.1//EN" "http://www.w3.org/Graphics/SVG/1.1/DTD/svg11.dtd">
<svg version="1.1" id="Layer_1" xmlns="http://www.w3.org/2000/svg" xmlns:xlink="http://www.w3.org/1999/xlink" x="0px" y="0px"
	 width="40px" height="40px" viewBox="0 0 40 40" enable-background="new 0 0 40 40" xml:space="preserve">
<g>
	<path fill="#6C7A80" d="M20,40C8.972,40,0,31.028,0,20S8.972,0,20,0s20,8.972,20,20S31.028,40,20,40z M20,2.909
		C10.576,2.909,2.909,10.576,2.909,20S10.576,37.091,20,37.091S37.091,29.424,37.091,20S29.424,2.909,20,2.909z"/>
	<g id="vosoYi_5_">
		<g>
			<g>
				<path fill-rule="evenodd" clip-rule="evenodd" fill="#6C7A80" d="M24.479,10.372c0,1.11,0,3.289,0,3.289
					s-2.449-0.135-2.814,0.46c-0.3,0.486-0.201,1.578-0.229,2.585c0.996,0,2.049,0,3.044,0c-0.066,1.157-0.193,2.256-0.343,3.332
					c-0.864,0-2.588,0-2.588,0v9.597c0,0-2.738,0-4.079,0c0-2.972,0-6.435,0-9.597c-0.649,0-1.303,0-1.951,0c0-1.11,0-2.222,0-3.332
					c0.629,0,1.262,0,1.895,0c0.091-2.218-0.006-4.109,1.093-5.229C19.738,10.22,21.934,10.374,24.479,10.372z"/>
			</g>
		</g>
	</g>
</g>
</svg>
