<?xml version="1.0" encoding="utf-8"?>
<!-- Generator: Adobe Illustrator 16.0.0, SVG Export Plug-In . SVG Version: 6.00 Build 0)  -->
<!DOCTYPE svg PUBLIC "-//W3C//DTD SVG 1.1//EN" "http://www.w3.org/Graphics/SVG/1.1/DTD/svg11.dtd">
<svg version="1.1" id="Layer_1" xmlns="http://www.w3.org/2000/svg" xmlns:xlink="http://www.w3.org/1999/xlink" x="0px" y="0px"
	 width="40px" height="40px" viewBox="0 0 40 40" enable-background="new 0 0 40 40" xml:space="preserve">
<g>
	<path fill="#7E9198" d="M20,40C8.972,40,0,31.028,0,20S8.972,0,20,0s20,8.972,20,20S31.028,40,20,40z M20,2.909
		C10.576,2.909,2.909,10.576,2.909,20S10.576,37.091,20,37.091S37.091,29.424,37.091,20S29.424,2.909,20,2.909z"/>
	<g id="RUuBUW_1_">
		<g>
			<g>
				<path fill-rule="evenodd" clip-rule="evenodd" fill="#7E9198" d="M29.926,14.626c-0.091,0.711-1.121,1.425-1.746,1.965
					c0.616,9.088-9.651,14.756-17.136,10.151c2.098,0.016,4.426-0.561,5.674-1.747c-1.814-0.292-3.103-1.116-3.601-2.728
					c0.53-0.051,1.278,0.114,1.637-0.109c-1.661-0.632-2.976-1.61-3.055-3.82c0.591,0.062,0.899,0.41,1.636,0.327
					c-1.073-0.688-2.301-3.308-1.2-5.24c1.948,2.163,4.382,3.841,8.186,4.149c-0.943-4.013,4.375-6.499,6.767-3.603
					c0.93-0.198,1.716-0.542,2.512-0.874c-0.326,0.912-0.989,1.485-1.637,2.074C28.665,15.041,29.411,14.949,29.926,14.626z"/>
			</g>
		</g>
	</g>
</g>
</svg>
