<?xml version="1.0" encoding="utf-8"?>
<!-- Generator: Adobe Illustrator 16.0.0, SVG Export Plug-In . SVG Version: 6.00 Build 0)  -->
<!DOCTYPE svg PUBLIC "-//W3C//DTD SVG 1.1//EN" "http://www.w3.org/Graphics/SVG/1.1/DTD/svg11.dtd">
<svg version="1.1" id="Layer_1" xmlns="http://www.w3.org/2000/svg" xmlns:xlink="http://www.w3.org/1999/xlink" x="0px" y="0px"
	 width="40px" height="40px" viewBox="0 0 40 40" enable-background="new 0 0 40 40" xml:space="preserve">
<g>
	<path fill="#6AB7A8" d="M20,40C8.972,40,0,31.028,0,20S8.972,0,20,0s20,8.972,20,20S31.028,40,20,40z M20,2.909
		C10.576,2.909,2.909,10.576,2.909,20S10.576,37.091,20,37.091S37.091,29.424,37.091,20S29.424,2.909,20,2.909z"/>
	<g>
		<path fill="#6AB7A8" d="M30.484,15.507L30.391,15.6l-3.443,12.234h-4.076l-2.506-9.778h-0.422l-2.858,9.778h-3.958L9.731,15.716
			L9.661,15.6l-1.71-0.463v-1.924h6.653v2.294h-1.29l-0.07,0.093l2.038,9.593h0.397l2.625-9.106l-0.095-0.301l-0.069-0.115
			L16.5,15.137v-1.924h7.379v2.294h-1.288l-0.07,0.093l2.506,9.616h0.375l2.085-9.431l-0.047-0.093l-1.522-0.556v-1.924h5.996v2.294
			H30.484z"/>
	</g>
</g>
</svg>
