<?xml version="1.0" encoding="utf-8"?>
<!-- Generator: Adobe Illustrator 16.0.0, SVG Export Plug-In . SVG Version: 6.00 Build 0)  -->
<!DOCTYPE svg PUBLIC "-//W3C//DTD SVG 1.1//EN" "http://www.w3.org/Graphics/SVG/1.1/DTD/svg11.dtd">
<svg version="1.1" id="Layer_1" xmlns="http://www.w3.org/2000/svg" xmlns:xlink="http://www.w3.org/1999/xlink" x="0px" y="0px"
	 width="165.348px" height="112.443px" viewBox="0 0 165.348 112.443" enable-background="new 0 0 165.348 112.443"
	 xml:space="preserve">
<g>
	<path fill="#7F939A" d="M63.803,54.778c-0.254,0.237-3.951,3.748-7.594,8.883c-6.311,8.893-7.633,15.764-7.633,19.964
		c0,6.007,1.775,11.347,5.107,16.007c0.83,1.16,1.756,2.277,2.775,3.354c0.225,0.239,0.447,0.483,0.674,0.722l0.375,0.397
		l0.377-0.396l43.649-45.694c0.254-0.239,3.951-3.749,7.594-8.884c6.309-8.894,7.635-15.766,7.635-19.964
		c0-6.007-1.777-11.347-5.109-16.007c-0.83-1.161-1.754-2.279-2.773-3.354c-0.229-0.239-0.449-0.483-0.678-0.721l-0.373-0.397
		l-0.379,0.396L63.803,54.778z"/>
	<path fill="#82CEC1" d="M158.006,63.322c-3.525-5.161-7.1-8.681-7.314-8.889l-27.568-29.345c0,0,0.092,6.008-0.51,9.145
		c0,0.004-0.002,0.008-0.002,0.008c-2.023,13.856-11.826,23.58-16.236,28.535l-43.006,45.535c4.467,2.678,9.614,4.132,14.956,4.132
		c6.811,0,13.438-2.397,18.66-6.753c4.494-3.747,8.547-8.544,10.279-10.593c0.02-0.024,0.039-0.048,0.057-0.071
		c4.01,4.724,7.449,8.25,11.102,11.385c4.535,3.891,10.844,6.032,17.76,6.032c16.082,0,29.166-13.083,29.166-29.166
		C165.348,79.081,164.073,72.214,158.006,63.322z"/>
	<path fill="#E76453" d="M98.737,2.45C95.038,0.825,91.1,0,87.03,0C80.217,0,73.59,2.397,68.366,6.753
		c-4.499,3.75-8.551,8.547-10.28,10.597c-0.02,0.022-0.039,0.045-0.059,0.067c-4.002-4.721-7.443-8.248-11.1-11.385
		C42.391,2.144,36.084,0,29.166,0C13.084,0,0,13.085,0,29.166c0,4.196,1.275,11.065,7.346,19.955
		c3.521,5.162,7.098,8.681,7.312,8.889l27.725,29.509c-0.006-0.672-0.016-3.139,0.133-5.549c0.523-16.086,11.66-26.662,16.793-32.33
		l43.206-45.186C101.311,3.698,100.049,3.029,98.737,2.45z"/>
</g>
</svg>
